<svg width="54" height="45" viewBox="0 0 54 45" fill="none" xmlns="http://www.w3.org/2000/svg">
<path fill-rule="evenodd" clip-rule="evenodd" d="M47.6406 21.3757C48.4596 21.266 49.2552 21.0622 50.0076 20.78C51.1323 20.3607 52.1708 19.765 53.0917 19.0283C52.8879 22.0223 52.1943 24.8791 51.0931 27.5244L50.9755 27.8065C46.9195 37.2392 37.6162 43.8895 26.7453 44.0932C15.8744 43.8895 6.57111 37.2392 2.5151 27.8065L2.39754 27.5244C1.29242 24.8791 0.602706 22.0223 0.398926 19.0283C1.31985 19.765 2.35835 20.3607 3.48306 20.78C4.23548 21.0583 5.031 21.262 5.85004 21.3757H5.85396C5.41113 19.8787 5.17208 18.2916 5.17208 16.6496C4.56466 6.47625 15.1534 0.801758 15.1534 0.801758C15.4512 5.47302 16.8777 8.99998 17.9593 11.0574C20.3263 9.20768 23.3085 8.10257 26.5455 8.10257C29.9117 8.10257 33.0037 9.29781 35.4138 11.2847C36.5072 9.26646 38.0277 5.65329 38.3373 0.805676C38.3373 0.805676 48.926 6.48016 48.3186 16.6535C48.3186 18.2955 48.0795 19.8787 47.6367 21.3757H47.6406ZM28.0113 35.7143C27.2001 35.393 26.2949 35.3773 25.4758 35.679C25.0448 35.8358 24.9664 36.4079 25.3387 36.6783L26.7495 37.6933L28.1563 36.7254C28.5286 36.4667 28.4659 35.8946 28.0427 35.7261L28.0113 35.7143ZM13.6717 23.7978C13.6717 23.7978 19.2247 23.9349 22.7321 28.3711C22.9398 28.6297 23.1083 28.9197 23.2102 29.2332C23.4297 29.9033 23.4845 30.981 22.0463 31.6433C21.725 31.7922 21.4036 31.898 21.0823 31.9764C18.8093 32.5329 16.4463 31.5845 15.0825 29.6839C14.1733 28.4142 13.4248 26.5175 13.6717 23.7978ZM30.7829 28.3711C34.2903 23.935 39.8433 23.7978 39.8433 23.7978C40.0941 26.5175 39.3417 28.4142 38.4325 29.6839C37.0687 31.5845 34.7057 32.5329 32.4327 31.9764C32.1114 31.8981 31.7901 31.7922 31.4687 31.6433C30.0305 30.981 30.0854 29.9034 30.3048 29.2332C30.4067 28.9197 30.5752 28.6297 30.7829 28.3711Z" fill="#000201"/>
</svg>
