<?xml version="1.0" encoding="utf-8"?>
<!-- Generator: Adobe Illustrator 24.2.3, SVG Export Plug-In . SVG Version: 6.00 Build 0)  -->
<svg version="1.1" id="Layer_1" xmlns="http://www.w3.org/2000/svg" xmlns:xlink="http://www.w3.org/1999/xlink" x="0px" y="0px"
	 viewBox="0 0 75 30" style="enable-background:new 0 0 75 30;" xml:space="preserve">
<style type="text/css">
	.st0{fill:#FFFFFF;}
	.st1{fill:#FF450B;}
</style>
<path class="st0" d="M24.3,21.9c-2,1.6-4.6,2.5-7.9,2.5c-3.3,0-5.9-0.8-7.9-2.5c-2-1.7-3-4-3-7s1-5.3,3-7c2-1.7,4.6-2.5,7.9-2.5
	c3.3,0,5.9,0.8,7.9,2.5c2,1.6,3,4,3,7S26.3,20.3,24.3,21.9z M16.4,16.8c1.3,0,2.3-0.2,3.1-0.5c0.7-0.3,1.1-0.8,1.1-1.4
	c0-0.6-0.4-1-1.1-1.4c-0.7-0.3-1.8-0.5-3.1-0.5c-1.3,0-2.3,0.2-3.1,0.5c-0.7,0.3-1.1,0.8-1.1,1.4c0,0.6,0.4,1,1.1,1.4
	C14.1,16.6,15.1,16.8,16.4,16.8z"/>
<path class="st0" d="M45.6,22.3c-1.7,1.4-4.1,2.1-7.2,2.1c-3.1,0-5.5-0.7-7.2-2.1c-1.7-1.4-2.5-3.4-2.5-5.9V5.8h7.3l-0.6,7
	c-0.1,1.1,0.1,1.9,0.7,2.6c0.5,0.6,1.3,1,2.4,1s1.9-0.3,2.4-1c0.5-0.7,0.8-1.5,0.7-2.6l-0.6-7h7.2v10.6
	C48.2,18.9,47.3,20.9,45.6,22.3z"/>
<path class="st0" d="M59.2,17.2h-2.6l0.6,6.8h-7.4V5.8H61c2.7,0,4.8,0.5,6.3,1.3c1.5,0.8,2.2,2.2,2.2,4.2c0,3.1-2.8,4.7-8.3,4.7v0.4
	h1.9c2.3,0,4.1,0.7,5.3,2.1c1.2,1.4,1.6,3.2,1.4,5.6h-8.4c0.3-1.2,0.4-2.4,0.4-3.4c0-1-0.2-1.9-0.6-2.5C60.7,17.5,60,17.2,59.2,17.2
	z M60.7,13.3h-4.1v1.8h4.1c1.4,0,2.1-0.3,2.1-0.9C62.7,13.6,62.1,13.3,60.7,13.3z"/>
<g>
	<path class="st1" d="M19.4,13.5c-0.4-0.2-0.9-0.3-1.4-0.4c-0.4-0.1-1.3-0.1-1.3-0.1s-1.2,0-2,0.1c-0.6,0.1-1,0.2-1.4,0.4
		c-0.7,0.3-1.1,0.8-1.1,1.4c0,0.6,0.4,1,1.1,1.4c0.4,0.2,0.9,0.3,1.4,0.4c0,0,0,0,0,0c0.7,0.1,1.9,0.1,1.9,0.1s0.9,0,1.3-0.1
		c0,0,0.1,0,0.1,0c0.5-0.1,1-0.2,1.4-0.4c0.7-0.3,1.1-0.8,1.1-1.4C20.5,14.3,20.2,13.9,19.4,13.5z"/>
	<path class="st1" d="M73,16.3c0.9-1.4,1.5-3.1,1.5-5c0-3.4-1.5-6.7-4.8-8.5c-2.5-1.4-5.6-1.9-8.6-1.9l0,0H23.7v1
		c-2.2-0.9-4.7-1.3-7.3-1.3c-4.1,0-8,1.1-11.1,3.7c-3.3,2.8-4.8,6.6-4.8,10.8c0,4.2,1.4,8.1,4.7,10.8l0,0l0,0
		c3.1,2.6,7,3.6,11.1,3.6c4.1,0,8-1,11.1-3.6l0,0c0,0,0,0,0.1-0.1c0.2,0.1,0.3,0.3,0.5,0.4l0,0l0,0c2.9,2.4,6.6,3.2,10.4,3.2
		c2.2,0,4.4-0.3,6.4-1V29h29.3l0.5-4.4C75.1,21.8,74.7,18.8,73,16.3z M27.2,16.4c-0.3,2.1-1.1,3.9-2.5,5.2c-0.1,0.1-0.2,0.2-0.4,0.3
		c-2,1.6-4.6,2.5-7.9,2.5c-3.3,0-5.9-0.8-7.9-2.5c-2-1.7-3-4-3-7s1-5.3,3-7c2-1.7,4.6-2.5,7.9-2.5c3,0,5.4,0.7,7.3,2
		c0.2,0.1,0.4,0.3,0.6,0.5c2,1.6,3,4,3,7C27.3,15.4,27.2,15.9,27.2,16.4z M48.2,16.4c0,2.5-0.8,4.5-2.5,5.9
		c-0.2,0.2-0.5,0.4-0.8,0.6c-1.6,1-3.8,1.5-6.4,1.5c-3.1,0-5.5-0.7-7.2-2.1c-0.2-0.2-0.4-0.3-0.5-0.5c-1.3-1.4-2-3.2-2-5.4V5.8h7.3
		l-0.6,7c-0.1,1.1,0.1,1.9,0.7,2.6c0.5,0.6,1.3,1,2.4,1c1.1,0,1.9-0.3,2.4-1c0.5-0.7,0.8-1.5,0.7-2.6l-0.6-7h7.2V16.4z M69.8,24
		h-8.4c0-0.1,0.1-0.3,0.1-0.4c0.2-0.8,0.3-1.6,0.3-2.3c0-0.1,0-0.3,0-0.4c0-0.1,0-0.2,0-0.3c0-0.2,0-0.4,0-0.6c0-0.4-0.1-0.7-0.2-1
		c-0.1-0.3-0.2-0.6-0.4-0.8c0,0,0-0.1-0.1-0.1c-0.1-0.2-0.3-0.3-0.4-0.5c-0.4-0.3-0.9-0.5-1.5-0.5h-2.6l0.6,6.8h-7.4V5.8H61
		c2.7,0,4.8,0.5,6.3,1.3c1.5,0.8,2.2,2.2,2.2,4.2c0,0.6-0.1,1.1-0.3,1.5c-0.3,0.7-0.8,1.3-1.5,1.8c-0.6,0.4-1.4,0.7-2.3,0.9
		c-0.3,0.1-0.6,0.1-0.9,0.2c-0.5,0.1-0.9,0.1-1.4,0.2c-0.6,0-1.2,0.1-1.9,0.1v0.4h1.9c0.2,0,0.4,0,0.5,0c0.9,0,1.7,0.2,2.5,0.5
		c0.3,0.1,0.5,0.2,0.8,0.3c0.6,0.3,1.1,0.7,1.5,1.2c0.2,0.2,0.3,0.4,0.5,0.6c0.1,0.2,0.2,0.3,0.3,0.5c0.3,0.6,0.5,1.2,0.6,1.9
		C69.9,22.2,69.9,23.1,69.8,24z"/>
	<path class="st1" d="M61.6,15c0.8-0.1,1.2-0.4,1.2-0.9c0-0.4-0.4-0.7-1.2-0.8c-0.1,0-0.2,0-0.4,0c-0.2,0-0.3,0-0.5,0h-4.1v1.8h4.1
		c0.2,0,0.3,0,0.5,0C61.3,15,61.4,15,61.6,15z"/>
</g>
</svg>
