<svg width="296" height="296" viewBox="0 0 296 296" fill="none" xmlns="http://www.w3.org/2000/svg">
<g clip-path="url(#clip0_85_49)">
<path fill-rule="evenodd" clip-rule="evenodd" d="M298 203.826L298 296.166L-0.166444 -2.00006L92.1742 -2.00007L298 203.826Z" fill="#12AF51"/>
<path d="M298 203.826L299.126 203.826L299.126 203.359L298.796 203.03L298 203.826ZM298 296.166L297.204 296.962L299.126 298.884L299.126 296.166L298 296.166ZM-0.166444 -2.00006L-0.166444 -3.12583L-2.8843 -3.12583L-0.962484 -1.20402L-0.166444 -2.00006ZM92.1742 -2.00007L92.9703 -2.79611L92.6406 -3.12584L92.1742 -3.12584L92.1742 -2.00007ZM296.874 203.826L296.874 296.166L299.126 296.166L299.126 203.826L296.874 203.826ZM298.796 295.37L0.629596 -2.7961L-0.962484 -1.20402L297.204 296.962L298.796 295.37ZM-0.166444 -0.874293L92.1742 -0.874295L92.1742 -3.12584L-0.166444 -3.12583L-0.166444 -0.874293ZM91.3782 -1.20403L297.204 204.622L298.796 203.03L92.9703 -2.79611L91.3782 -1.20403Z" fill="#000201"/>
<path d="M-151.618 -185.841L-157.541 -191.764L-150.854 -200.629L-151.16 -200.934L-160.024 -194.247L-165.966 -200.189L-155.344 -216.314L-148.81 -209.78L-156.872 -202.023L-156.605 -201.679L-147.625 -207.105L-144.702 -204.182L-150.128 -195.203L-149.784 -194.935L-142.028 -202.998L-135.494 -196.464L-151.618 -185.841Z" fill="#000201"/>
<path d="M-140.861 -190.33L-135.11 -196.08L-122.616 -183.586L-128.366 -177.835L-132.073 -182.153L-134.518 -179.631L-130.239 -175.963L-135.989 -170.212L-148.484 -182.707L-142.733 -188.457L-139.065 -184.178L-136.543 -186.623L-140.861 -190.33Z" fill="#000201"/>
<path d="M-124.692 -170.034L-116.381 -162.335L-122.246 -156.469L-135.066 -169.289L-121.692 -182.662L-116.362 -177.332L-124.692 -170.034Z" fill="#000201"/>
<path d="M-114.436 -148.659L-121.371 -155.594L-107.998 -168.968L-101.063 -162.033C-98.5791 -159.549 -97.2099 -157.021 -96.9552 -154.448C-96.6877 -151.863 -97.6239 -149.5 -99.7636 -147.36C-101.891 -145.233 -104.253 -144.297 -106.852 -144.552C-109.424 -144.806 -111.953 -146.176 -114.436 -148.659ZM-106.087 -155.938L-108.628 -158.479L-110.883 -156.225L-108.342 -153.684C-107.565 -152.907 -106.864 -152.398 -106.24 -152.156C-105.603 -151.926 -105.107 -151.99 -104.75 -152.347C-103.999 -153.098 -104.444 -154.295 -106.087 -155.938Z" fill="#000201"/>
<path d="M-95.3449 -129.568L-100.904 -135.127L-87.5309 -148.501L-74.6542 -135.624L-80.3666 -129.912L-87.9512 -138.337L-88.9829 -137.305L-82.5445 -131.249L-85.1237 -128.67L-91.0653 -135.223L-95.3449 -129.568Z" fill="#000201"/>
<path d="M-72.0411 -109.321C-74.7031 -109.563 -77.244 -110.894 -79.664 -113.314C-82.084 -115.734 -83.4213 -118.281 -83.676 -120.956C-83.9053 -123.631 -82.9119 -126.076 -80.6957 -128.292C-78.4795 -130.508 -76.0404 -131.495 -73.3785 -131.253C-70.691 -131.011 -68.1373 -129.681 -65.7174 -127.261C-63.2974 -124.841 -61.9728 -122.293 -61.7436 -119.619C-61.4888 -116.944 -62.4695 -114.498 -64.6857 -112.282C-66.9019 -110.066 -69.3537 -109.079 -72.0411 -109.321ZM-74.0663 -118.912C-73.111 -117.956 -72.2385 -117.326 -71.4489 -117.02C-70.6592 -116.715 -70.0478 -116.778 -69.6148 -117.211C-69.1817 -117.644 -69.1181 -118.256 -69.4237 -119.045C-69.7167 -119.848 -70.3408 -120.727 -71.296 -121.682C-72.2513 -122.637 -73.1301 -123.261 -73.9325 -123.554C-74.7095 -123.847 -75.3144 -123.777 -75.7475 -123.344C-76.1805 -122.911 -76.2442 -122.3 -75.9385 -121.51C-75.6329 -120.72 -75.0088 -119.854 -74.0663 -118.912Z" fill="#000201"/>
<path d="M-65.681 -99.904L-73.3038 -107.527L-60.9811 -108.96L-59.5865 -120.556L-52.1738 -113.144L-56.3577 -107.661L-56.0139 -107.317L-50.5689 -111.539L-43.118 -104.088L-54.7147 -102.693L-56.1667 -90.3897L-63.8087 -98.0317L-59.2235 -104.107L-59.5674 -104.451L-65.681 -99.904Z" fill="#000201"/>
<path d="M-43.8716 -77.5215C-44.9415 -78.5914 -46.1451 -80.0115 -47.4824 -81.7819C-48.7943 -83.5523 -49.6986 -85.017 -50.1953 -86.1761L-44.0817 -92.3279C-43.9544 -90.9013 -43.4258 -89.3539 -42.496 -87.6854C-41.5535 -86.0296 -40.3244 -84.4439 -38.8088 -82.9282C-37.3059 -81.4253 -36.4079 -80.8203 -36.115 -81.1132C-35.8985 -81.3298 -35.9749 -81.7246 -36.3442 -82.2978C-36.7009 -82.8836 -37.2231 -83.5332 -37.9109 -84.2465C-38.5859 -84.9724 -39.28 -85.8067 -39.9933 -86.7492C-40.7065 -87.6917 -41.3179 -88.6087 -41.8274 -89.5003C-42.3241 -90.4046 -42.5534 -91.3471 -42.5151 -92.3279C-42.4769 -93.3086 -42.0757 -94.181 -41.3115 -94.9452C-40.3818 -95.875 -39.2928 -96.3144 -38.0446 -96.2635C-36.7837 -96.2253 -35.51 -95.805 -34.2236 -95.0026C-32.9117 -94.2001 -31.5298 -93.0729 -30.0778 -91.621C-29.0207 -90.5638 -27.9189 -89.2328 -26.7727 -87.628C-25.6009 -86.0232 -24.7985 -84.6477 -24.3654 -83.5014L-30.5554 -78.7633C-30.8866 -79.986 -31.4597 -81.2597 -32.2749 -82.5843C-33.0646 -83.9089 -33.988 -85.0998 -35.0451 -86.1569C-36.6372 -87.749 -37.6115 -88.3668 -37.9682 -88.0101C-38.1974 -87.7809 -38.1274 -87.3797 -37.758 -86.8065C-37.3886 -86.2334 -36.8601 -85.5902 -36.1723 -84.8769C-35.459 -84.1637 -34.7331 -83.3485 -33.9943 -82.4315C-33.2556 -81.5144 -32.6251 -80.6165 -32.1029 -79.7377C-31.568 -78.8461 -31.3069 -77.9227 -31.3196 -76.9675C-31.3196 -76.0249 -31.689 -75.1843 -32.4277 -74.4456C-33.8033 -73.07 -35.4782 -72.6561 -37.4523 -73.2038C-39.401 -73.7515 -41.5408 -75.1907 -43.8716 -77.5215Z" fill="#000201"/>
<path d="M-35.5384 -69.5322L-31.4499 -74.5759L-26.177 -70.0671L-25.9095 -70.3728C-27.5525 -72.0158 -28.495 -73.6334 -28.737 -75.2255C-28.9536 -76.8176 -28.4887 -78.1867 -27.3424 -79.333C-25.814 -80.8614 -23.9098 -81.3136 -21.63 -80.6895C-19.3501 -80.0654 -17.0002 -78.5434 -14.5803 -76.1234C-12.1476 -73.6907 -10.6191 -71.3344 -9.99505 -69.0546C-9.35822 -66.762 -9.80401 -64.8515 -11.3324 -63.3231C-13.8033 -60.8522 -17.3887 -61.61 -22.0885 -65.5966L-26.8647 -69.6468L-27.1704 -69.3029C-26.4954 -68.7807 -24.8715 -67.3097 -22.2987 -64.8897C-19.7004 -62.4697 -17.6689 -60.8713 -16.2042 -60.0943L-20.4073 -54.8214C-21.7956 -55.6747 -23.1775 -56.8019 -24.553 -58.203C-25.9286 -59.5785 -27.094 -60.8968 -28.0492 -62.1577C-29.0045 -63.3931 -30.1572 -64.7114 -31.5073 -66.1124C-32.8573 -67.5134 -34.2011 -68.6534 -35.5384 -69.5322ZM-22.5661 -68.1375C-21.6109 -67.1823 -20.7639 -66.5263 -20.0252 -66.1697C-19.2864 -65.8131 -18.7388 -65.8131 -18.3821 -66.1697C-18.0255 -66.5263 -18.0255 -67.074 -18.3821 -67.8127C-18.7388 -68.5515 -19.3947 -69.3985 -20.35 -70.3537C-21.2925 -71.2962 -22.1394 -71.9394 -22.8909 -72.2833C-23.6296 -72.6399 -24.171 -72.6463 -24.5148 -72.3024C-24.8587 -71.9585 -24.8587 -71.4108 -24.5148 -70.6594C-24.1582 -69.9207 -23.5086 -69.08 -22.5661 -68.1375Z" fill="#000201"/>
<path d="M-5.86077 -42.6057C-8.14063 -42.8222 -10.4205 -44.0704 -12.7004 -46.3503C-14.9802 -48.6301 -16.2348 -50.9163 -16.464 -53.2089C-16.6806 -55.4888 -15.8527 -57.5649 -13.9804 -59.4372L-6.22376 -67.1938L-0.874369 -61.8444L-6.47213 -57.0873C-7.32549 -56.3613 -7.79675 -55.5716 -7.8859 -54.7182C-7.97506 -53.8649 -7.61843 -53.037 -6.81602 -52.2346C-6.01361 -51.4322 -5.18573 -51.0756 -4.33238 -51.1647C-3.45355 -51.2539 -2.65751 -51.7187 -1.94425 -52.5594L2.81289 -58.1571L8.12406 -52.8459L0.367437 -45.0893C-1.50485 -43.217 -3.58091 -42.3892 -5.86077 -42.6057Z" fill="#000201"/>
<path d="M3.75484 -35.8558L0.621633 -33.6014L-6.23705 -40.4601L12.6386 -48.3314L18.5421 -42.4279L10.6708 -23.5522L3.81215 -30.4109L6.06653 -33.5441L3.75484 -35.8558ZM10.5944 -40.0589L10.2505 -40.4028L5.66533 -37.0403L7.25104 -35.4546L10.5944 -40.0589Z" fill="#000201"/>
<path d="M17.9179 -16.3052L10.9828 -23.2403L24.3563 -36.6137L31.2914 -29.6786C33.775 -27.195 35.1442 -24.6668 35.3989 -22.094C35.6664 -19.5084 34.7303 -17.1458 32.5905 -15.006C30.4635 -12.879 28.1008 -11.9429 25.5026 -12.1976C22.9298 -12.4523 20.4015 -13.8215 17.9179 -16.3052ZM26.2668 -23.5841L23.7258 -26.1251L21.4714 -23.8707L24.0124 -21.3298C24.7893 -20.5528 25.4898 -20.0434 26.1139 -19.8014C26.7507 -19.5721 27.2475 -19.6358 27.6041 -19.9924C28.3556 -20.7439 27.9098 -21.9411 26.2668 -23.5841Z" fill="#000201"/>
<path fill-rule="evenodd" clip-rule="evenodd" d="M70.0741 21.2852C70.4157 21.546 70.7832 21.7636 71.1636 21.9366C71.7315 22.196 72.3324 22.3588 72.9421 22.4266C71.7661 23.4527 70.4603 24.2482 69.0826 24.8161L68.9356 24.8766C63.975 26.8539 58.1079 25.8782 54.0351 21.9553C50.1122 17.8825 49.1365 12.0154 51.1138 7.05486L51.1744 6.90785C51.7408 5.52864 52.5377 4.22437 53.5638 3.04836C53.6316 3.65798 53.7944 4.25896 54.0539 4.82678C54.2282 5.20582 54.4458 5.57332 54.7053 5.91632L54.7067 5.91776C55.0944 5.20437 55.5902 4.53278 56.194 3.92893C59.712 -0.0357828 65.6929 1.77146 65.6929 1.77146C64.0845 3.59888 63.312 5.42055 62.9532 6.57494C64.5039 6.76517 66.0071 7.45552 67.1975 8.64594C68.4355 9.88392 69.133 11.4606 69.2887 13.0776C70.433 12.7375 72.3209 11.9679 74.2175 10.299C74.2175 10.299 76.0248 16.2799 72.0601 19.7979C71.4562 20.4017 70.7861 20.896 70.0727 21.2837L70.0741 21.2852ZM57.5806 19.339C57.4005 18.9225 57.0733 18.5838 56.6612 18.3935C56.445 18.2927 56.2057 18.4742 56.2432 18.7106L56.3888 19.6027L57.2621 19.7641C57.4942 19.8059 57.6815 19.5724 57.5878 19.3548L57.5806 19.339ZM56.6906 9.68323C56.6906 9.68323 58.6823 11.7758 58.3407 14.6971C58.322 14.8686 58.2773 15.0372 58.1995 15.19C58.0338 15.5172 57.6576 15.9337 56.8851 15.6483C56.7122 15.5849 56.5551 15.5056 56.4081 15.4163C55.3676 14.785 54.8473 13.5672 55.0448 12.3667C55.1773 11.5654 55.5996 10.5926 56.6906 9.68323ZM61.3039 17.6593C64.2252 17.3177 66.3178 19.3094 66.3178 19.3094C65.4098 20.4019 64.4356 20.8227 63.6343 20.9553C62.4338 21.1527 61.216 20.6324 60.5847 19.5919C60.4954 19.4449 60.4161 19.2878 60.3527 19.1149C60.0673 18.3424 60.4838 17.9662 60.811 17.8005C60.9638 17.7227 61.1324 17.678 61.3039 17.6593Z" fill="#000201"/>
<path d="M92.9565 55.5624L86.0214 48.6273L99.3949 35.2538L106.33 42.1889C108.814 44.6726 110.183 47.2008 110.438 49.7736C110.705 52.3591 109.769 54.7218 107.629 56.8615C105.502 58.9885 103.139 59.9247 100.541 59.67C97.9683 59.4152 95.4401 58.046 92.9565 55.5624ZM101.305 48.2834L98.7644 45.7424L96.51 47.9968L99.0509 50.5378C99.8279 51.3147 100.528 51.8242 101.153 52.0662C101.789 52.2954 102.286 52.2318 102.643 51.8751C103.394 51.1237 102.948 49.9264 101.305 48.2834Z" fill="#000201"/>
<path d="M116.974 76.5234C114.312 76.2814 111.771 74.9504 109.351 72.5304C106.931 70.1105 105.594 67.5631 105.339 64.8884C105.11 62.2137 106.104 59.7683 108.32 57.5521C110.536 55.336 112.975 54.3489 115.637 54.5909C118.324 54.8329 120.878 56.1639 123.298 58.5838C125.718 61.0038 127.043 63.5511 127.272 66.2258C127.527 68.9005 126.546 71.3459 124.33 73.5621C122.113 75.7783 119.662 76.7654 116.974 76.5234ZM114.949 66.9327C115.904 67.8879 116.777 68.5184 117.567 68.8241C118.356 69.1298 118.968 69.0661 119.401 68.633C119.834 68.2 119.897 67.5886 119.592 66.799C119.299 65.9966 118.675 65.1177 117.719 64.1625C116.764 63.2072 115.885 62.5831 115.083 62.2902C114.306 61.9972 113.701 62.0673 113.268 62.5003C112.835 62.9334 112.771 63.5448 113.077 64.3344C113.383 65.1241 114.007 65.9902 114.949 66.9327Z" fill="#000201"/>
<path d="M133.787 96.393L129.297 91.9033L130.807 79.1221L130.444 78.9119L124.75 87.3563L118.522 81.1281L131.896 67.7547L136.5 72.3589L136.041 83.8219L136.443 84.0321L141.181 77.0397L147.161 83.0195L133.787 96.393Z" fill="#000201"/>
<path d="M155.92 102.401L147.991 94.0903L147.17 94.9118L153.436 100.796L151.678 102.554L145.794 96.2873L144.896 97.1853L153.894 105.343L148.316 110.922L134.866 97.4718L148.239 84.0983L161.231 97.0897L155.92 102.401Z" fill="#000201"/>
<path fill-rule="evenodd" clip-rule="evenodd" d="M191.302 142.513C191.643 142.774 192.011 142.991 192.391 143.164C192.959 143.424 193.56 143.587 194.17 143.654C192.994 144.68 191.688 145.476 190.31 146.044L190.163 146.104C185.203 148.082 179.336 147.106 175.263 143.183C171.34 139.11 170.364 133.243 172.342 128.283L172.402 128.136C172.968 126.756 173.765 125.452 174.792 124.276C174.859 124.886 175.022 125.487 175.282 126.055C175.456 126.434 175.674 126.801 175.933 127.144L175.934 127.146C176.322 126.432 176.818 125.761 177.422 125.157C180.94 121.192 186.921 122.999 186.921 122.999C185.312 124.827 184.54 126.648 184.181 127.803C185.732 127.993 187.235 128.683 188.425 129.874C189.663 131.112 190.361 132.688 190.516 134.305C191.661 133.965 193.549 133.196 195.445 131.527C195.445 131.527 197.253 137.508 193.288 141.026C192.684 141.629 192.014 142.124 191.3 142.511L191.302 142.513ZM178.808 140.567C178.628 140.15 178.301 139.812 177.889 139.621C177.673 139.52 177.434 139.702 177.471 139.938L177.617 140.83L178.49 140.992C178.722 141.034 178.909 140.8 178.816 140.583L178.808 140.567ZM177.918 130.911C177.918 130.911 179.91 133.004 179.569 135.925C179.55 136.096 179.505 136.265 179.427 136.418C179.262 136.745 178.885 137.161 178.113 136.876C177.94 136.813 177.783 136.733 177.636 136.644C176.595 136.013 176.075 134.795 176.273 133.594C176.405 132.793 176.827 131.82 177.918 130.911ZM182.532 138.887C185.453 138.545 187.546 140.537 187.546 140.537C186.638 141.63 185.663 142.05 184.862 142.183C183.662 142.38 182.444 141.86 181.812 140.82C181.723 140.673 181.644 140.516 181.58 140.343C181.295 139.57 181.712 139.194 182.039 139.028C182.192 138.95 182.36 138.906 182.532 138.887Z" fill="#000201"/>
<path d="M214.184 176.79L207.249 169.855L220.623 156.482L227.558 163.417C230.041 165.9 231.411 168.429 231.665 171.001C231.933 173.587 230.997 175.95 228.857 178.089C226.73 180.216 224.367 181.152 221.769 180.898C219.196 180.643 216.668 179.274 214.184 176.79ZM222.533 169.511L219.992 166.97L217.738 169.225L220.279 171.766C221.056 172.542 221.756 173.052 222.38 173.294C223.017 173.523 223.514 173.46 223.87 173.103C224.622 172.351 224.176 171.154 222.533 169.511Z" fill="#000201"/>
<path d="M238.202 197.751C235.54 197.509 232.999 196.178 230.579 193.758C228.159 191.338 226.822 188.791 226.567 186.116C226.338 183.442 227.331 180.996 229.547 178.78C231.764 176.564 234.203 175.577 236.865 175.819C239.552 176.061 242.106 177.392 244.526 179.812C246.946 182.232 248.27 184.779 248.5 187.454C248.754 190.128 247.774 192.574 245.557 194.79C243.341 197.006 240.889 197.993 238.202 197.751ZM236.177 188.16C237.132 189.116 238.005 189.746 238.794 190.052C239.584 190.358 240.195 190.294 240.628 189.861C241.061 189.428 241.125 188.816 240.819 188.027C240.526 187.224 239.902 186.345 238.947 185.39C237.992 184.435 237.113 183.811 236.311 183.518C235.534 183.225 234.929 183.295 234.496 183.728C234.063 184.161 233.999 184.772 234.305 185.562C234.61 186.352 235.234 187.218 236.177 188.16Z" fill="#000201"/>
<path d="M255.015 217.621L250.525 213.131L252.034 200.35L251.671 200.14L245.978 208.584L239.75 202.356L253.123 188.982L257.728 193.587L257.269 205.05L257.67 205.26L262.408 198.267L268.388 204.247L255.015 217.621Z" fill="#000201"/>
<path d="M277.147 223.629L269.219 215.318L268.397 216.14L274.664 222.024L272.906 223.782L267.022 217.515L266.124 218.413L275.122 226.571L269.544 232.15L256.094 218.7L269.467 205.326L282.459 218.318L277.147 223.629Z" fill="#000201"/>
<path fill-rule="evenodd" clip-rule="evenodd" d="M312.53 263.741C312.871 264.002 313.239 264.219 313.619 264.392C314.187 264.652 314.788 264.814 315.398 264.882C314.222 265.908 312.916 266.704 311.538 267.272L311.391 267.332C306.431 269.309 300.563 268.334 296.491 264.411C292.568 260.338 291.592 254.471 293.569 249.51L293.63 249.363C294.196 247.984 294.993 246.68 296.019 245.504C296.087 246.114 296.25 246.714 296.509 247.282C296.684 247.661 296.901 248.029 297.161 248.372L297.162 248.373C297.55 247.66 298.046 246.988 298.65 246.384C302.167 242.42 308.148 244.227 308.148 244.227C306.54 246.054 305.768 247.876 305.409 249.03C306.959 249.221 308.463 249.911 309.653 251.101C310.891 252.339 311.589 253.916 311.744 255.533C312.888 255.193 314.776 254.423 316.673 252.755C316.673 252.755 318.48 258.735 314.516 262.253C313.912 262.857 313.242 263.352 312.528 263.739L312.53 263.741ZM300.036 261.794C299.856 261.378 299.529 261.039 299.117 260.849C298.901 260.748 298.661 260.93 298.699 261.166L298.844 262.058L299.718 262.22C299.95 262.261 300.137 262.028 300.043 261.81L300.036 261.794ZM299.146 252.139C299.146 252.139 301.138 254.231 300.796 257.153C300.778 257.324 300.733 257.493 300.655 257.646C300.489 257.973 300.113 258.389 299.341 258.104C299.168 258.04 299.011 257.961 298.864 257.872C297.823 257.241 297.303 256.023 297.5 254.822C297.633 254.021 298.055 253.048 299.146 252.139ZM303.759 260.115C306.681 259.773 308.773 261.765 308.773 261.765C307.865 262.857 306.891 263.278 306.09 263.411C304.889 263.608 303.671 263.088 303.04 262.047C302.951 261.9 302.872 261.743 302.808 261.57C302.523 260.798 302.939 260.422 303.267 260.256C303.419 260.178 303.588 260.134 303.759 260.115Z" fill="#000201"/>
<path d="M335.412 298.018L328.477 291.083L341.85 277.709L348.785 284.644C351.269 287.128 352.638 289.656 352.893 292.229C353.161 294.815 352.224 297.177 350.085 299.317C347.958 301.444 345.595 302.38 342.997 302.126C340.424 301.871 337.896 300.502 335.412 298.018ZM343.761 290.739L341.22 288.198L338.966 290.452L341.507 292.993C342.283 293.77 342.984 294.28 343.608 294.522C344.245 294.751 344.742 294.687 345.098 294.331C345.85 293.579 345.404 292.382 343.761 290.739Z" fill="#000201"/>
<path d="M359.43 318.979C356.768 318.737 354.227 317.406 351.807 314.986C349.387 312.566 348.05 310.019 347.795 307.344C347.566 304.669 348.559 302.224 350.775 300.008C352.991 297.791 355.43 296.804 358.092 297.046C360.78 297.288 363.334 298.619 365.754 301.039C368.173 303.459 369.498 306.007 369.727 308.681C369.982 311.356 369.001 313.801 366.785 316.018C364.569 318.234 362.117 319.221 359.43 318.979ZM357.405 309.388C358.36 310.343 359.232 310.974 360.022 311.28C360.812 311.585 361.423 311.522 361.856 311.089C362.289 310.655 362.353 310.044 362.047 309.254C361.754 308.452 361.13 307.573 360.175 306.618C359.22 305.663 358.341 305.039 357.538 304.746C356.761 304.453 356.156 304.523 355.723 304.956C355.29 305.389 355.227 306 355.532 306.79C355.838 307.58 356.462 308.446 357.405 309.388Z" fill="#000201"/>
<path d="M376.243 338.849L371.753 334.359L373.262 321.578L372.899 321.367L367.206 329.812L360.978 323.584L374.351 310.21L378.956 314.814L378.497 326.277L378.898 326.488L383.636 319.495L389.616 325.475L376.243 338.849Z" fill="#000201"/>
<path d="M398.375 344.856L390.447 336.546L389.625 337.367L395.891 343.252L394.134 345.009L388.249 338.743L387.352 339.641L396.35 347.799L390.771 353.377L377.321 339.927L390.695 326.554L403.686 339.545L398.375 344.856Z" fill="#000201"/>
</g>
<defs>
<clipPath id="clip0_85_49">
<rect width="296" height="296" fill="white"/>
</clipPath>
</defs>
</svg>
