<svg width="400" height="400" viewBox="0 0 400 400" fill="none" xmlns="http://www.w3.org/2000/svg">
<path d="M400 200C400 89.543 310.457 0 200 0V0C89.543 0 0 89.543 0 200V200C0 310.457 89.543 400 200 400V400C310.457 400 400 310.457 400 200V200Z" fill="url(#paint0_linear_95_1318)"/>
<g clip-path="url(#clip0_95_1318)">
<path d="M359.155 129.095L106.399 50.7388C102.604 49.5622 98.5732 51.6852 97.3966 55.4806C93.6076 54.3059 89.5839 56.4253 88.4093 60.2142L29.9153 248.9C27.2987 257.34 32.0198 266.303 40.4601 268.92L291.666 346.796C300.106 349.412 309.07 344.691 311.686 336.251L369.7 149.115C372.316 140.675 367.595 131.712 359.155 129.095Z" fill="#F9F0DC" stroke="#201B19" stroke-width="2"/>
<path d="M357.77 136.217L97.4185 55.506C98.598 51.7012 102.639 49.573 106.443 50.7525L359.153 129.094C367.594 131.711 372.315 140.674 369.698 149.115L311.743 336.062C311.008 338.434 309.731 340.601 308.013 342.394L305.985 344.511L300.863 346.798L363.042 146.227C364.35 142.007 361.99 137.525 357.77 136.217Z" fill="#D8BDA7"/>
<path d="M359.155 129.095L106.399 50.7388C102.604 49.5622 98.5732 51.6852 97.3966 55.4806C93.6076 54.3059 89.5839 56.4253 88.4093 60.2142L29.9153 248.9C27.2987 257.34 32.0198 266.303 40.4601 268.92L291.666 346.796C300.106 349.412 309.07 344.691 311.686 336.251L369.7 149.115C372.316 140.675 367.595 131.712 359.155 129.095Z" stroke="#201B19" stroke-width="2"/>
<path d="M97.4185 55.5062L357.769 136.217C361.99 137.525 364.35 142.007 363.042 146.227L303.329 338.844" stroke="#201B19" stroke-width="2" stroke-linecap="round"/>
<path d="M93.9561 62.5856L356.624 144.015" stroke="#201B19" stroke-width="2" stroke-linecap="round"/>
<path d="M69.6465 154.51L129.821 173.164" stroke="#201B19" stroke-width="2" stroke-linecap="round"/>
<path d="M67.2778 162.151L122.677 179.325" stroke="#201B19" stroke-width="2" stroke-linecap="round"/>
<path d="M64.9087 169.792L124.128 188.151" stroke="#201B19" stroke-width="2" stroke-linecap="round"/>
<path d="M62.54 177.433L114.118 193.423" stroke="#201B19" stroke-width="2" stroke-linecap="round"/>
<path d="M60.1709 185.075L118.435 203.137" stroke="#201B19" stroke-width="2" stroke-linecap="round"/>
<path d="M57.8022 192.716L94.0981 203.968" stroke="#201B19" stroke-width="2" stroke-linecap="round"/>
<path d="M53.0645 207.998L113.239 226.653" stroke="#201B19" stroke-width="2" stroke-linecap="round"/>
<path d="M50.6958 215.64L106.095 232.814" stroke="#201B19" stroke-width="2" stroke-linecap="round"/>
<path d="M48.3267 223.281L107.546 241.639" stroke="#201B19" stroke-width="2" stroke-linecap="round"/>
<path d="M45.958 230.922L97.5364 246.912" stroke="#201B19" stroke-width="2" stroke-linecap="round"/>
<path d="M43.5889 238.563L101.853 256.626" stroke="#201B19" stroke-width="2" stroke-linecap="round"/>
<path d="M41.2202 246.205L96.6192 263.379" stroke="#201B19" stroke-width="2" stroke-linecap="round"/>
<path d="M38.8516 253.846L70.3717 263.617" stroke="#201B19" stroke-width="2" stroke-linecap="round"/>
<path d="M262.588 214.323L322.763 232.978" stroke="#201B19" stroke-width="2" stroke-linecap="round"/>
<path d="M260.219 221.964L315.618 239.138" stroke="#201B19" stroke-width="2" stroke-linecap="round"/>
<path d="M257.85 229.605L317.07 247.964" stroke="#201B19" stroke-width="2" stroke-linecap="round"/>
<path d="M255.481 237.247L307.06 253.236" stroke="#201B19" stroke-width="2" stroke-linecap="round"/>
<path d="M253.112 244.888L311.377 262.95" stroke="#201B19" stroke-width="2" stroke-linecap="round"/>
<path d="M250.744 252.529L306.143 269.703" stroke="#201B19" stroke-width="2" stroke-linecap="round"/>
<path d="M248.375 260.17L299.953 276.16" stroke="#201B19" stroke-width="2" stroke-linecap="round"/>
<path d="M246.006 267.812L282.302 279.064" stroke="#201B19" stroke-width="2" stroke-linecap="round"/>
<path d="M241.268 283.094L301.443 301.749" stroke="#201B19" stroke-width="2" stroke-linecap="round"/>
<path d="M238.899 290.735L294.298 307.909" stroke="#201B19" stroke-width="2" stroke-linecap="round"/>
<path d="M236.53 298.377L282.378 312.59" stroke="#201B19" stroke-width="2" stroke-linecap="round"/>
<path d="M234.162 306.018L265.682 315.789" stroke="#201B19" stroke-width="2" stroke-linecap="round"/>
<path d="M144.495 175.356L251.904 208.653C253.487 209.144 254.372 210.825 253.881 212.407L219.268 324.06L106.128 288.985L140.741 177.333C141.232 175.75 142.912 174.865 144.495 175.356Z" fill="#E6D0BE" stroke="#201B19" stroke-width="2"/>
<path d="M191.996 208.776C192.836 207.824 194.406 208.311 194.559 209.571L196.539 225.805C196.645 226.668 197.471 227.251 198.32 227.062L214.281 223.495C215.519 223.218 216.503 224.535 215.887 225.644L207.947 239.942C207.525 240.702 207.851 241.66 208.648 242.005L223.658 248.501C224.822 249.005 224.844 250.649 223.694 251.184L208.866 258.084C208.078 258.451 207.778 259.417 208.221 260.166L216.545 274.243C217.191 275.335 216.243 276.678 214.998 276.435L198.946 273.302C198.093 273.135 197.282 273.741 197.201 274.607L195.661 290.888C195.541 292.152 193.985 292.681 193.12 291.752L181.976 279.782C181.384 279.146 180.372 279.16 179.797 279.812L168.981 292.079C168.142 293.031 166.572 292.544 166.418 291.285L164.438 275.05C164.333 274.187 163.506 273.604 162.657 273.793L146.697 277.36C145.458 277.637 144.474 276.32 145.09 275.211L153.03 260.913C153.452 260.153 153.127 259.195 152.329 258.85L137.32 252.354C136.155 251.85 136.133 250.207 137.283 249.671L152.111 242.771C152.899 242.404 153.199 241.438 152.756 240.689L144.432 226.612C143.786 225.52 144.734 224.177 145.979 224.42L162.031 227.554C162.884 227.72 163.695 227.114 163.777 226.249L165.316 209.967C165.436 208.703 166.992 208.174 167.857 209.103L179.001 221.073C179.593 221.709 180.606 221.695 181.18 221.043L191.996 208.776Z" fill="#201B19"/>
<path fill-rule="evenodd" clip-rule="evenodd" d="M194.108 253.823C194.664 253.917 195.223 253.945 195.769 253.913C196.586 253.866 197.383 253.687 198.131 253.393C197.393 255.304 196.364 257.027 195.113 258.53L194.979 258.69C190.432 264.023 183.032 266.483 175.915 264.422C168.88 262.096 164.169 255.881 163.435 248.911L163.416 248.704C163.231 246.756 163.36 244.753 163.833 242.76C164.283 243.426 164.839 244.024 165.486 244.524C165.92 244.858 166.396 245.151 166.906 245.391L166.909 245.391C166.923 244.326 167.089 243.242 167.421 242.172C169.082 235.415 177.121 233.851 177.121 233.851C176.371 236.957 176.586 239.545 176.874 241.105C178.789 240.376 180.954 240.257 183.061 240.911C185.252 241.59 187.023 242.993 188.19 244.775C189.31 243.68 191.03 241.63 192.211 238.531C192.211 238.531 197.956 244.369 195.504 250.881C195.172 251.951 194.697 252.936 194.106 253.823L194.108 253.823ZM178.435 259.214C177.972 258.841 177.386 258.648 176.792 258.679C176.479 258.695 176.313 259.052 176.5 259.303L177.213 260.25L178.325 259.903C178.619 259.809 178.694 259.423 178.453 259.228L178.435 259.214ZM171.503 248.547C171.503 248.547 175.09 249.757 176.476 253.358C176.559 253.569 176.61 253.792 176.613 254.017C176.62 254.498 176.438 255.212 175.368 255.354C175.129 255.386 174.898 255.39 174.673 255.376C173.081 255.281 171.735 254.185 171.232 252.671C170.896 251.659 170.793 250.271 171.503 248.547ZM181.718 254.983C184.898 252.798 188.54 253.829 188.54 253.829C188.153 255.653 187.28 256.738 186.432 257.383C185.16 258.347 183.43 258.489 182.063 257.667C181.87 257.551 181.682 257.417 181.503 257.255C180.701 256.533 180.954 255.842 181.232 255.449C181.362 255.265 181.53 255.11 181.718 254.983Z" fill="#F9F0DC"/>
<path d="M69.3794 141.863L332.047 223.292" stroke="#201B19" stroke-width="2" stroke-linecap="round"/>
<path d="M127.308 110.071C125.596 109.54 123.551 108.716 121.172 107.599C118.821 106.468 117.065 105.432 115.904 104.492L118.915 94.671C119.836 96.0955 121.244 97.4254 123.139 98.6606C125.041 99.8755 127.204 100.859 129.629 101.611C132.033 102.356 133.308 102.494 133.454 102.026C133.561 101.679 133.263 101.308 132.56 100.911C131.862 100.494 130.957 100.101 129.842 99.7335C128.734 99.3453 127.546 98.8543 126.279 98.2603C125.011 97.6663 123.864 97.0427 122.838 96.3897C121.819 95.7162 121.058 94.8551 120.557 93.8063C120.056 92.7575 119.995 91.6218 120.374 90.3992C120.835 88.9117 121.733 87.8502 123.069 87.2147C124.412 86.5587 125.979 86.2962 127.769 86.427C129.587 86.5438 131.657 86.9622 133.98 87.6824C135.672 88.2067 137.561 88.9933 139.648 90.0423C141.761 91.0773 143.361 92.0759 144.448 93.0381L140.576 101.42C139.555 100.321 138.251 99.3027 136.666 98.3646C135.107 97.4124 133.482 96.6741 131.791 96.1498C129.244 95.3602 127.882 95.2506 127.705 95.8212C127.591 96.188 127.886 96.5697 128.589 96.9665C129.293 97.3632 130.202 97.7455 131.316 98.1133C132.457 98.467 133.668 98.9205 134.948 99.4738C136.228 100.027 137.385 100.62 138.417 101.253C139.47 101.892 140.253 102.715 140.767 103.723C141.287 104.711 141.364 105.796 140.998 106.978C140.315 109.178 138.789 110.536 136.418 111.052C134.073 111.554 131.037 111.227 127.308 110.071ZM165.336 107.219L152.441 102.886L152.033 104.201L161.848 106.908L160.976 109.72L151.351 106.401L150.906 107.838L164.838 111.42L162.071 120.345L140.553 113.674L147.186 92.2788L167.97 98.7221L165.336 107.219ZM177.307 116.257L174.281 115.319L172.522 123.585L163.872 120.903L170.505 99.5079L183.617 103.573C186.784 104.599 189.081 105.87 190.51 107.385C191.959 108.906 192.33 110.808 191.622 113.09C190.479 116.778 186.647 117.611 180.127 115.59L179.984 116.049L182.246 116.75C184.997 117.603 186.826 119.052 187.733 121.097C188.646 123.123 188.497 125.477 187.285 128.162L177.413 125.101C178.193 123.735 178.767 122.461 179.133 121.279C179.527 120.083 179.575 119.026 179.279 118.108C178.983 117.19 178.325 116.573 177.307 116.257ZM180.522 112.262L175.662 110.755L175.018 112.834L179.877 114.34C181.487 114.839 182.403 114.732 182.624 114.019C182.832 113.347 182.132 112.761 180.522 112.262ZM192.488 116.407L195.341 107.207L215.33 113.404L212.478 122.604L206.211 120.125L205.04 124.118L211.549 125.599L208.697 134.799L188.708 128.603L191.56 119.403L197.766 121.862L199.059 117.908L192.488 116.407ZM235.263 128.897L222.368 124.564L221.96 125.879L231.775 128.586L230.903 131.398L221.278 128.079L220.833 129.516L234.765 133.098L231.998 142.023L210.48 135.352L217.113 113.957L237.897 120.4L235.263 128.897ZM245.425 146.688C243.713 146.157 241.668 145.333 239.289 144.216C236.937 143.085 235.181 142.049 234.021 141.109L237.032 131.288C237.953 132.713 239.361 134.043 241.256 135.278C243.158 136.493 245.321 137.476 247.746 138.228C250.15 138.973 251.425 139.111 251.57 138.643C251.678 138.296 251.38 137.925 250.676 137.528C249.979 137.111 249.074 136.718 247.959 136.351C246.851 135.963 245.663 135.471 244.396 134.877C243.128 134.283 241.981 133.66 240.955 133.007C239.936 132.333 239.175 131.472 238.674 130.423C238.173 129.375 238.111 128.239 238.491 127.016C238.952 125.529 239.85 124.467 241.186 123.832C242.529 123.176 244.095 122.913 245.886 123.044C247.704 123.161 249.774 123.579 252.097 124.3C253.788 124.824 255.678 125.61 257.765 126.66C259.878 127.694 261.478 128.693 262.565 129.655L258.693 138.037C257.671 136.938 256.368 135.92 254.783 134.982C253.224 134.03 251.599 133.291 249.908 132.767C247.361 131.977 245.999 131.868 245.822 132.438C245.708 132.805 246.003 133.187 246.706 133.584C247.41 133.98 248.319 134.363 249.433 134.73C250.574 135.084 251.785 135.538 253.065 136.091C254.345 136.644 255.502 137.237 256.534 137.87C257.587 138.509 258.37 139.332 258.884 140.34C259.404 141.328 259.481 142.413 259.114 143.595C258.432 145.795 256.906 147.154 254.535 147.669C252.19 148.171 249.154 147.844 245.425 146.688ZM274.714 155.265L268.387 153.304L270.917 148.493L267.891 147.555L269.246 144.156L272.609 145.198L274.526 141.605L271.898 140.79L273.213 137.412L276.209 138.341L278.748 133.5L285.075 135.461L282.566 140.312L285.867 141.335L288.376 136.484L294.703 138.446L292.194 143.296L295.22 144.234L293.874 147.603L290.481 146.551L288.563 150.144L291.07 150.921L289.714 154.321L286.872 153.439L284.342 158.25L278.015 156.289L280.545 151.478L277.244 150.455L274.714 155.265ZM280.853 143.566L278.935 147.16L282.236 148.183L284.154 144.59L280.853 143.566ZM315.043 167.767L291.63 160.509L293.98 152.929L302.968 152.901C306.125 152.875 307.82 152.485 308.054 151.731C308.105 151.568 308.03 151.377 307.83 151.159C307.65 150.947 307.29 150.701 306.751 150.422C306.233 150.15 305.576 149.891 304.781 149.644C302.112 148.817 299.231 148.203 296.139 147.803L298.603 139.856C301.446 139.978 305.038 140.712 309.378 142.057C312.679 143.08 315.208 144.434 316.964 146.117C318.72 147.801 319.317 149.549 318.755 151.363C317.902 154.114 315.444 155.63 311.381 155.912L306.631 156.214L306.545 156.49L317.488 159.882L315.043 167.767ZM98.6323 137.824C94.2921 136.479 91.1499 134.511 89.2058 131.92C87.2821 129.336 86.9077 126.149 88.0826 122.359C89.2639 118.548 91.3888 116.125 94.4573 115.088C97.5525 114.038 101.28 114.188 105.641 115.54C108.698 116.488 111.447 117.742 113.889 119.303L110.325 128.852C109.608 128.139 108.564 127.402 107.192 126.641C105.846 125.867 104.47 125.261 103.064 124.826C100.904 124.156 99.2298 123.793 98.041 123.737C96.8726 123.688 96.1778 124.02 95.9567 124.733C95.7167 125.507 96.1434 126.22 97.2368 126.872C98.3569 127.509 100.109 128.198 102.493 128.937C104.001 129.404 105.539 129.702 107.107 129.831C108.682 129.94 110.024 129.898 111.133 129.706L108.093 139.618C105.23 139.49 102.076 138.892 98.6323 137.824ZM132.324 145.086C129.401 146.302 126.004 146.31 122.132 145.109C118.261 143.909 115.453 141.978 113.71 139.316C111.994 136.639 111.685 133.529 112.784 129.983C113.883 126.437 115.894 124.057 118.817 122.841C121.767 121.612 125.178 121.597 129.049 122.797C132.921 123.997 135.715 125.935 137.431 128.612C139.175 131.274 139.497 134.378 138.397 137.923C137.298 141.469 135.274 143.857 132.324 145.086ZM124.909 136.154C126.437 136.628 127.699 136.807 128.695 136.691C129.691 136.576 130.297 136.172 130.512 135.479C130.726 134.786 130.456 134.11 129.7 133.451C128.95 132.772 127.811 132.196 126.282 131.722C124.754 131.248 123.489 131.079 122.486 131.215C121.51 131.337 120.915 131.744 120.7 132.437C120.486 133.13 120.756 133.806 121.512 134.465C122.269 135.123 123.401 135.686 124.909 136.154ZM147.253 142.645L160.211 146.126L157.303 155.51L136.793 149.152L143.426 127.756L151.954 130.4L147.253 142.645ZM169.468 149.532L182.426 153.013L179.517 162.397L159.008 156.039L165.641 134.643L174.168 137.287L169.468 149.532ZM206.005 156.47L193.11 152.137L192.702 153.452L202.517 156.159L201.645 158.971L192.02 155.652L191.575 157.089L205.507 160.671L202.74 169.596L181.222 162.925L187.855 141.53L208.639 147.973L206.005 156.47ZM218.003 174.83C213.663 173.485 210.52 171.517 208.576 168.926C206.653 166.342 206.278 163.155 207.453 159.365C208.634 155.554 210.759 153.131 213.828 152.094C216.923 151.044 220.651 151.194 225.012 152.546C228.068 153.494 230.817 154.748 233.259 156.309L229.696 165.858C228.979 165.144 227.934 164.407 226.562 163.647C225.216 162.872 223.841 162.267 222.435 161.831C220.275 161.162 218.6 160.799 217.412 160.743C216.243 160.694 215.548 161.026 215.327 161.739C215.087 162.513 215.514 163.226 216.607 163.878C217.727 164.515 219.48 165.204 221.864 165.943C223.371 166.41 224.909 166.708 226.478 166.837C228.052 166.945 229.394 166.904 230.503 166.711L227.464 176.624C224.6 176.496 221.446 175.898 218.003 174.83ZM256.863 162.923L254.015 172.325L246.407 169.632L244.178 182.442L235.07 179.618L240.478 167.793L232.711 165.721L235.681 156.356L256.863 162.923ZM255.551 172.6L258.403 163.4L278.393 169.597L275.541 178.797L269.274 176.318L268.103 180.311L274.612 181.793L271.76 190.993L251.77 184.796L254.623 175.596L260.828 178.056L262.121 174.101L255.551 172.6ZM296.094 195.856C293.171 197.072 289.774 197.08 285.902 195.879C282.03 194.679 279.223 192.748 277.48 190.086C275.763 187.409 275.455 184.298 276.554 180.753C277.653 177.207 279.664 174.827 282.587 173.611C285.537 172.381 288.947 172.367 292.819 173.567C296.691 174.767 299.485 176.705 301.201 179.382C302.944 182.044 303.266 185.148 302.167 188.693C301.068 192.239 299.044 194.626 296.094 195.856ZM288.678 186.924C290.206 187.398 291.469 187.577 292.465 187.461C293.461 187.346 294.067 186.941 294.281 186.249C294.496 185.556 294.226 184.88 293.469 184.221C292.719 183.542 291.58 182.966 290.052 182.492C288.524 182.018 287.259 181.849 286.256 181.985C285.28 182.107 284.685 182.514 284.47 183.207C284.255 183.9 284.526 184.576 285.282 185.234C286.038 185.893 287.17 186.456 288.678 186.924ZM324.985 207.493L317.802 205.266L312.329 191.039L311.833 191.02L310.527 203.011L300.563 199.922L307.196 178.526L314.562 180.81L320.408 193.075L320.945 193.074L322.051 183.131L331.617 186.097L324.985 207.493Z" fill="#201B19"/>
</g>
<path d="M331 85H66.3774C62.4038 85 59.1826 88.2212 59.1826 92.1948C55.2158 92.1948 52 95.4106 52 99.3774V296.922C52 305.758 59.1634 312.922 68 312.922H331C339.837 312.922 347 305.758 347 296.922V101C347 92.1634 339.837 85 331 85Z" fill="#F9F0DC" stroke="#201B19" stroke-width="2"/>
<path d="M331.786 92.2127H59.2109C59.2109 88.2292 62.4402 85 66.4236 85H330.998C339.835 85 346.998 92.1634 346.998 101V296.725C346.998 299.208 346.421 301.656 345.311 303.877L344 306.5L339.786 310.2V100.213C339.786 95.7944 336.204 92.2127 331.786 92.2127Z" fill="#D8BDA7"/>
<path d="M331 85H66.3774C62.4038 85 59.1826 88.2212 59.1826 92.1948C55.2158 92.1948 52 95.4106 52 99.3774V296.922C52 305.758 59.1634 312.922 68 312.922H331C339.837 312.922 347 305.758 347 296.922V101C347 92.1634 339.837 85 331 85Z" stroke="#201B19" stroke-width="2"/>
<path d="M59.2109 92.2129H331.786C336.204 92.2129 339.786 95.7946 339.786 100.213V301.873" stroke="#201B19" stroke-width="2" stroke-linecap="round"/>
<path d="M58 100H333" stroke="#201B19" stroke-width="2" stroke-linecap="round"/>
<path d="M62 195H125" stroke="#201B19" stroke-width="2" stroke-linecap="round"/>
<path d="M62 203H120" stroke="#201B19" stroke-width="2" stroke-linecap="round"/>
<path d="M62 211H124" stroke="#201B19" stroke-width="2" stroke-linecap="round"/>
<path d="M62 219H116" stroke="#201B19" stroke-width="2" stroke-linecap="round"/>
<path d="M62 227H123" stroke="#201B19" stroke-width="2" stroke-linecap="round"/>
<path d="M62 235H100" stroke="#201B19" stroke-width="2" stroke-linecap="round"/>
<path d="M62 251H125" stroke="#201B19" stroke-width="2" stroke-linecap="round"/>
<path d="M62 259H120" stroke="#201B19" stroke-width="2" stroke-linecap="round"/>
<path d="M62 267H124" stroke="#201B19" stroke-width="2" stroke-linecap="round"/>
<path d="M62 275H116" stroke="#201B19" stroke-width="2" stroke-linecap="round"/>
<path d="M62 283H123" stroke="#201B19" stroke-width="2" stroke-linecap="round"/>
<path d="M62 291H120" stroke="#201B19" stroke-width="2" stroke-linecap="round"/>
<path d="M62 299H95" stroke="#201B19" stroke-width="2" stroke-linecap="round"/>
<path d="M264 195H327" stroke="#201B19" stroke-width="2" stroke-linecap="round"/>
<path d="M264 203H322" stroke="#201B19" stroke-width="2" stroke-linecap="round"/>
<path d="M264 211H326" stroke="#201B19" stroke-width="2" stroke-linecap="round"/>
<path d="M264 219H318" stroke="#201B19" stroke-width="2" stroke-linecap="round"/>
<path d="M264 227H325" stroke="#201B19" stroke-width="2" stroke-linecap="round"/>
<path d="M264 235H322" stroke="#201B19" stroke-width="2" stroke-linecap="round"/>
<path d="M264 243H318" stroke="#201B19" stroke-width="2" stroke-linecap="round"/>
<path d="M264 251H302" stroke="#201B19" stroke-width="2" stroke-linecap="round"/>
<path d="M264 267H327" stroke="#201B19" stroke-width="2" stroke-linecap="round"/>
<path d="M264 275H322" stroke="#201B19" stroke-width="2" stroke-linecap="round"/>
<path d="M264 283H312" stroke="#201B19" stroke-width="2" stroke-linecap="round"/>
<path d="M264 291H297" stroke="#201B19" stroke-width="2" stroke-linecap="round"/>
<path d="M139.664 192.748H252.116C253.773 192.748 255.116 194.091 255.116 195.748V312.643H136.664V195.748C136.664 194.091 138.007 192.748 139.664 192.748Z" fill="#E6D0BE" stroke="#201B19" stroke-width="2"/>
<path d="M194.931 210.604C195.451 209.447 197.095 209.447 197.615 210.604L204.313 225.524C204.669 226.317 205.632 226.63 206.386 226.198L220.575 218.065C221.676 217.433 223.005 218.4 222.745 219.642L219.395 235.649C219.217 236.5 219.812 237.319 220.676 237.413L236.936 239.173C238.197 239.309 238.705 240.873 237.765 241.725L225.645 252.706C225.001 253.289 225.001 254.302 225.645 254.885L237.765 265.866C238.705 266.718 238.197 268.282 236.936 268.418L220.676 270.178C219.812 270.272 219.217 271.091 219.395 271.942L222.745 287.949C223.005 289.191 221.676 290.157 220.575 289.526L206.386 281.393C205.632 280.961 204.669 281.274 204.313 282.067L197.615 296.987C197.095 298.144 195.451 298.144 194.931 296.987L188.233 282.067C187.877 281.274 186.914 280.961 186.16 281.393L171.971 289.526C170.87 290.157 169.541 289.191 169.801 287.949L173.151 271.942C173.329 271.091 172.734 270.272 171.87 270.178L155.61 268.418C154.349 268.282 153.841 266.718 154.781 265.866L166.901 254.885C167.545 254.302 167.545 253.289 166.901 252.706L154.781 241.725C153.841 240.873 154.349 239.309 155.61 239.173L171.87 237.413C172.734 237.319 173.329 236.5 173.151 235.649L169.801 219.642C169.541 218.4 170.87 217.433 171.971 218.065L186.16 226.198C186.914 226.63 187.877 226.317 188.233 225.524L194.931 210.604Z" fill="#201B19"/>
<path fill-rule="evenodd" clip-rule="evenodd" d="M210.288 253.006C210.846 252.931 211.388 252.792 211.901 252.599C212.667 252.313 213.375 251.906 214.002 251.403C213.864 253.448 213.391 255.398 212.64 257.204L212.56 257.397C209.796 263.837 203.456 268.378 196.048 268.517C188.64 268.378 182.3 263.837 179.536 257.397L179.456 257.204C178.703 255.398 178.233 253.448 178.094 251.403C178.721 251.906 179.429 252.313 180.196 252.599C180.708 252.789 181.25 252.929 181.809 253.006H181.811C181.509 251.984 181.347 250.9 181.347 249.779C180.933 242.833 188.149 238.959 188.149 238.959C188.351 242.148 189.324 244.556 190.061 245.961C191.674 244.698 193.706 243.944 195.912 243.944C198.206 243.944 200.313 244.76 201.955 246.116C202.701 244.738 203.737 242.271 203.948 238.962C203.948 238.962 211.164 242.836 210.75 249.782C210.75 250.903 210.587 251.984 210.285 253.006H210.288ZM196.913 262.796C196.36 262.576 195.744 262.566 195.185 262.772C194.892 262.879 194.838 263.269 195.092 263.454L196.053 264.147L197.012 263.486C197.266 263.31 197.223 262.919 196.935 262.804L196.913 262.796ZM187.134 254.66C187.134 254.66 190.918 254.754 193.308 257.783C193.45 257.959 193.565 258.157 193.634 258.371C193.784 258.829 193.821 259.565 192.841 260.017C192.622 260.118 192.403 260.191 192.184 260.244C190.635 260.624 189.025 259.977 188.095 258.679C187.476 257.812 186.966 256.517 187.134 254.66ZM198.796 257.783C201.186 254.754 204.971 254.66 204.971 254.66C205.142 256.517 204.629 257.812 204.009 258.679C203.08 259.977 201.47 260.624 199.921 260.244C199.702 260.191 199.483 260.118 199.264 260.017C198.284 259.565 198.321 258.829 198.47 258.371C198.54 258.157 198.655 257.959 198.796 257.783Z" fill="#F9F0DC"/>
<path d="M58 183H333" stroke="#201B19" stroke-width="2" stroke-linecap="round"/>
<path d="M103.917 135.48C102.125 135.48 99.9273 135.299 97.3246 134.936C94.7433 134.552 92.7593 134.083 91.3726 133.528L91.3406 123.256C92.642 124.344 94.3806 125.197 96.5566 125.816C98.7326 126.413 101.09 126.712 103.629 126.712C106.146 126.712 107.405 126.467 107.405 125.976C107.405 125.613 107.01 125.347 106.221 125.176C105.431 124.984 104.45 124.877 103.277 124.856C102.103 124.813 100.823 124.696 99.4366 124.504C98.05 124.312 96.77 124.056 95.5966 123.736C94.4233 123.395 93.442 122.797 92.6526 121.944C91.8633 121.091 91.4686 120.024 91.4686 118.744C91.4686 117.187 92.0126 115.907 93.1006 114.904C94.1886 113.88 95.6073 113.165 97.3566 112.76C99.1273 112.333 101.229 112.12 103.661 112.12C105.431 112.12 107.469 112.312 109.773 112.696C112.098 113.059 113.922 113.539 115.245 114.136L114.029 123.288C112.727 122.541 111.181 121.955 109.389 121.528C107.618 121.08 105.847 120.856 104.077 120.856C101.41 120.856 100.077 121.155 100.077 121.752C100.077 122.136 100.471 122.413 101.261 122.584C102.05 122.755 103.031 122.851 104.205 122.872C105.399 122.872 106.69 122.947 108.077 123.096C109.463 123.245 110.743 123.469 111.917 123.768C113.111 124.067 114.103 124.621 114.893 125.432C115.682 126.221 116.077 127.235 116.077 128.472C116.077 130.776 115.021 132.525 112.909 133.72C110.818 134.893 107.821 135.48 103.917 135.48ZM139.395 121.496L125.795 121.176V122.552L135.971 122.232V125.176L125.795 124.856V126.36L140.163 125.656V135H117.635V112.6H139.395V121.496ZM153.505 126.584H150.337L151.105 135H142.049V112.6H155.777C159.105 112.643 161.676 113.176 163.489 114.2C165.324 115.224 166.241 116.931 166.241 119.32C166.241 123.181 162.828 125.112 156.001 125.112V125.592H158.369C161.249 125.592 163.425 126.435 164.897 128.12C166.369 129.784 166.924 132.077 166.561 135H156.225C156.566 133.464 156.737 132.077 156.737 130.84C156.758 129.581 156.492 128.557 155.937 127.768C155.382 126.979 154.572 126.584 153.505 126.584ZM155.393 121.816H150.305V123.992H155.393C157.078 123.992 157.921 123.619 157.921 122.872C157.921 122.168 157.078 121.816 155.393 121.816ZM168.051 122.232V112.6H188.979V122.232L182.259 121.72L182.323 125.88L188.979 125.368V135H168.051V125.368L174.707 125.88L174.771 121.72L168.051 122.232ZM212.605 121.496L199.005 121.176V122.552L209.181 122.232V125.176L199.005 124.856V126.36L213.373 125.656V135H190.845V112.6H212.605V121.496ZM227.579 135.48C225.787 135.48 223.59 135.299 220.987 134.936C218.406 134.552 216.422 134.083 215.035 133.528L215.003 123.256C216.304 124.344 218.043 125.197 220.219 125.816C222.395 126.413 224.752 126.712 227.291 126.712C229.808 126.712 231.067 126.467 231.067 125.976C231.067 125.613 230.672 125.347 229.883 125.176C229.094 124.984 228.112 124.877 226.939 124.856C225.766 124.813 224.486 124.696 223.099 124.504C221.712 124.312 220.432 124.056 219.259 123.736C218.086 123.395 217.104 122.797 216.315 121.944C215.526 121.091 215.131 120.024 215.131 118.744C215.131 117.187 215.675 115.907 216.763 114.904C217.851 113.88 219.27 113.165 221.019 112.76C222.79 112.333 224.891 112.12 227.323 112.12C229.094 112.12 231.131 112.312 233.435 112.696C235.76 113.059 237.584 113.539 238.907 114.136L237.691 123.288C236.39 122.541 234.843 121.955 233.051 121.528C231.28 121.08 229.51 120.856 227.739 120.856C225.072 120.856 223.739 121.155 223.739 121.752C223.739 122.136 224.134 122.413 224.923 122.584C225.712 122.755 226.694 122.851 227.867 122.872C229.062 122.872 230.352 122.947 231.739 123.096C233.126 123.245 234.406 123.469 235.579 123.768C236.774 124.067 237.766 124.621 238.555 125.432C239.344 126.221 239.739 127.235 239.739 128.472C239.739 130.776 238.683 132.525 236.571 133.72C234.48 134.893 231.483 135.48 227.579 135.48ZM258.095 135H251.471L252.463 129.656H249.295L249.583 126.008H253.103L253.871 122.008H251.119L251.375 118.392H254.511L255.503 113.016H262.127L261.167 118.392H264.623L265.583 113.016H272.207L271.247 118.392H274.415L274.127 122.008H270.575L269.807 126.008H272.431L272.143 129.656H269.167L268.175 135H261.551L262.543 129.656H259.087L258.095 135ZM260.495 122.008L259.727 126.008H263.183L263.951 122.008H260.495ZM300.317 135H275.805V127.064L284.381 124.376C287.389 123.416 288.893 122.541 288.893 121.752C288.893 121.581 288.765 121.421 288.509 121.272C288.275 121.123 287.859 120.995 287.261 120.888C286.685 120.781 285.981 120.728 285.149 120.728C282.355 120.728 279.421 120.995 276.349 121.528V113.208C279.101 112.483 282.749 112.12 287.293 112.12C290.749 112.12 293.565 112.664 295.741 113.752C297.917 114.84 299.005 116.333 299.005 118.232C299.005 121.112 297.107 123.288 293.309 124.76L288.861 126.456V126.744H300.317V135ZM84.7451 170.48C80.2011 170.48 76.6171 169.531 73.9931 167.632C71.3905 165.733 70.0891 162.8 70.0891 158.832C70.0891 154.843 71.4011 151.899 74.0251 150C76.6705 148.08 80.2758 147.12 84.8411 147.12C88.0411 147.12 91.0385 147.504 93.8331 148.272L93.2571 158.448C92.3611 157.979 91.1451 157.584 89.6091 157.264C88.0945 156.923 86.6011 156.752 85.1291 156.752C82.8678 156.752 81.1611 156.901 80.0091 157.2C78.8785 157.499 78.3131 158.021 78.3131 158.768C78.3131 159.579 78.9318 160.133 80.1691 160.432C81.4278 160.709 83.3051 160.848 85.8011 160.848C87.3798 160.848 88.9371 160.677 90.4731 160.336C92.0091 159.973 93.2785 159.536 94.2811 159.024L94.3131 169.392C91.5398 170.117 88.3505 170.48 84.7451 170.48ZM119.076 167.44C116.644 169.467 113.402 170.48 109.348 170.48C105.295 170.48 102.042 169.467 99.5884 167.44C97.1564 165.392 95.9404 162.512 95.9404 158.8C95.9404 155.088 97.1564 152.219 99.5884 150.192C102.042 148.144 105.295 147.12 109.348 147.12C113.402 147.12 116.644 148.144 119.076 150.192C121.53 152.219 122.756 155.088 122.756 158.8C122.756 162.512 121.53 165.392 119.076 167.44ZM109.348 161.104C110.948 161.104 112.207 160.901 113.124 160.496C114.042 160.091 114.5 159.525 114.5 158.8C114.5 158.075 114.042 157.509 113.124 157.104C112.207 156.677 110.948 156.464 109.348 156.464C107.748 156.464 106.49 156.677 105.572 157.104C104.676 157.509 104.228 158.075 104.228 158.8C104.228 159.525 104.687 160.091 105.604 160.496C106.522 160.901 107.77 161.104 109.348 161.104ZM132.613 160.688L146.021 160.176V170H124.549V147.6H133.477L132.613 160.688ZM155.871 160.688L169.279 160.176V170H147.807V147.6H156.735L155.871 160.688ZM192.824 156.496L179.224 156.176V157.552L189.4 157.232V160.176L179.224 159.856V161.36L193.592 160.656V170H171.064V147.6H192.824V156.496ZM209.72 170.48C205.176 170.48 201.592 169.531 198.968 167.632C196.365 165.733 195.064 162.8 195.064 158.832C195.064 154.843 196.376 151.899 199 150C201.645 148.08 205.251 147.12 209.816 147.12C213.016 147.12 216.013 147.504 218.808 148.272L218.232 158.448C217.336 157.979 216.12 157.584 214.584 157.264C213.069 156.923 211.576 156.752 210.104 156.752C207.843 156.752 206.136 156.901 204.984 157.2C203.853 157.499 203.288 158.021 203.288 158.768C203.288 159.579 203.907 160.133 205.144 160.432C206.403 160.709 208.28 160.848 210.776 160.848C212.355 160.848 213.912 160.677 215.448 160.336C216.984 159.973 218.253 159.536 219.256 159.024L219.288 169.392C216.515 170.117 213.325 170.48 209.72 170.48ZM243.312 147.6L243.376 157.424L235.312 157.104L236.976 170H227.44L229.104 157.104L221.072 157.424L221.136 147.6H243.312ZM244.924 157.232V147.6H265.852V157.232L259.132 156.72L259.196 160.88L265.852 160.368V170H244.924V160.368L251.58 160.88L251.644 156.72L244.924 157.232ZM290.535 167.44C288.103 169.467 284.86 170.48 280.807 170.48C276.754 170.48 273.5 169.467 271.047 167.44C268.615 165.392 267.399 162.512 267.399 158.8C267.399 155.088 268.615 152.219 271.047 150.192C273.5 148.144 276.754 147.12 280.807 147.12C284.86 147.12 288.103 148.144 290.535 150.192C292.988 152.219 294.215 155.088 294.215 158.8C294.215 162.512 292.988 165.392 290.535 167.44ZM280.807 161.104C282.407 161.104 283.666 160.901 284.583 160.496C285.5 160.091 285.959 159.525 285.959 158.8C285.959 158.075 285.5 157.509 284.583 157.104C283.666 156.677 282.407 156.464 280.807 156.464C279.207 156.464 277.948 156.677 277.031 157.104C276.135 157.509 275.687 158.075 275.687 158.8C275.687 159.525 276.146 160.091 277.063 160.496C277.98 160.901 279.228 161.104 280.807 161.104ZM321.576 170H314.056L304.616 158.032L304.136 158.16L306.44 170H296.008V147.6H303.72L312.936 157.584L313.448 157.424L311.56 147.6H321.576V170Z" fill="#201B19"/>
<defs>
<linearGradient id="paint0_linear_95_1318" x1="0" y1="0" x2="0" y2="400" gradientUnits="userSpaceOnUse">
<stop stop-color="#FFE259"/>
<stop offset="1" stop-color="#FFA751"/>
</linearGradient>
<clipPath id="clip0_95_1318">
<rect width="299" height="234" fill="white" transform="translate(91.3486 43.9791) rotate(17.2238)"/>
</clipPath>
</defs>
</svg>
