<svg width="206" height="206" viewBox="0 0 206 206" fill="none" xmlns="http://www.w3.org/2000/svg">
<path d="M95.2644 6.91143C99.2672 1.69619 107.127 1.69619 111.13 6.91142L136.04 39.3667L176.946 38.6066C183.519 38.4845 188.42 44.6297 186.838 51.0108L176.994 90.7218L203.093 122.229C207.287 127.292 205.538 134.955 199.563 137.697L162.378 154.761L154.017 194.81C152.673 201.245 145.591 204.656 139.722 201.694L103.197 183.261L66.6722 201.694C60.803 204.656 53.7214 201.245 52.3778 194.81L44.0165 154.761L6.8319 137.697C0.856718 134.955 -0.8923 127.292 3.30147 122.229L29.4 90.7218L19.5566 51.0108C17.9749 44.6297 22.8755 38.4845 29.4487 38.6066L70.3544 39.3667L95.2644 6.91143Z" fill="#FFBF2D"/>
<path fill-rule="evenodd" clip-rule="evenodd" d="M134.582 42.3943L108.75 8.738C105.948 5.08733 100.446 5.08733 97.6443 8.738L71.8124 42.3943L29.3929 41.6061C24.7917 41.5206 21.3613 45.8223 22.4685 50.2891L32.6762 91.4696L5.61181 124.143C2.67617 127.687 3.90048 133.051 8.08311 134.971L46.6437 152.665L55.3145 194.197C56.255 198.702 61.2121 201.089 65.3206 199.015L103.197 179.9L141.074 199.015C145.182 201.089 150.139 198.702 151.08 194.197L159.751 152.665L198.311 134.971C202.494 133.051 203.718 127.687 200.783 124.143L173.718 91.4696L183.926 50.2891C185.033 45.8223 181.603 41.5206 177.002 41.6061L134.582 42.3943ZM70.3544 39.3667L29.4487 38.6066C22.8755 38.4845 17.9749 44.6297 19.5566 51.0108L29.4 90.7218L3.30147 122.229C-0.8923 127.292 0.856718 134.955 6.8319 137.697L44.0165 154.761L52.3778 194.81C53.7214 201.245 60.803 204.656 66.6722 201.694L103.197 183.261L139.722 201.694C145.591 204.656 152.673 201.245 154.017 194.81L162.378 154.761L199.563 137.697C205.538 134.955 207.287 127.292 203.093 122.229L176.994 90.7218L186.838 51.0108C188.42 44.6297 183.519 38.4845 176.946 38.6066L136.04 39.3667L111.13 6.91142C107.127 1.69619 99.2672 1.69619 95.2644 6.91143L70.3544 39.3667Z" fill="#0A0A0A"/>
<circle cx="101.81" cy="110.588" r="48.554" fill="#FF450B" stroke="#0A0A0A" stroke-width="3"/>
<ellipse cx="114.325" cy="99.4644" rx="4.17116" ry="11.1231" fill="#0A0A0A"/>
<ellipse cx="89.2981" cy="99.4644" rx="4.17116" ry="11.1231" fill="#0A0A0A"/>
<path d="M129.617 124.144C124.674 134.232 114.317 141.176 102.341 141.176C89.4239 141.176 79.3788 134.463 74.9902 123.076" stroke="#0A0A0A" stroke-width="3"/>
<path d="M134.487 124.873C133.543 126.46 131.065 126.727 128.953 125.469C126.84 124.212 125.893 121.906 126.838 120.32" stroke="#0A0A0A" stroke-width="3" stroke-linecap="round"/>
<path d="M69.1335 123.484C70.0779 125.07 72.556 125.337 74.6684 124.08C76.7808 122.822 77.7276 120.517 76.7831 118.93" stroke="#0A0A0A" stroke-width="3" stroke-linecap="round"/>
</svg>
