<svg width="98" height="29" viewBox="0 0 98 29" fill="none" xmlns="http://www.w3.org/2000/svg">
<path d="M30.27 23.3067H22.21L20.728 12.7247H20.312L18.83 23.3067H10.744L7 5.10669L15.892 5.10669L15.684 15.8707L16.1 15.9227L18.518 6.12069H22.496L24.914 15.9227L25.33 15.8707L25.122 5.10669L34.014 5.10669L30.27 23.3067Z" fill="white"/>
<path d="M34.7956 12.9327V5.10669L51.7996 5.10669V12.9327L46.3396 12.5167L46.3916 15.8967L51.7996 15.4807V23.3067H34.7956V15.4807L40.2036 15.8967L40.2556 12.5167L34.7956 12.9327Z" fill="white"/>
<path d="M59.8684 15.7407L70.7624 15.3247V23.3067H53.3164V5.10669L60.5704 5.10669L59.8684 15.7407Z" fill="white"/>
<path d="M81.6511 23.3067H72.2131V5.10669L81.6511 5.10669C85.0311 5.10669 87.6831 5.89536 89.6071 7.47269C91.5484 9.05002 92.5191 11.2947 92.5191 14.2067C92.5191 17.1014 91.5484 19.346 89.6071 20.9407C87.6831 22.518 85.0311 23.3067 81.6511 23.3067ZM82.3791 12.6727H78.9211V15.7407H82.3791C83.4364 15.7407 84.2597 15.6107 84.8491 15.3507C85.4384 15.0734 85.7331 14.692 85.7331 14.2067C85.7331 13.184 84.6151 12.6727 82.3791 12.6727Z" fill="white"/>
<path fill-rule="evenodd" clip-rule="evenodd" d="M6.66784 28.3067L0.866699 0.106689H65.9113L65.223 10.5326L67.2131 10.4566V0.106689H81.6511C85.77 0.106689 89.6779 1.0691 92.7691 3.59953C96.0715 6.28748 97.5191 10.0694 97.5191 14.2067C97.5191 18.3426 96.0619 22.1091 92.7808 24.8043L92.777 24.8074C89.6846 27.3426 85.7735 28.3067 81.6511 28.3067H6.66784ZM89.6071 7.47269C87.6831 5.89536 85.0311 5.10669 81.6511 5.10669H72.2131V23.3067H81.6511C85.0311 23.3067 87.6831 22.518 89.6071 20.9407C91.5484 19.346 92.5191 17.1014 92.5191 14.2067C92.5191 11.2947 91.5484 9.05002 89.6071 7.47269ZM59.8683 15.7407L60.5703 5.10669H53.3163V23.3067H70.7623V15.3247L59.8683 15.7407ZM51.7996 5.10669H34.7956V12.9327L40.2556 12.5167L40.2036 15.8967L34.7956 15.4807V23.3067H51.7996V15.4807L46.3916 15.8967L46.3396 12.5167L51.7996 12.9327V5.10669ZM34.014 5.10669H25.122L25.33 15.8707L24.914 15.9227L22.496 6.12069H18.518L16.1 15.9227L15.684 15.8707L15.892 5.10669H6.99997L10.744 23.3067H18.83L20.312 12.7247H20.728L22.21 23.3067H30.27L34.014 5.10669ZM78.9211 15.7407H82.3791C82.9649 15.7407 83.4789 15.7008 83.9211 15.621C84.2769 15.5567 84.5863 15.4666 84.8491 15.3507C85.4384 15.0734 85.7331 14.692 85.7331 14.2067C85.7331 13.455 85.1291 12.9796 83.9211 12.7804C83.8497 12.7686 83.7763 12.7578 83.7008 12.748C83.674 12.7445 83.6469 12.7411 83.6195 12.7379C83.2535 12.6944 82.8401 12.6727 82.3791 12.6727H78.9211V15.7407Z" fill="#FF450B"/>
</svg>
