<svg width="26" height="27" viewBox="0 0 26 27" fill="none" xmlns="http://www.w3.org/2000/svg">
<path d="M25.6 6.18483C24.648 6.58637 23.6336 6.85252 22.576 6.98175C23.664 6.35714 24.4944 5.3756 24.8848 4.19252C23.8704 4.77406 22.7504 5.18483 21.5568 5.41406C20.5936 4.42791 19.2208 3.81714 17.7232 3.81714C14.8176 3.81714 12.4784 6.08483 12.4784 8.86483C12.4784 9.26483 12.5136 9.64945 12.6 10.0156C8.2368 9.81098 4.376 7.80022 1.7824 4.73714C1.3296 5.49252 1.064 6.35714 1.064 7.28791C1.064 9.0356 2 10.5848 3.3952 11.4818C2.552 11.4664 1.7248 11.231 1.024 10.8602C1.024 10.8756 1.024 10.8956 1.024 10.9156C1.024 13.3679 2.8432 15.4048 5.2288 15.8741C4.8016 15.9864 4.336 16.0402 3.8528 16.0402C3.5168 16.0402 3.1776 16.0218 2.8592 15.9541C3.5392 17.9525 5.4688 19.4218 7.7632 19.4694C5.9776 20.8125 3.7104 21.6218 1.256 21.6218C0.8256 21.6218 0.4128 21.6033 0 21.5525C2.3248 22.9941 5.08 23.8171 8.0512 23.8171C17.7088 23.8171 22.9888 16.1248 22.9888 9.45714C22.9888 9.23406 22.9808 9.01868 22.9696 8.80483C24.0112 8.09406 24.8864 7.20637 25.6 6.18483Z" fill="#201B19"/>
</svg>
