<svg width="26" height="27" viewBox="0 0 26 27" fill="none" xmlns="http://www.w3.org/2000/svg">
<path d="M13 3.9799C16.206 3.9799 16.5824 3.99419 17.8496 4.05136C19.0215 4.10376 19.655 4.29908 20.079 4.46581C20.6411 4.68494 21.0413 4.94219 21.4605 5.3614C21.8797 5.78062 22.1417 6.18078 22.3561 6.7429C22.5181 7.16688 22.7182 7.80047 22.7706 8.97236C22.8277 10.2395 22.842 10.6159 22.842 13.8219C22.842 17.0279 22.8277 17.4043 22.7706 18.6714C22.7182 19.8433 22.5228 20.4769 22.3561 20.9009C22.137 21.463 21.8797 21.8632 21.4605 22.2824C21.0413 22.7016 20.6411 22.9636 20.079 23.178C19.655 23.34 19.0215 23.54 17.8496 23.5924C16.5824 23.6496 16.206 23.6639 13 23.6639C9.79397 23.6639 9.41763 23.6496 8.15046 23.5924C6.97857 23.54 6.34498 23.3447 5.921 23.178C5.35888 22.9589 4.95872 22.7016 4.5395 22.2824C4.12029 21.8632 3.85828 21.463 3.64391 20.9009C3.48194 20.4769 3.28186 19.8433 3.22946 18.6714C3.17229 17.4043 3.158 17.0279 3.158 13.8219C3.158 10.6159 3.17229 10.2395 3.22946 8.97236C3.28186 7.80047 3.47718 7.16688 3.64391 6.7429C3.86304 6.18078 4.12029 5.78062 4.5395 5.3614C4.95872 4.94219 5.35888 4.68018 5.921 4.46581C6.34498 4.30384 6.97857 4.10376 8.15046 4.05136C9.41763 3.98943 9.79874 3.9799 13 3.9799ZM13 1.81714C9.74157 1.81714 9.33188 1.83143 8.05042 1.8886C6.77372 1.94576 5.90195 2.1506 5.13974 2.44596C4.34895 2.75084 3.68202 3.16529 3.01509 3.83222C2.34815 4.49916 1.93847 5.17085 1.62882 5.95688C1.33347 6.71908 1.12862 7.59086 1.07146 8.87232C1.01429 10.149 1 10.5587 1 13.8171C1 17.0756 1.01429 17.4853 1.07146 18.7667C1.12862 20.0434 1.33347 20.9152 1.62882 21.6822C1.9337 22.473 2.34815 23.1399 3.01509 23.8068C3.68202 24.4737 4.35371 24.8834 5.13974 25.1931C5.90195 25.4884 6.77372 25.6933 8.05519 25.7504C9.33665 25.8076 9.74157 25.8219 13.0048 25.8219C16.268 25.8219 16.6729 25.8076 17.9544 25.7504C19.2311 25.6933 20.1028 25.4884 20.8698 25.1931C21.6606 24.8882 22.3275 24.4737 22.9945 23.8068C23.6614 23.1399 24.0711 22.4682 24.3807 21.6822C24.6761 20.92 24.8809 20.0482 24.9381 18.7667C24.9953 17.4853 25.0095 17.0803 25.0095 13.8171C25.0095 10.5539 24.9953 10.149 24.9381 8.86756C24.8809 7.59086 24.6761 6.71908 24.3807 5.95211C24.0758 5.16132 23.6614 4.49439 22.9945 3.82746C22.3275 3.16053 21.6558 2.75084 20.8698 2.4412C20.1076 2.14584 19.2358 1.941 17.9544 1.88383C16.6681 1.83143 16.2584 1.81714 13 1.81714Z" fill="#201B19"/>
<path d="M13 7.65747C9.59869 7.65747 6.83569 10.4157 6.83569 13.8218C6.83569 17.2279 9.59393 19.9862 13 19.9862C16.4062 19.9862 19.1644 17.2279 19.1644 13.8218C19.1644 10.4157 16.4062 7.65747 13 7.65747ZM13 17.8186C10.7896 17.8186 8.99846 16.0275 8.99846 13.8171C8.99846 11.6067 10.7896 9.81547 13 9.81547C15.2104 9.81547 17.0016 11.6067 17.0016 13.8171C17.0016 16.0275 15.2104 17.8186 13 17.8186Z" fill="#201B19"/>
<path d="M19.4074 8.84852C20.202 8.84852 20.8461 8.20441 20.8461 7.40986C20.8461 6.6153 20.202 5.97119 19.4074 5.97119C18.6129 5.97119 17.9688 6.6153 17.9688 7.40986C17.9688 8.20441 18.6129 8.84852 19.4074 8.84852Z" fill="#201B19"/>
</svg>
