<svg width="80" height="60" viewBox="0 0 80 60" fill="none" xmlns="http://www.w3.org/2000/svg">
<path d="M67.1534 4.98221C61.9576 2.63345 56.5484 0.925267 50.9256 0C50.2139 1.28114 49.4309 2.91815 48.8615 4.27046C42.8829 3.3452 36.8331 3.3452 30.8544 4.27046C30.2139 2.7758 29.5021 1.35231 28.7192 0C23.0964 0.925267 17.616 2.63345 12.4914 5.05338C2.24233 20.3559 -0.533469 35.2313 0.818844 49.9644C6.86867 54.4484 13.5591 57.8648 20.7477 60C22.3847 57.7936 23.8082 55.516 25.0181 53.0961C22.6694 52.242 20.463 51.1744 18.3277 49.8932C18.8971 49.4662 19.3954 49.0391 19.9648 48.6121C32.5626 54.5907 47.2245 54.5907 59.8224 48.6121C60.3918 49.0391 60.89 49.4662 61.4594 49.8932C59.3242 51.1744 57.0466 52.242 54.6978 53.0961C55.9078 55.516 57.3313 57.7936 58.9683 60C66.1569 57.7936 72.9185 54.4484 78.8971 49.9644C80.463 32.8826 76.0502 18.0783 67.1534 4.98221ZM26.7263 40.8541C22.8117 40.8541 19.6801 37.2954 19.6801 32.9537C19.6801 28.6121 22.8117 24.9822 26.7263 24.9822C30.7121 24.9822 33.8438 28.5409 33.8438 32.9537C33.7726 37.2954 30.7121 40.8541 26.7263 40.8541ZM52.9185 40.8541C49.0039 40.8541 45.8722 37.2954 45.8722 32.9537C45.8722 28.6121 49.0039 24.9822 52.9185 24.9822C56.9043 24.9822 60.0359 28.5409 59.9648 32.9537C59.8936 37.3665 56.8331 40.8541 52.9185 40.8541Z" fill="#5865F2"/>
</svg>
