<svg width="78" height="30" viewBox="0 0 78 30" fill="none" xmlns="http://www.w3.org/2000/svg">
<path d="M29.6223 24.0214H21.5623L20.0803 13.4394H19.6643L18.1823 24.0214H10.0963L6.35229 5.8214H15.2443L15.0363 16.5854L15.4523 16.6374L17.8703 6.8354H21.8483L24.2663 16.6374L24.6823 16.5854L24.4743 5.8214H33.3663L29.6223 24.0214Z" fill="white"/>
<path d="M41.9219 24.0214H34.3559V5.8214H51.8799V13.5954L40.9859 13.0234V14.4274L49.4879 14.1674V17.6774L40.9859 17.2614L41.9219 24.0214Z" fill="white"/>
<path d="M63.1103 24.4114C61.6543 24.4114 59.869 24.2641 57.7543 23.9694C55.657 23.6574 54.045 23.2761 52.9183 22.8254L52.8923 14.4794C53.9496 15.3634 55.3623 16.0567 57.1303 16.5594C58.8983 17.0447 60.8136 17.2874 62.8763 17.2874C64.9216 17.2874 65.9443 17.0881 65.9443 16.6894C65.9443 16.3947 65.6236 16.1781 64.9823 16.0394C64.341 15.8834 63.5436 15.7967 62.5903 15.7794C61.637 15.7447 60.597 15.6494 59.4703 15.4934C58.3436 15.3374 57.3036 15.1294 56.3503 14.8694C55.397 14.5921 54.5996 14.1067 53.9583 13.4134C53.317 12.7201 52.9963 11.8534 52.9963 10.8134C52.9963 9.54806 53.4383 8.50806 54.3223 7.6934C55.2063 6.8614 56.359 6.28073 57.7803 5.9514C59.219 5.60473 60.9263 5.4314 62.9023 5.4314C64.341 5.4314 65.9963 5.5874 67.8683 5.8994C69.7576 6.19406 71.2396 6.58406 72.3143 7.0694L71.3263 14.5054C70.269 13.8987 69.0123 13.4221 67.5563 13.0754C66.1176 12.7114 64.679 12.5294 63.2403 12.5294C61.0736 12.5294 59.9903 12.7721 59.9903 13.2574C59.9903 13.5694 60.311 13.7947 60.9523 13.9334C61.5936 14.0721 62.391 14.1501 63.3443 14.1674C64.315 14.1674 65.3636 14.2281 66.4903 14.3494C67.617 14.4707 68.657 14.6527 69.6103 14.8954C70.581 15.1381 71.387 15.5887 72.0283 16.2474C72.6696 16.8887 72.9903 17.7121 72.9903 18.7174C72.9903 20.5894 72.1323 22.0107 70.4163 22.9814C68.7176 23.9347 66.2823 24.4114 63.1103 24.4114Z" fill="white"/>
<path fill-rule="evenodd" clip-rule="evenodd" d="M6.02014 29.0214L0.218994 0.821396H56.8799V1.0273C58.7327 0.608746 60.7593 0.431396 62.9023 0.431396C64.6799 0.431396 66.6109 0.621951 68.6647 0.963169C70.75 1.28979 72.7208 1.76675 74.3722 2.51254L77.7604 4.04268L76.4666 13.7797C77.5167 15.2604 77.9903 16.9803 77.9903 18.7174C77.9903 22.5065 76.0598 25.5336 72.878 27.3334L72.8707 27.3375L72.8634 27.3417C70.0872 28.8997 66.6581 29.4114 63.1103 29.4114C61.3441 29.4114 59.3125 29.2348 57.0642 28.9216L57.0414 28.9184L57.0186 28.915C54.7768 28.5815 52.7199 28.1312 51.0613 27.4678L47.9288 26.2148L47.9176 22.6065L46.7659 22.5502L47.6619 29.0214H6.02014ZM52.9183 22.8254C52.9429 22.8353 52.9678 22.8451 52.9929 22.8549C54.1157 23.2927 55.7028 23.6642 57.7543 23.9694C59.8689 24.2641 61.6543 24.4114 63.1103 24.4114C66.2823 24.4114 68.7176 23.9347 70.4163 22.9814C71.3736 22.4399 72.0639 21.7581 72.4871 20.936C72.8226 20.2846 72.9903 19.545 72.9903 18.7174C72.9903 17.7121 72.6696 16.8887 72.0283 16.2474C71.6798 15.8895 71.2828 15.5931 70.8371 15.358C70.8159 15.3468 70.7946 15.3358 70.7732 15.3249C70.4162 15.1431 70.0285 15 69.6103 14.8954C68.8696 14.7069 68.0767 14.555 67.2314 14.4397C67.2249 14.4388 67.2183 14.4379 67.2118 14.437C66.9754 14.4049 66.7349 14.3757 66.4903 14.3494C66.1244 14.31 65.7668 14.277 65.4174 14.2504C65.4016 14.2492 65.3857 14.248 65.3699 14.2468C65.2086 14.2348 65.0492 14.2241 64.8915 14.2148C64.3554 14.1832 63.8397 14.1674 63.3443 14.1674C63.3094 14.1668 63.2747 14.166 63.2403 14.1653C63.1162 14.1624 62.9949 14.1585 62.8763 14.1535C62.7996 14.1503 62.7242 14.1466 62.6498 14.1425C62.6399 14.142 62.63 14.1414 62.6201 14.1409C62.3024 14.1228 62.0055 14.0967 61.7294 14.0625C61.4489 14.0278 61.1899 13.9848 60.9523 13.9334C60.3109 13.7947 59.9903 13.5694 59.9903 13.2574C59.9903 12.9573 60.4045 12.75 61.2329 12.6354C61.6163 12.5824 62.0884 12.5493 62.6492 12.536C62.6688 12.5356 62.6885 12.5351 62.7083 12.5347C62.7634 12.5336 62.8194 12.5326 62.8763 12.5318C62.994 12.5302 63.1153 12.5294 63.2403 12.5294C63.2749 12.5294 63.3096 12.5295 63.3443 12.5297C63.3542 12.5298 63.3641 12.5298 63.374 12.5299C63.3888 12.53 63.4036 12.5302 63.4184 12.5303C63.9272 12.5356 64.4359 12.5637 64.9447 12.6146C65.1974 12.6398 65.4501 12.6707 65.7028 12.7071C65.7318 12.7113 65.7607 12.7156 65.7897 12.7199C66.0276 12.7555 66.2655 12.796 66.5034 12.8415C66.5521 12.8508 66.6009 12.8604 66.6496 12.8701C66.9518 12.9305 67.254 12.9989 67.5563 13.0754C68.3983 13.2759 69.1736 13.5198 69.8823 13.8073C69.8838 13.8079 69.8853 13.8085 69.8868 13.8091C69.9884 13.8503 70.0886 13.8925 70.1875 13.9355C70.5898 14.1107 70.9694 14.3006 71.3263 14.5054L72.3143 7.0694C71.2396 6.58406 69.7576 6.19406 67.8683 5.8994C65.9963 5.5874 64.3409 5.4314 62.9023 5.4314C60.9263 5.4314 59.2189 5.60473 57.7803 5.9514C57.4671 6.02396 57.167 6.10872 56.8799 6.20569C55.864 6.54881 55.0115 7.04471 54.3223 7.6934C54.036 7.95725 53.796 8.24473 53.6024 8.55586C53.5043 8.71355 53.4181 8.87731 53.3438 9.04714C53.1121 9.57683 52.9963 10.1656 52.9963 10.8134C52.9963 11.8034 53.2869 12.6364 53.8681 13.3123C53.8974 13.3464 53.9275 13.3801 53.9583 13.4134C54.0159 13.4757 54.0749 13.5364 54.1351 13.5954C54.2482 13.7063 54.3658 13.8112 54.4879 13.9102C54.6792 14.0653 54.8814 14.2058 55.0945 14.3317C55.1772 14.3806 55.2616 14.4273 55.3476 14.4717C55.6601 14.6333 55.9943 14.7658 56.3503 14.8694C56.5239 14.9168 56.7005 14.9624 56.8799 15.0063C57.0882 15.0573 57.3004 15.106 57.5165 15.1523C57.5209 15.1532 57.5252 15.1542 57.5295 15.1551C57.65 15.1809 57.7717 15.2059 57.8946 15.2302C58.3995 15.3301 58.9247 15.4179 59.4703 15.4934C59.8519 15.5462 60.2235 15.5921 60.5852 15.631C60.7409 15.6478 60.8947 15.6632 61.0467 15.6774C61.5842 15.7275 62.0988 15.7615 62.5903 15.7794C62.6872 15.7812 62.7826 15.7836 62.8763 15.7868C63.0004 15.7911 63.1218 15.7966 63.2403 15.8033C63.2651 15.8047 63.2898 15.8062 63.3144 15.8077C63.3244 15.8084 63.3344 15.809 63.3443 15.8096C63.6413 15.8287 63.92 15.8558 64.1804 15.8912C64.4704 15.9305 64.7377 15.9799 64.9823 16.0394C65.6236 16.1781 65.9443 16.3947 65.9443 16.6894C65.9443 16.9402 65.5396 17.1121 64.7302 17.2051C64.7195 17.2063 64.7087 17.2076 64.6978 17.2088C64.3287 17.2497 63.8775 17.2747 63.3443 17.2836C63.3255 17.2839 63.3066 17.2842 63.2876 17.2845C63.2719 17.2847 63.2561 17.285 63.2403 17.2852C63.1228 17.2867 63.0014 17.2874 62.8763 17.2874C62.8029 17.2874 62.7297 17.2871 62.6567 17.2865C62.6254 17.2862 62.5941 17.2859 62.5629 17.2855C62.5538 17.2854 62.5446 17.2853 62.5355 17.2852C62.0052 17.2782 61.4849 17.255 60.9744 17.2154C60.7331 17.1967 60.494 17.1744 60.2571 17.1484C59.9201 17.1115 59.5876 17.0672 59.2595 17.0155C58.7973 16.9426 58.3439 16.8552 57.8994 16.7531C57.64 16.6935 57.3836 16.6289 57.1303 16.5594C57.046 16.5354 56.9625 16.511 56.8799 16.4862C56.572 16.3938 56.2754 16.2953 55.9899 16.1908C55.9826 16.1881 55.9754 16.1855 55.9682 16.1828C55.915 16.1633 55.8622 16.1435 55.8098 16.1235C55.3375 15.9434 54.8968 15.7463 54.4879 15.5322C53.8877 15.2179 53.3558 14.867 52.8923 14.4794L52.9183 22.8254ZM51.8799 5.8214H34.3559V24.0214H41.9219L40.9859 17.2614L49.4879 17.6774V14.1674L40.9859 14.4274V13.0234L51.8799 13.5954V5.8214ZM10.0963 24.0214H18.1823L19.6643 13.4394H20.0803L21.5623 24.0214H29.6223L33.3663 5.8214H24.4743L24.6823 16.5854L24.2663 16.6374L21.8483 6.8354H17.8703L15.4523 16.6374L15.0363 16.5854L15.2443 5.8214H6.35227L10.0963 24.0214Z" fill="#FF450B"/>
</svg>
