<svg width="90" height="90" viewBox="0 0 90 90" fill="none" xmlns="http://www.w3.org/2000/svg">
<path d="M84.19 48.3858C84.19 45.8117 83.9397 43.2938 83.4647 40.8576C82.3616 35.1886 80.0378 29.9587 76.7793 25.4541C76.6312 25.7656 76.4576 26.0619 76.2686 26.3428C75.4616 27.5328 74.2972 28.4623 72.9284 28.9679C72.9948 28.4112 73.0306 27.8443 73.0306 27.2723C73.0306 26.3734 72.9438 25.495 72.7803 24.6472C72.5454 23.4367 72.1521 22.2876 71.6261 21.21C70.763 19.4633 69.5423 17.9209 68.0561 16.6951C67.862 16.5317 67.6577 16.3734 67.4534 16.2253C66.9529 15.8524 66.4269 15.5205 65.8804 15.2191C65.1194 14.739 64.3431 14.2845 63.5515 13.8606C63.577 13.9832 63.5974 14.1108 63.6128 14.2334C63.6792 14.6573 63.72 15.0965 63.7302 15.5358C63.7302 15.6328 63.7353 15.7247 63.7353 15.8218C63.7353 19.5143 61.8457 22.7626 58.9856 24.642V24.6472C56.861 21.5879 55.1602 18.2171 53.96 14.6216C53.628 13.6359 53.342 12.6348 53.0867 11.6134C52.9488 11.0669 52.8262 10.5153 52.7138 9.95863C52.4074 8.45198 52.1929 6.9198 52.0652 5.35697C51.9886 4.38148 51.9426 3.39578 51.9375 2.40497C51.9375 1.88913 51.9426 1.3784 51.958 0.867676C49.486 2.01681 47.1571 3.4111 44.9967 5.025C44.154 5.65319 43.3369 6.31714 42.5453 7.01173C41.6362 7.80846 40.7679 8.64606 39.9354 9.52451C39.3736 10.117 38.8323 10.7247 38.3113 11.3478C35.0733 15.2191 32.581 19.7237 31.0386 24.642C28.1581 22.7626 26.2581 19.5143 26.2581 15.8218C26.2581 15.7299 26.2581 15.6328 26.2633 15.5409C26.2786 14.9689 26.3399 14.4071 26.442 13.8606C21.5033 16.5215 17.1978 20.2089 13.8219 24.642C8.79637 31.2304 5.81372 39.4531 5.81372 48.3807C5.81372 48.6462 5.81372 48.9118 5.82394 49.1723C5.81883 49.4328 5.81372 49.6983 5.81372 49.9639C5.81372 66.6851 16.2887 80.9651 31.0386 86.5882C35.3746 88.243 40.0784 89.1469 44.9916 89.1469H44.9967C49.9202 89.1469 54.6342 88.2378 58.9754 86.578C65.242 84.1827 70.7425 80.2245 74.9867 75.1785C80.7221 68.3654 84.1798 59.5656 84.1798 49.9588C84.1798 49.6932 84.1798 49.4328 84.1696 49.1672C84.1849 48.9169 84.19 48.6514 84.19 48.3858ZM45.0018 22.4153C45.0018 22.4102 45.0018 22.4102 45.0018 22.4153V22.4153Z" fill="#FF450B"/>
<path d="M75.3249 54.2083C74.3443 54.576 73.3075 54.8416 72.2401 54.9846H72.235C72.8121 53.0336 73.1236 50.9703 73.1236 48.8303C73.9153 35.5718 60.1154 28.1765 60.1154 28.1765C59.7119 34.4942 57.7303 39.2031 56.3054 41.8334C53.1644 39.244 49.1348 37.6862 44.7476 37.6862C40.529 37.6862 36.6424 39.1265 33.5576 41.5371C32.148 38.8558 30.2889 34.2593 29.9008 28.1714C29.9008 28.1714 16.1009 35.5667 16.8925 48.8252C16.8925 50.9652 17.2041 53.0336 17.7812 54.9846H17.7761C16.7087 54.8365 15.6719 54.5709 14.6913 54.2083C13.2255 53.6618 11.8721 52.8855 10.6719 51.9253C10.9375 55.8273 11.8363 59.5505 13.2766 62.9979C13.3277 63.1205 13.3787 63.2431 13.4298 63.3656C18.7158 75.6589 30.8405 84.3259 45.0081 84.5915C59.1757 84.3259 71.3004 75.6589 76.5864 63.3656C76.6375 63.2431 76.6885 63.1205 76.7396 62.9979C78.1748 59.5505 79.0787 55.8273 79.3443 51.9253C78.1441 52.8855 76.7907 53.6618 75.3249 54.2083Z" fill="white"/>
<path d="M43.3579 73.6263C44.4253 73.233 45.6051 73.2535 46.6623 73.6723L46.7032 73.6876C47.2548 73.9072 47.3365 74.6528 46.8513 74.9899L45.0178 76.2514L43.1792 74.9286C42.694 74.5762 42.7961 73.8306 43.3579 73.6263Z" fill="#FF450B"/>
<path d="M27.9723 58.1406C27.9723 58.1406 35.2093 58.3194 39.7803 64.1008C40.051 64.4379 40.2706 64.8158 40.4034 65.2244C40.6894 66.0978 40.7609 67.5023 38.8865 68.3654C38.4677 68.5595 38.0489 68.6974 37.6301 68.7995C34.6679 69.5247 31.5882 68.2888 29.8109 65.8118C28.626 64.157 27.6505 61.6851 27.9723 58.1406Z" fill="#FF450B"/>
<path d="M62.0726 58.1406C62.0726 58.1406 54.8356 58.3194 50.2646 64.1008C49.9939 64.4379 49.7743 64.8158 49.6415 65.2244C49.3555 66.0978 49.284 67.5023 51.1584 68.3654C51.5772 68.5595 51.996 68.6974 52.4148 68.7995C55.377 69.5247 58.4567 68.2888 60.234 65.8118C61.4189 64.157 62.3995 61.6851 62.0726 58.1406Z" fill="#FF450B"/>
</svg>
