<svg width="229" height="66" viewBox="0 0 229 66" fill="none" xmlns="http://www.w3.org/2000/svg">
<path d="M57.5981 35.4776C57.5981 33.5942 57.415 31.7518 57.0674 29.9693C56.2602 25.8212 54.5599 21.9945 52.1757 18.6984C52.0673 18.9264 51.9403 19.1431 51.802 19.3487C51.2116 20.2194 50.3595 20.8995 49.358 21.2695C49.4066 20.8622 49.4327 20.4474 49.4327 20.0288C49.4327 19.3711 49.3692 18.7283 49.2496 18.108C49.0777 17.2223 48.79 16.3815 48.4051 15.593C47.7735 14.3149 46.8804 13.1864 45.7929 12.2895C45.6509 12.1699 45.5014 12.054 45.3519 11.9457C44.9857 11.6729 44.6008 11.43 44.2009 11.2095C43.6441 10.8582 43.0761 10.5256 42.4969 10.2154C42.5155 10.3051 42.5305 10.3986 42.5417 10.4882C42.5903 10.7984 42.6202 11.1198 42.6276 11.4412C42.6276 11.5122 42.6314 11.5794 42.6314 11.6505C42.6314 14.3523 41.2487 16.729 39.156 18.1043V18.108C37.6014 15.8695 36.357 13.4031 35.4788 10.7723C35.2359 10.051 35.0266 9.31856 34.8397 8.57116C34.7388 8.1713 34.6491 7.7677 34.5669 7.36037C34.3427 6.25795 34.1858 5.13685 34.0923 3.99332C34.0363 3.27956 34.0026 2.55831 33.9989 1.83333C33.9989 1.4559 34.0026 1.0822 34.0138 0.708496C32.2051 1.54932 30.5011 2.56953 28.9203 3.75042C28.3037 4.21007 27.7058 4.69588 27.1265 5.20411C26.4614 5.78709 25.8261 6.39996 25.2169 7.04272C24.8059 7.47621 24.4097 7.92092 24.0286 8.37683C21.6593 11.2095 19.8356 14.5055 18.7071 18.1043C16.5994 16.729 15.2092 14.3523 15.2092 11.6505C15.2092 11.5832 15.2092 11.5122 15.213 11.4449C15.2242 11.0264 15.269 10.6153 15.3438 10.2154C11.7301 12.1624 8.57979 14.8605 6.10963 18.1043C2.43241 22.925 0.25 28.9416 0.25 35.4739C0.25 35.6682 0.25 35.8625 0.257474 36.0531C0.253737 36.2437 0.25 36.438 0.25 36.6323C0.25 48.8673 7.9146 59.316 18.7071 63.4304C21.8798 64.6412 25.3216 65.3026 28.9166 65.3026H28.9203C32.5228 65.3026 35.972 64.6375 39.1485 63.4229C43.7338 61.6703 47.7586 58.7741 50.864 55.0819C55.0607 50.0968 57.5906 43.6579 57.5906 36.6286C57.5906 36.4343 57.5906 36.2437 57.5831 36.0494C57.5944 35.8662 57.5981 35.6719 57.5981 35.4776ZM28.924 16.4749C28.924 16.4712 28.924 16.4712 28.924 16.4749V16.4749Z" fill="#FF450B"/>
<path d="M51.1114 39.7378C50.3939 40.0069 49.6353 40.2012 48.8543 40.3058H48.8506C49.2728 38.8783 49.5008 37.3685 49.5008 35.8027C50.08 26.1014 39.9826 20.6903 39.9826 20.6903C39.6874 25.3129 38.2375 28.7585 37.1948 30.683C34.8966 28.7884 31.9481 27.6486 28.738 27.6486C25.6512 27.6486 22.8074 28.7024 20.5502 30.4663C19.5188 28.5043 18.1585 25.141 17.8745 20.6865C17.8745 20.6865 7.77713 26.0977 8.35636 35.799C8.35636 37.3648 8.58432 38.8783 9.0066 40.3058H9.00286C8.22183 40.1974 7.46322 40.0031 6.74571 39.7378C5.67319 39.3379 4.68288 38.7699 3.80469 38.0673C3.99901 40.9224 4.65672 43.6467 5.71056 46.1692C5.74793 46.2589 5.7853 46.3486 5.82267 46.4382C9.69047 55.4332 18.5621 61.7749 28.9286 61.9692C39.295 61.7749 48.1667 55.4332 52.0345 46.4382C52.0719 46.3486 52.1092 46.2589 52.1466 46.1692C53.1967 43.6467 53.8582 40.9224 54.0525 38.0673C53.1743 38.7699 52.184 39.3379 51.1114 39.7378Z" fill="white"/>
<path d="M27.7172 53.9456C28.4982 53.6579 29.3615 53.6728 30.135 53.9793L30.1649 53.9905C30.5685 54.1512 30.6283 54.6968 30.2733 54.9434L28.9317 55.8665L27.5864 54.8986C27.2314 54.6407 27.3061 54.0951 27.7172 53.9456Z" fill="#FF450B"/>
<path d="M16.4673 42.6152C16.4673 42.6152 21.7627 42.746 25.1073 46.9763C25.3053 47.223 25.466 47.4995 25.5632 47.7985C25.7725 48.4375 25.8248 49.4652 24.4533 50.0967C24.1469 50.2387 23.8404 50.3396 23.534 50.4144C21.3665 50.945 19.1131 50.0407 17.8126 48.2282C16.9457 47.0174 16.2319 45.2087 16.4673 42.6152Z" fill="#FF450B"/>
<path d="M41.4108 42.6152C41.4108 42.6152 36.1154 42.746 32.7708 46.9763C32.5727 47.223 32.4121 47.4995 32.3149 47.7985C32.1056 48.4375 32.0533 49.4652 33.4248 50.0967C33.7312 50.2387 34.0376 50.3396 34.3441 50.4144C36.5115 50.945 38.765 50.0407 40.0654 48.2282C40.9324 47.0174 41.6499 45.2087 41.4108 42.6152Z" fill="#FF450B"/>
<g clip-path="url(#clip0_2_105190)">
<path d="M81.8696 32.2113L83.2429 23.7725H83.6609L85.0342 32.2113H92.6172L96.6137 18.2793H88.2386L88.139 26.7181L87.7569 26.7579L85.5079 19.1351H81.388L79.1389 26.7579L78.7648 26.7181L78.6653 18.2793H70.2861L74.2826 32.2113H81.8696Z" fill="white"/>
<path d="M95.6147 36.1915H71.2853L65 14.2983H82.5982L82.6061 15.1542H84.2939L84.3018 14.2983H101.9L95.6147 36.1915Z" fill="#FF440B"/>
<path d="M113.973 26.34L108.456 26.738V23.7526L113.973 24.1507V18.2793H97.0118V24.1507L102.549 23.7526V26.738L97.0118 26.34V32.2113H113.973V26.34Z" fill="white"/>
<path d="M117.954 14.2983H93.0353V36.1915H117.954V14.2983Z" fill="#FF440B"/>
<path d="M132.184 25.7429L121.039 26.1409L121.636 18.2793H114.925V32.2113H132.184V25.7429Z" fill="white"/>
<path d="M136.165 36.1915H110.944V14.2983H125.927L125.342 22.0047L136.165 21.6186V36.1915Z" fill="#FF440B"/>
<path d="M150.105 30.3802C150.971 29.8391 151.68 29.0799 152.16 28.1788C152.641 27.2776 152.877 26.266 152.843 25.2452C152.876 24.2245 152.64 23.2131 152.16 22.312C151.679 21.4109 150.971 20.6517 150.105 20.1103C148.282 18.8922 145.798 18.2832 142.653 18.2832H133.1V32.2152H142.653C145.798 32.2152 148.282 31.6036 150.105 30.3802ZM139.409 23.8918H143.191C143.992 23.8579 144.792 23.9795 145.547 24.2501C146.112 24.4889 146.395 24.8193 146.395 25.2452C146.395 25.6712 146.112 25.9976 145.547 26.2324C144.79 26.4943 143.991 26.6118 143.191 26.5787H139.409V23.8918Z" fill="white"/>
<path d="M142.653 36.1959H129.119V14.3027H142.653C146.586 14.3027 149.838 15.1466 152.322 16.8065C153.734 17.7086 154.891 18.9594 155.679 20.4381C156.468 21.9169 156.862 23.5739 156.824 25.2493C156.861 26.9241 156.467 28.5803 155.678 30.0583C154.89 31.5363 153.734 32.7864 152.322 33.6882V33.6882C149.846 35.3521 146.586 36.1959 142.653 36.1959Z" fill="#FF440B"/>
<path d="M159.726 32.2113H166.712L165.916 27.2356L175.071 27.6337V24.8274L165.916 25.0264V23.7526L177.081 24.3497V18.2793H159.726V32.2113Z" fill="white"/>
<path d="M171.5 37.2743L148.907 36.1915L155.745 23.8955V14.2983H181.062V28.5488L179.052 28.4413V31.789L170.617 31.4228L171.5 37.2743Z" fill="#FF440B"/>
<path d="M199.018 25.2452C199.055 24.1758 198.808 23.1156 198.303 22.1725C197.797 21.2294 197.051 20.4368 196.14 19.8754C194.224 18.6069 191.654 17.9727 188.43 17.9727C185.206 17.9727 182.634 18.6069 180.715 19.8754C179.807 20.4369 179.062 21.2285 178.558 22.17C178.053 23.1115 177.806 24.1696 177.841 25.2372C177.809 26.3046 178.059 27.3617 178.566 28.3017C179.072 29.2417 179.818 30.0314 180.727 30.5911C182.649 31.8649 185.216 32.5018 188.43 32.5018C191.643 32.5018 194.214 31.8649 196.14 30.5911C197.047 30.0311 197.79 29.2422 198.296 28.3038C198.801 27.3654 199.05 26.3105 199.018 25.2452V25.2452ZM191.563 26.4394C190.55 26.7595 189.491 26.9036 188.43 26.8653C187.371 26.904 186.314 26.7599 185.305 26.4394C184.549 26.1528 184.171 25.7587 184.171 25.2452C184.171 24.7317 184.569 24.3416 185.305 24.051C186.313 23.7218 187.371 23.5735 188.43 23.6131C189.492 23.5739 190.552 23.7222 191.563 24.051C192.327 24.3403 192.709 24.7383 192.709 25.2452C192.709 25.7507 192.327 26.1448 191.563 26.4314V26.4394Z" fill="white"/>
<path d="M188.43 36.4903C184.449 36.4903 181.106 35.6265 178.53 33.9188C177.069 32.9997 175.871 31.7175 175.052 30.1974C174.234 28.6773 173.824 26.9711 173.861 25.2451C173.819 23.5195 174.225 21.8125 175.04 20.2904C175.854 18.7683 177.048 17.4829 178.506 16.5595C181.078 14.8638 184.41 14 188.414 14C192.419 14 195.75 14.8598 198.322 16.5595C199.783 17.481 200.981 18.7655 201.798 20.2877C202.614 21.81 203.023 23.518 202.983 25.2451C203.021 26.9689 202.612 28.6731 201.797 30.1923C200.982 31.7114 199.787 32.9938 198.33 33.9149C195.77 35.6225 192.438 36.4903 188.43 36.4903Z" fill="#FF440B"/>
<path d="M211.374 25.0463L218.459 18.2793H208.727L207.811 22.9366H207.374L206.462 18.2793H196.725L203.811 25.0463L196.268 32.2113H206.319L207.374 27.1162H207.811L208.866 32.2113H218.917L211.374 25.0463Z" fill="white"/>
<path d="M228.889 36.1915H186.3L198.043 25.038L186.798 14.2983H228.391L217.146 25.038L228.889 36.1915Z" fill="#FF440B"/>
<path d="M89.3413 46.3342C88.6407 45.8083 87.8197 45.4662 86.9529 45.3391C85.9976 45.1719 84.9627 45.0392 83.8481 44.941C82.7335 44.8428 81.6986 44.799 80.7432 44.8097C79.9421 44.8244 79.1416 44.7551 78.3549 44.6027C77.718 44.4633 77.3995 44.2484 77.3995 43.9538C77.3995 43.5425 78.408 43.3368 80.4248 43.3368C81.9294 43.3367 83.4291 43.5076 84.895 43.8464C86.2216 44.1349 87.5077 44.5854 88.7243 45.1878L89.6 39.6548C88.1524 39.1583 86.6547 38.8219 85.1338 38.6517C83.4951 38.41 81.8422 38.277 80.186 38.2536C78.92 38.2452 77.6546 38.3117 76.3964 38.4527C75.3886 38.5641 74.3966 38.7884 73.4389 39.1214C72.6651 39.3649 71.9708 39.8116 71.4287 40.4151C70.9618 40.9715 70.7141 41.6792 70.7321 42.4054C70.724 42.7945 70.806 43.1803 70.9717 43.5324C71.1375 43.8846 71.3824 44.1937 71.6874 44.4355C72.38 44.9935 73.2009 45.3698 74.0758 45.5301C75.0994 45.739 76.1331 45.8958 77.1726 45.9998C78.2793 46.1113 79.3102 46.1803 80.2656 46.2068C81.068 46.2181 81.8677 46.3048 82.6539 46.4656C83.2908 46.6142 83.6093 46.8331 83.6093 47.1224C83.6093 47.4674 82.6672 47.6398 80.783 47.6398C78.7698 47.6665 76.7619 47.4255 74.8122 46.9233C73.2978 46.5647 71.8831 45.871 70.6724 44.8932L70.6923 51.302C72.2772 51.7856 73.9026 52.1254 75.5486 52.317C77.3209 52.5898 79.1096 52.7428 80.9025 52.7748C87.1652 52.7748 90.2966 51.2555 90.2966 48.217C90.2973 47.8501 90.2111 47.4882 90.045 47.1609C89.879 46.8337 89.6378 46.5504 89.3413 46.3342V46.3342Z" fill="white"/>
<path d="M80.9142 56.7916C78.9375 56.76 76.9652 56.5938 75.011 56.294C73.1054 56.0736 71.2249 55.6738 69.3944 55.0998L66.7354 54.1684L66.6797 36.1801L68.5028 37.7723C69.4851 36.6865 70.7316 35.8734 72.1211 35.4119C73.3547 34.9811 74.6324 34.6887 75.9306 34.5401C77.3485 34.38 78.7748 34.3042 80.2017 34.3132C82.0362 34.3336 83.8674 34.4759 85.683 34.7391C87.5082 34.9463 89.3042 35.3589 91.0369 35.9691L94.0502 37.1235L92.9157 44.2886C93.8195 45.4172 94.306 46.8233 94.293 48.2691C94.293 51.3023 92.6211 53.8419 89.7034 55.271C87.5618 56.29 84.6918 56.7916 80.9142 56.7916Z" fill="#FF440B"/>
<path d="M105.614 47.1979C106.419 47.0862 107.217 46.924 108.002 46.7123C108.641 46.5505 109.254 46.2985 109.821 45.964C110.276 45.6907 110.658 45.3126 110.936 44.8613C111.21 44.4009 111.348 43.8724 111.334 43.3368C111.334 41.7445 110.375 40.5013 108.456 39.607C106.537 38.7127 103.967 38.2708 100.746 38.2814C97.5213 38.2814 94.9499 38.7233 93.0313 39.607C91.1126 40.4907 90.1546 41.7339 90.1573 43.3368C90.1391 43.905 90.2853 44.4664 90.5783 44.9536C90.8713 45.4408 91.2987 45.8331 91.8092 46.0834C92.9105 46.6964 94.4828 47.0016 96.5262 46.9989L96.566 47.397L90.8539 47.6955L91.3315 52.6513C92.9388 52.4134 94.5635 52.3135 96.1879 52.3528C97.9924 52.3793 99.6204 52.4656 101.072 52.6115C102.524 52.7575 104.166 52.8305 106 52.8305C107.674 52.8439 109.345 52.7107 110.996 52.4324L110.299 47.2975C108.955 47.6329 107.582 47.8368 106.199 47.9065C104.607 48.0073 102.928 48.0697 101.164 48.0936C99.3989 48.1175 98.0322 48.1772 97.0636 48.2727L97.0238 47.8746L102.716 47.4766C103.812 47.4102 104.778 47.3174 105.614 47.1979ZM97.601 46.2227C96.8526 46.0237 96.4784 45.745 96.4784 45.3868C96.4784 45.0166 96.8526 44.73 97.601 44.531C98.6303 44.3031 99.6838 44.2028 100.738 44.2324C101.794 44.2031 102.85 44.3034 103.882 44.531C104.639 44.73 105.017 45.0166 105.017 45.3868C105.017 45.757 104.639 46.0237 103.882 46.2227C102.85 46.4503 101.794 46.5506 100.738 46.5212C99.6838 46.5509 98.6303 46.4506 97.601 46.2227Z" fill="white"/>
<path d="M87.7491 57.2212L86.6743 46.0756C86.3244 45.2094 86.1472 44.2831 86.1528 43.3489C86.1528 41.4979 86.8256 38.0826 91.3276 36.0008C93.7956 34.8663 96.8646 34.313 100.706 34.313C104.547 34.313 107.612 34.8663 110.084 36.0008C114.602 38.0826 115.259 41.4979 115.259 43.3489C115.267 44.6124 114.922 45.8532 114.264 46.9314L114.224 46.9991L115.418 55.6609L111.652 56.3256C109.773 56.6418 107.87 56.795 105.964 56.7834C104.01 56.7834 102.218 56.7038 100.642 56.5445C99.3087 56.4132 97.7801 56.3296 96.0924 56.3057C94.6946 56.2707 93.2963 56.3546 91.9127 56.5565L87.7491 57.2212Z" fill="#FF440B"/>
<path d="M131.169 38.584H124.442L124.9 43.4403C124.953 43.8476 124.915 44.2614 124.789 44.6523C124.663 45.0432 124.452 45.4014 124.171 45.7013C123.611 46.2904 122.753 46.585 121.596 46.585C120.439 46.585 119.59 46.2904 119.048 45.7013C118.77 45.4003 118.561 45.0416 118.438 44.6508C118.314 44.26 118.278 43.8467 118.332 43.4403L118.798 38.584H112.031V45.8685C111.993 46.8592 112.202 47.8437 112.64 48.7332C113.078 49.6228 113.73 50.3893 114.538 50.9636C116.21 52.1976 118.559 52.8146 121.584 52.8146C124.609 52.8146 126.964 52.1976 128.65 50.9636C129.458 50.3893 130.11 49.6228 130.548 48.7332C130.986 47.8437 131.195 46.8592 131.157 45.8685L131.169 38.584Z" fill="white"/>
<path d="M121.584 56.7913C117.703 56.7913 114.538 55.9076 112.174 54.1641C110.865 53.219 109.805 51.9696 109.087 50.5237C108.368 49.0778 108.013 47.4787 108.05 45.8646V34.6035H135.138V45.8686C135.176 47.481 134.822 49.0786 134.105 50.5237C133.389 51.9688 132.332 53.2181 131.026 54.1641C128.661 55.9076 125.489 56.7913 121.584 56.7913Z" fill="#FF440B"/>
<path d="M137.18 38.584L129.497 52.516H138.394L139.051 49.849H142.494L143.131 52.516H152.047L144.365 38.584H137.18ZM139.608 48.0379L140.583 44.1966H140.981L141.937 48.0379H139.608Z" fill="white"/>
<path d="M158.787 56.4923H122.754L134.827 34.5991H146.713L158.787 56.4923Z" fill="#FF440B"/>
<path d="M169.371 40.4111C167.548 39.193 165.064 38.584 161.919 38.584H152.366V52.516H161.919C165.064 52.516 167.548 51.9057 169.371 50.685C170.237 50.1438 170.946 49.3847 171.427 48.4835C171.907 47.5824 172.143 46.5708 172.11 45.55C172.143 44.5286 171.908 43.5164 171.427 42.6145C170.946 41.7127 170.237 40.9529 169.371 40.4111V40.4111ZM164.813 46.5451C164.056 46.807 163.257 46.9245 162.457 46.8915H158.675V44.2046H162.457C163.258 44.1706 164.058 44.2923 164.813 44.5628C165.378 44.8017 165.661 45.132 165.661 45.558C165.661 45.9839 165.37 46.2984 164.813 46.5451Z" fill="white"/>
<path d="M161.919 56.4967H148.385L140.424 34.6035H161.919C165.852 34.6035 169.104 35.4474 171.584 37.1073C172.996 38.0094 174.153 39.2602 174.941 40.7389C175.73 42.2177 176.124 43.8747 176.086 45.5501C176.124 47.2246 175.73 48.8806 174.942 50.3587C174.155 51.8367 172.999 53.087 171.588 53.989C169.104 55.6528 165.852 56.4967 161.919 56.4967Z" fill="#FF440B"/>
<path d="M92.6173 32.2152H85.0542L83.6809 23.7764H83.2828L81.9095 32.2152H74.3464L70.3459 18.2832H78.7251L78.8246 26.722L79.2027 26.7618L81.4518 19.139H85.5717L87.8207 26.7618L88.1989 26.722L88.2984 18.2832H96.6775L92.6173 32.2152Z" fill="white"/>
<path d="M97.0157 24.1506V18.2832H113.973V24.1546L108.46 23.7565V26.7419L113.973 26.3439V32.2152H97.0157V26.3439L102.549 26.7419V23.7565L97.0157 24.1506Z" fill="white"/>
<path d="M121.039 26.1409L132.184 25.7428V32.2152H114.928V18.2832H121.636L121.039 26.1409Z" fill="white"/>
<path d="M142.653 32.2152H133.1V18.2832H142.653C145.798 18.2832 148.282 18.8936 150.105 20.1143C150.971 20.6557 151.679 21.4149 152.16 22.316C152.64 23.2171 152.876 24.2285 152.843 25.2492C152.877 26.27 152.641 27.2816 152.16 28.1827C151.68 29.0839 150.971 29.843 150.105 30.3842C148.282 31.6049 145.798 32.2152 142.653 32.2152ZM143.191 23.8958H139.409V26.5827H143.191C143.99 26.6183 144.79 26.5035 145.547 26.2444C146.112 26.0095 146.395 25.6831 146.395 25.2572C146.395 24.8313 146.112 24.5009 145.547 24.262C144.793 23.9874 143.993 23.8617 143.191 23.8918V23.8958Z" fill="white"/>
<path d="M166.716 32.2152H159.73V18.2832H177.085V24.3536L165.94 23.7565V25.0303L175.095 24.8313V27.6376L165.94 27.2395L166.716 32.2152Z" fill="white"/>
<path d="M188.43 32.5097C185.216 32.5097 182.649 31.8729 180.727 30.5991C179.818 30.0394 179.072 29.2496 178.566 28.3096C178.059 27.3696 177.809 26.3126 177.841 25.2452C177.805 24.1762 178.051 23.1165 178.556 22.1735C179.06 21.2304 179.806 20.4376 180.715 19.8754C182.634 18.6069 185.206 17.9727 188.43 17.9727C191.654 17.9727 194.224 18.6069 196.14 19.8754C197.05 20.4361 197.795 21.2274 198.301 22.169C198.806 23.1106 199.054 24.1691 199.018 25.2372C199.051 26.3038 198.803 27.3604 198.298 28.3003C197.792 29.2403 197.048 30.0304 196.14 30.5911C194.224 31.8702 191.654 32.5097 188.43 32.5097ZM185.305 26.4314C186.314 26.7519 187.372 26.896 188.43 26.8573C189.491 26.8956 190.55 26.7515 191.563 26.4314C192.327 26.1448 192.709 25.7507 192.709 25.2372C192.709 24.7237 192.311 24.3336 191.563 24.043C190.552 23.7142 189.492 23.566 188.43 23.6052C187.371 23.5656 186.313 23.7138 185.305 24.043C184.549 24.3323 184.171 24.7304 184.171 25.2372C184.171 25.7507 184.549 26.1448 185.305 26.4314V26.4314Z" fill="white"/>
<path d="M206.323 32.2152H196.272L203.835 25.0502L196.749 18.2832H206.482L207.397 22.9405H207.835L208.751 18.2832H218.483L211.398 25.0502L218.961 32.2152H208.87L207.815 27.1201H207.377L206.323 32.2152Z" fill="white"/>
<path d="M80.9144 52.8107C79.1215 52.7787 77.3328 52.6258 75.5605 52.353C73.9141 52.1561 72.2887 51.811 70.7042 51.322L70.6843 44.9133C71.8951 45.891 73.3097 46.5848 74.8241 46.9434C76.7739 47.4456 78.7818 47.6865 80.795 47.6599C82.6765 47.6599 83.6186 47.4874 83.6212 47.1424C83.6212 46.8505 83.3028 46.6316 82.6659 46.4856C81.8796 46.3248 81.08 46.2381 80.2775 46.2269C79.3222 46.2003 78.2912 46.1313 77.1846 46.0199C76.145 45.9158 75.1114 45.759 74.0877 45.5502C73.2129 45.3898 72.3919 45.0135 71.6994 44.4555C71.3944 44.2137 71.1494 43.9046 70.9837 43.5525C70.818 43.2003 70.7359 42.8145 70.744 42.4254C70.726 41.6993 70.9737 40.9915 71.4406 40.4351C71.9828 39.8317 72.677 39.3849 73.4508 39.1414C74.4085 38.8084 75.4006 38.5841 76.4084 38.4727C77.6665 38.3317 78.9319 38.2653 80.1979 38.2737C81.8542 38.297 83.5071 38.43 85.1458 38.6717C86.6667 38.8419 88.1644 39.1783 89.612 39.6748L88.7363 45.2078C87.5196 44.6054 86.2335 44.1549 84.9069 43.8664C83.4409 43.529 81.9412 43.3594 80.4368 43.3608C78.4199 43.3608 77.4115 43.5665 77.4115 43.9778C77.4115 44.2724 77.73 44.4873 78.3668 44.6267C79.1535 44.7791 79.954 44.8484 80.7552 44.8337C81.7105 44.8337 82.7455 44.8774 83.8601 44.965C84.9746 45.0526 86.0096 45.1853 86.9649 45.3631C87.8316 45.4902 88.6527 45.8323 89.3533 46.3582C89.6548 46.5779 89.899 46.8669 90.0652 47.2009C90.2315 47.5348 90.315 47.9039 90.3086 48.2769C90.3086 51.2994 87.1772 52.8107 80.9144 52.8107Z" fill="white"/>
<path d="M91.3315 52.6318L90.8539 47.676L96.566 47.3774L96.5262 46.9794C94.4855 46.9794 92.9132 46.6742 91.8092 46.0638C91.2987 45.8136 90.8713 45.4213 90.5783 44.9341C90.2853 44.4469 90.1391 43.8855 90.1573 43.3172C90.1573 41.725 91.1153 40.4817 93.0313 39.5874C94.9472 38.6931 97.5187 38.2513 100.746 38.2619C103.97 38.2619 106.54 38.7037 108.456 39.5874C110.372 40.4711 111.331 41.7144 111.334 43.3172C111.348 43.8528 111.21 44.3814 110.936 44.8418C110.658 45.2931 110.276 45.6711 109.821 45.9444C109.254 46.279 108.641 46.531 108.002 46.6928C107.217 46.9044 106.419 47.0666 105.614 47.1784C104.778 47.2978 103.809 47.3907 102.708 47.4571L97.0158 47.8551L97.0556 48.2532C98.011 48.1603 99.3776 48.1006 101.156 48.074C102.934 48.0475 104.612 47.9851 106.191 47.887C107.574 47.8173 108.947 47.6133 110.291 47.2779L110.988 52.4129C109.337 52.6912 107.666 52.8244 105.992 52.8109C104.161 52.8109 102.518 52.738 101.064 52.592C99.6098 52.446 97.9818 52.3598 96.1799 52.3333C94.5582 52.2944 92.9362 52.3943 91.3315 52.6318V52.6318ZM97.6089 46.2231C98.6383 46.451 99.6918 46.5512 100.746 46.5216C101.802 46.5509 102.858 46.4507 103.89 46.2231C104.647 46.024 105.025 45.7454 105.025 45.3871C105.025 45.017 104.647 44.7304 103.89 44.5313C102.858 44.3037 101.802 44.2035 100.746 44.2328C99.6918 44.2032 98.6383 44.3034 97.6089 44.5313C96.8606 44.7304 96.4864 45.017 96.4864 45.3871C96.4864 45.7573 96.8526 46.024 97.601 46.2231H97.6089Z" fill="white"/>
<path d="M121.584 52.8106C118.559 52.8106 116.21 52.1936 114.538 50.9596C113.73 50.3853 113.078 49.6188 112.64 48.7293C112.202 47.8397 111.993 46.8552 112.031 45.8645V38.584H118.798L118.34 43.4403C118.286 43.8467 118.322 44.26 118.446 44.6508C118.569 45.0416 118.778 45.4003 119.056 45.7013C119.614 46.2904 120.463 46.585 121.604 46.585C122.745 46.585 123.603 46.2904 124.179 45.7013C124.46 45.4014 124.671 45.0432 124.797 44.6523C124.922 44.2614 124.96 43.8476 124.908 43.4403L124.442 38.584H131.169V45.8685C131.207 46.8592 130.998 47.8437 130.56 48.7332C130.122 49.6228 129.47 50.3893 128.661 50.9636C126.99 52.1949 124.63 52.8106 121.584 52.8106Z" fill="white"/>
<path d="M139.051 49.8451L138.394 52.516H129.497L137.18 38.584H144.345L152.027 52.516H143.111L142.474 49.849L139.051 49.8451ZM140.961 44.1926H140.563L139.588 48.0339H141.897L140.961 44.1926Z" fill="white"/>
<path d="M161.919 52.516H152.366V38.584H161.919C165.064 38.584 167.548 39.1943 169.371 40.4151C170.237 40.9565 170.945 41.7157 171.426 42.6168C171.907 43.5179 172.142 44.5293 172.11 45.55C172.143 46.5708 171.907 47.5824 171.427 48.4835C170.946 49.3847 170.237 50.1438 169.371 50.685C167.548 51.9057 165.064 52.516 161.919 52.516ZM162.457 44.1966H158.675V46.8835H162.457C163.256 46.9191 164.056 46.8043 164.813 46.5451C165.378 46.3103 165.661 45.9839 165.661 45.558C165.661 45.132 165.37 44.7897 164.813 44.5549C164.058 44.2829 163.258 44.1599 162.457 44.1926V44.1966Z" fill="white"/>
</g>
<defs>
<clipPath id="clip0_2_105190">
<rect width="164" height="43.3884" fill="white" transform="translate(65 14)"/>
</clipPath>
</defs>
</svg>
