<svg width="143" height="160" viewBox="0 0 143 160" fill="none" xmlns="http://www.w3.org/2000/svg">
<path d="M142.051 86.1232C142.051 81.4579 141.598 76.8944 140.737 72.479C138.738 62.2042 134.526 52.7255 128.62 44.5612C128.352 45.1258 128.037 45.6627 127.695 46.1718C126.232 48.3286 124.121 50.0133 121.641 50.9297C121.761 49.9207 121.826 48.8933 121.826 47.8565C121.826 46.2274 121.669 44.6352 121.372 43.0986C120.946 40.9048 120.234 38.8221 119.28 36.869C117.716 33.7032 115.504 30.9077 112.81 28.6861C112.458 28.3899 112.088 28.103 111.718 27.8345C110.811 27.1588 109.857 26.5571 108.867 26.011C107.487 25.1409 106.08 24.317 104.646 23.5487C104.692 23.7709 104.729 24.0023 104.757 24.2245C104.877 24.9928 104.951 25.7888 104.97 26.5849C104.97 26.7608 104.979 26.9274 104.979 27.1033C104.979 33.7958 101.554 39.683 96.3703 43.0894V43.0986C92.5195 37.554 89.4371 31.4446 87.2618 24.928C86.6601 23.1415 86.1417 21.3272 85.6789 19.4758C85.429 18.4854 85.2068 17.4857 85.0032 16.4767C84.4478 13.746 84.059 10.969 83.8276 8.13654C83.6887 6.36853 83.6054 4.58201 83.5962 2.78623C83.5962 1.85132 83.6054 0.925658 83.6332 0C79.153 2.08273 74.932 4.60978 71.0165 7.53486C69.4892 8.67342 68.0081 9.87677 66.5733 11.1357C64.9257 12.5797 63.352 14.0978 61.8432 15.6899C60.825 16.7637 59.8438 17.8652 58.8996 18.9945C53.0309 26.011 48.5137 34.1753 45.7182 43.0894C40.4975 39.683 37.0541 33.7958 37.0541 27.1033C37.0541 26.9367 37.0541 26.7608 37.0633 26.5942C37.0911 25.5574 37.2022 24.5392 37.3873 23.5487C28.4362 28.3714 20.6329 35.0547 14.5143 43.0894C5.40584 55.0304 0 69.9335 0 86.114C0 86.5953 -2.82764e-07 87.0767 0.0185129 87.5487C0.0092563 88.0208 0 88.5022 0 88.9835C0 119.29 18.9852 145.171 45.7182 155.362C53.5771 158.362 62.1024 160 71.0072 160H71.0165C79.9398 160 88.4837 158.352 96.3517 155.344C107.71 151.003 117.679 143.829 125.371 134.683C135.766 122.335 142.033 106.386 142.033 88.9743C142.033 88.4929 142.033 88.0208 142.014 87.5395C142.042 87.0859 142.051 86.6046 142.051 86.1232ZM71.0257 39.0535C71.0257 39.0443 71.0257 39.0443 71.0257 39.0535V39.0535Z" fill="white"/>
<path d="M125.984 96.6757C124.206 97.3421 122.327 97.8235 120.393 98.0827H120.383C121.429 94.5466 121.994 90.807 121.994 86.9285C123.429 62.8984 98.4176 49.4949 98.4176 49.4949C97.6864 60.9452 94.0948 69.4798 91.5122 74.247C85.8194 69.5539 78.516 66.7306 70.5646 66.7306C62.9187 66.7306 55.8744 69.341 50.2834 73.7101C47.7286 68.8504 44.3592 60.5194 43.6557 49.4856C43.6557 49.4856 18.6444 62.8891 20.0792 86.9192C20.0792 90.7977 20.6439 94.5466 21.6898 98.0827H21.6806C19.746 97.8142 17.8669 97.3329 16.0896 96.6757C13.433 95.6852 10.98 94.2782 8.80469 92.538C9.28603 99.61 10.9152 106.358 13.5255 112.606C13.6181 112.828 13.7107 113.051 13.8032 113.273C23.3838 135.553 45.3589 151.262 71.0367 151.743C96.7144 151.262 118.69 135.553 128.27 113.273C128.363 113.051 128.455 112.828 128.548 112.606C131.149 106.358 132.787 99.61 133.269 92.538C131.093 94.2782 128.64 95.6852 125.984 96.6757Z" fill="#FF440B"/>
<path d="M68.0348 131.869C69.9694 131.156 72.1077 131.193 74.0238 131.952L74.0978 131.98C75.0975 132.378 75.2456 133.73 74.3663 134.341L71.0432 136.627L67.7108 134.23C66.8314 133.591 67.0165 132.239 68.0348 131.869Z" fill="white"/>
<path d="M40.1673 103.803C40.1673 103.803 53.2838 104.127 61.5685 114.606C62.0591 115.216 62.4571 115.901 62.6978 116.642C63.2161 118.225 63.3457 120.77 59.9486 122.335C59.1895 122.687 58.4305 122.936 57.6714 123.122C52.3026 124.436 46.7209 122.196 43.4996 117.706C41.3521 114.707 39.5841 110.227 40.1673 103.803Z" fill="white"/>
<path d="M101.956 103.803C101.956 103.803 88.8392 104.127 80.5546 114.606C80.064 115.216 79.666 115.901 79.4253 116.642C78.9069 118.225 78.7773 120.77 82.1745 122.335C82.9335 122.687 83.6926 122.936 84.4516 123.122C89.8204 124.436 95.4021 122.196 98.6234 117.706C100.771 114.707 102.548 110.227 101.956 103.803Z" fill="white"/>
</svg>
