<svg width="60" height="60" viewBox="0 0 60 60" fill="none" xmlns="http://www.w3.org/2000/svg">
<path d="M3.69523 33.7176L3.88972 33.3985L16.5315 11.8066C16.726 11.4875 17.115 11.4875 17.3095 11.9129C19.4489 17.1248 21.1993 23.5066 20.4213 27.5485C20.0324 29.2503 19.0599 31.484 17.893 33.5049C17.7957 33.824 17.6012 34.1431 17.4068 34.3558C17.3095 34.4622 17.2123 34.5686 17.0178 34.5686H3.98697C3.69523 34.4622 3.50074 34.0367 3.69523 33.7176Z" fill="#2081E2"/>
<path d="M60 37.7594V41.163C60 41.3758 59.9028 41.4821 59.7083 41.5885C58.7358 42.0139 55.3322 43.7158 53.9708 45.8431C50.3728 51.2676 47.6499 59.0323 41.6207 59.0323H16.2399C7.29335 59.0323 0 51.0549 0 41.163V40.8439C0 40.6312 0.194491 40.4185 0.38898 40.4185H14.684C14.9757 40.4185 15.1702 40.7376 15.1702 40.9503C15.0729 41.9076 15.2674 42.9712 15.6564 43.9285C16.5316 45.8431 18.282 46.9067 20.1297 46.9067H27.1313V40.9503H20.2269C19.8379 40.9503 19.6434 40.5248 19.8379 40.2057C19.9352 40.0994 20.0324 39.993 20.1297 39.7803C20.8104 38.7166 21.6856 37.2275 22.658 35.4193C23.3387 34.2493 23.9222 32.8666 24.4084 31.5902C24.5057 31.3775 24.6029 31.1648 24.7002 30.8457C24.7974 30.4202 24.9919 29.9948 25.0891 29.6757C25.1864 29.3566 25.2836 29.0375 25.3809 28.7184C25.5754 27.6548 25.6726 26.4847 25.6726 25.2084C25.6726 24.7829 25.6726 24.2511 25.5754 23.7193C25.5754 23.1874 25.4781 22.6556 25.4781 22.1238C25.4781 21.6983 25.3809 21.1665 25.2836 20.7411C25.1864 19.9965 25.0891 19.3583 24.8946 18.6138L24.7974 18.401C24.7002 17.9756 24.6029 17.4438 24.4084 17.0183C24.0194 15.5292 23.5332 14.0401 23.047 12.7637C22.8525 12.2319 22.658 11.7001 22.4635 11.1683C22.1718 10.4237 21.8801 9.67916 21.5883 9.04098C21.4911 8.72188 21.2966 8.50915 21.1993 8.19006C21.1021 7.87096 20.9076 7.55186 20.8104 7.23277C20.7131 7.02004 20.6159 6.80732 20.5186 6.59459L19.6434 4.89275C19.5462 4.68003 19.7407 4.36094 19.9352 4.4673L25.2836 6.06277L25.9643 6.27549L26.7423 6.48822L27.034 6.59459V3.08456C27.034 1.38273 28.2982 0 29.7569 0C30.5348 0 31.2156 0.31908 31.7018 0.850902C32.188 1.38272 32.4797 2.12728 32.4797 2.97819V8.08369L33.0632 8.29641C33.0632 8.29641 33.1605 8.29642 33.1605 8.40278C33.2577 8.50915 33.4522 8.72188 33.7439 8.93461C33.9384 9.14733 34.1329 9.36007 34.4246 9.5728C34.9109 9.99826 35.5916 10.6364 36.2723 11.2746C36.4668 11.4873 36.6613 11.5937 36.7585 11.8064C37.6337 12.6574 38.6062 13.721 39.5786 14.891C39.8703 15.2101 40.0648 15.5292 40.3566 15.8483C40.6483 16.1674 40.8428 16.5928 41.1345 16.9119C41.4262 17.3374 41.8152 17.8692 42.107 18.2947C42.2042 18.5074 42.3987 18.7201 42.496 19.0392C42.8849 19.6774 43.1767 20.3156 43.5656 20.9538C43.6629 21.2729 43.8574 21.592 43.9546 21.9111C44.3436 22.762 44.6353 23.6129 44.7326 24.5702C44.8298 24.7829 44.8298 24.9956 44.8298 25.102C44.9271 25.3147 44.9271 25.6338 44.9271 25.9529C45.0243 26.9102 44.9271 27.7611 44.8298 28.7184C44.7326 29.1439 44.6353 29.4629 44.5381 29.8884C44.4408 30.2075 44.3436 30.633 44.1491 31.0584C43.8574 31.803 43.4684 32.5475 43.0794 33.2921C42.9822 33.5048 42.7877 33.8239 42.5932 34.143C42.3987 34.4621 42.2042 34.6748 42.107 34.9939C41.9125 35.313 41.6207 35.6321 41.4263 35.9512C41.2318 36.2703 41.0373 36.5894 40.7455 36.9085C40.4538 37.3339 40.0648 37.7594 39.7731 38.1848C39.5786 38.3976 39.3841 38.7166 39.0924 38.9294C38.8979 39.1421 38.7034 39.4612 38.4117 39.6739C38.1199 39.993 37.8282 40.3121 37.5365 40.5248L36.953 41.0567C36.8557 41.163 36.7585 41.163 36.6613 41.163H32.3825V47.1194H37.7309C38.8979 47.1194 40.0648 46.694 40.94 45.8431C41.2318 45.524 42.5932 44.2476 44.2463 42.333C44.3436 42.2267 44.3436 42.2267 44.4408 42.2267L59.222 37.5466C59.8055 37.2275 60 37.4403 60 37.7594Z" fill="#2081E2"/>
</svg>
