<svg width="153" height="153" viewBox="0 0 153 153" fill="none" xmlns="http://www.w3.org/2000/svg">
<path d="M146.907 77.1555L135.58 77.6551L135.197 81.0736L144.101 83.7959L144.079 83.9867L134.793 84.667L134.41 88.0856L145.343 91.084L145.579 88.9852L136.634 86.6286L136.655 86.4378L145.941 85.7574L146.309 82.482L137.405 79.7598L137.427 79.5689L146.671 79.2543L146.907 77.1555Z" fill="#FF440B"/>
<path d="M144.472 93.3569L133.673 90.3865L133.113 92.4228L143.912 95.3933L144.472 93.3569Z" fill="#FF440B"/>
<path d="M142.91 98.8442L132.485 94.7528L129.819 101.545L131.607 102.246L133.5 97.4202L142.139 100.81L142.91 98.8442Z" fill="#FF440B"/>
<path d="M139.215 107.755L129.509 102.165L127.593 105.493C126.092 108.099 126.583 110.228 129.231 111.753L131.061 112.807C133.709 114.333 135.797 113.689 137.298 111.082L139.215 107.755ZM136.497 108.627L135.618 110.152C134.716 111.718 133.585 111.824 132.17 111.009L130.229 109.891C128.815 109.077 128.338 108.045 129.241 106.478L130.119 104.953L136.497 108.627Z" fill="#FF440B"/>
<path d="M130.152 121.427L121.923 113.83L120.49 115.382L123.911 118.54L120.721 121.996L122.131 123.299L125.322 119.842L127.309 121.676L123.901 125.368L125.312 126.67L130.152 121.427Z" fill="#FF440B"/>
<path d="M120.883 124.843L119.408 122.991C117.574 120.688 115.153 120.448 112.913 122.233C110.672 124.017 110.365 126.43 112.199 128.733L113.675 130.585C115.459 132.825 117.93 133.128 120.17 131.343C122.41 129.559 122.668 127.083 120.883 124.843ZM119.291 126.234C120.238 127.423 120.258 128.86 118.994 129.866C117.767 130.843 116.374 130.583 115.387 129.344L113.792 127.342C112.825 126.128 112.725 124.796 114.089 123.709C115.415 122.653 116.689 122.968 117.696 124.232L119.291 126.234Z" fill="#FF440B"/>
<path d="M114.768 135.198L109.409 131.942L109.301 131.746L109.387 125.376L107.341 126.504L107.26 131.227L107.064 131.335L103.026 128.885L100.981 130.013L106.415 133.338L106.523 133.534L106.419 139.804L108.464 138.676L108.563 134.053L108.759 133.945L112.723 136.327L114.768 135.198Z" fill="#FF440B"/>
<path d="M94.7856 144.185C96.8858 143.616 98.2118 141.964 97.6887 140.033C97.1572 138.072 95.6199 137.66 93.2467 137.773L93.0994 137.779C91.5949 137.856 90.7082 137.764 90.4529 136.822C90.2353 136.019 90.6647 135.157 91.9773 134.801C93.6143 134.358 94.6137 135.048 94.9736 136.376L95.0489 136.654L97.0565 136.11L96.9645 135.77C96.2781 133.238 94.1944 132.277 91.5536 132.993C89.2526 133.617 87.8845 135.297 88.4746 137.474C89.0061 139.436 90.5322 139.868 92.8899 139.759L93.0372 139.752C94.414 139.694 95.4216 139.62 95.6979 140.639C95.8987 141.381 95.3812 142.101 94.3001 142.394C93.0647 142.729 92.1306 142.402 91.7958 141.166L91.708 140.842L89.7313 141.378L89.8568 141.841C90.4427 144.003 92.4692 144.813 94.7856 144.185Z" fill="#FF440B"/>
<path d="M83.5357 146.258C86.3842 145.961 87.9343 144.013 87.6367 141.165L87.3906 138.809C87.1246 136.263 85.6359 134.794 83.384 134.643L83.2594 133.45C83.1663 132.559 82.4314 131.992 81.5402 132.085L79.7102 132.276L79.8997 134.09L80.7431 134.002C81.0296 133.972 81.2053 134.115 81.2386 134.433L81.2835 134.863C79.1114 135.476 77.9585 137.221 78.2245 139.767L78.4706 142.122C78.7681 144.971 80.6872 146.556 83.5357 146.258ZM80.3151 139.452C80.1538 137.909 80.7871 136.732 82.5216 136.551C84.2084 136.375 85.1122 137.326 85.2801 138.933L85.5461 141.48C85.704 142.991 84.9468 144.213 83.3396 144.381C81.7801 144.543 80.7457 143.574 80.5811 141.998L80.3151 139.452Z" fill="#FF440B"/>
<path d="M75.7463 146.524L76.2481 139.31C76.4258 136.756 74.9588 135.018 72.1656 134.824C69.3723 134.629 67.6789 136.148 67.5013 138.701L66.9995 145.916L69.1064 146.063L69.6148 138.752C69.7092 137.395 70.5821 136.606 72.0346 136.707C73.4871 136.808 74.2422 137.711 74.1479 139.067L73.6394 146.378L75.7463 146.524Z" fill="#FF440B"/>
<path d="M61.8248 144.904L67.4048 134.709L65.2864 134.212L64.062 136.489L60.2612 135.597L60.1771 133.014L58.0586 132.517L58.5224 144.13L61.8248 144.904ZM63.1406 138.245L60.6691 142.826L60.4821 142.782L60.3056 137.58L63.1406 138.245Z" fill="#FF440B"/>
<path d="M53.6101 142.737L57.8183 132.358L54.2597 130.915C51.4721 129.785 49.4303 130.563 48.282 133.395L47.4884 135.352C46.3402 138.184 47.2638 140.164 50.0514 141.294L53.6101 142.737ZM52.3742 140.164L50.7432 139.503C49.0677 138.824 48.8084 137.717 49.4216 136.205L50.2633 134.129C50.8765 132.616 51.8331 132.003 53.5086 132.682L55.1397 133.344L52.3742 140.164Z" fill="#FF440B"/>
<path d="M38.7825 135.648L45.3378 126.567L43.6253 125.331L38.2313 132.804L38.0756 132.691L41.3939 123.72L38.3582 121.529L31.8029 130.61L33.5154 131.846L38.9094 124.374L39.0651 124.486L35.7468 133.457L38.7825 135.648Z" fill="#FF440B"/>
<path d="M29.3911 128.461L37.253 120.484L35.7488 119.001L32.4805 122.318L29.1302 119.016L27.7824 120.383L31.1327 123.685L29.2347 125.611L25.6564 122.084L24.3087 123.452L29.3911 128.461Z" fill="#FF440B"/>
<path d="M22.9955 122.011L24.5273 120.853L22.4822 118.147L29.8859 112.552L28.6125 110.867L21.2089 116.462L19.1638 113.756L17.632 114.913L22.9955 122.011Z" fill="#FF440B"/>
<path d="M15.0526 96.6615C16.2467 96.2987 16.9455 94.966 16.5874 93.7872C16.2386 92.6391 14.9685 91.8711 13.7132 92.2524C12.4884 92.6245 11.8063 93.9019 12.1784 95.1267C12.5504 96.3514 13.8585 97.0242 15.0526 96.6615Z" fill="#FF440B"/>
<path d="M5.81973 76.087L17.1396 75.4567L17.4839 72.034L8.54919 69.4146L8.56841 69.2236L17.8458 68.4361L18.1901 65.0134L7.22244 62.1413L7.01107 64.2427L15.9826 66.4959L15.9634 66.6869L6.68601 67.4744L6.35615 70.7539L15.2909 73.3732L15.2717 73.5642L6.0311 73.9856L5.81973 76.087Z" fill="#FF440B"/>
<path d="M8.0726 59.8148L18.9046 62.6622L19.4415 60.6196L8.60953 57.7722L8.0726 59.8148Z" fill="#FF440B"/>
<path d="M9.52328 54.4318L19.9946 58.4057L22.5833 51.5844L20.7882 50.9032L18.9489 55.7499L10.2727 52.4572L9.52328 54.4318Z" fill="#FF440B"/>
<path d="M13.1329 45.4078L22.8996 50.8898L24.7791 47.5412C26.2514 44.9182 25.737 42.7946 23.0721 41.2988L21.2304 40.2651C18.5655 38.7693 16.4848 39.4362 15.0125 42.0592L13.1329 45.4078ZM15.841 44.5059L16.7024 42.9711C17.5874 41.3945 18.7177 41.2767 20.1408 42.0755L22.0942 43.1719C23.5173 43.9707 24.0055 44.9969 23.1205 46.5736L22.259 48.1083L15.841 44.5059Z" fill="#FF440B"/>
<path d="M22.0428 31.6092L30.3549 39.1159L31.7704 37.5484L28.3149 34.4278L31.4677 30.9367L30.0428 29.6499L26.89 33.141L24.8832 31.3287L28.2505 27.6001L26.8256 26.3133L22.0428 31.6092Z" fill="#FF440B"/>
<path d="M31.2377 28.1078L32.7333 29.9438C34.5927 32.2263 37.016 32.4397 39.2364 30.6309C41.4569 28.822 41.7379 26.4056 39.8785 24.1231L38.3829 22.2872C36.5741 20.0667 34.1003 19.7912 31.8798 21.6001C29.6593 23.4089 29.4288 25.8874 31.2377 28.1078ZM32.8145 26.6995C31.8545 25.521 31.8193 24.0845 33.0722 23.0639C34.2879 22.0735 35.6844 22.3186 36.6849 23.5467L38.3017 25.5315C39.2819 26.7347 39.3962 28.0656 38.044 29.1671C36.7291 30.2383 35.452 29.9372 34.4314 28.6843L32.8145 26.6995Z" fill="#FF440B"/>
<path d="M37.1712 17.7035L42.5664 20.9003L42.6768 21.0953L42.6613 27.4657L44.6941 26.3148L44.7229 21.5916L44.9178 21.4813L48.9826 23.8869L51.0154 22.736L45.545 19.4714L45.4346 19.2765L45.4695 13.0054L43.4367 14.1563L43.3885 18.7801L43.1936 18.8905L39.204 16.5526L37.1712 17.7035Z" fill="#FF440B"/>
<path d="M56.9357 8.48696C54.842 9.07997 53.5349 10.7473 54.08 12.6716C54.6337 14.6267 56.1757 15.0214 58.5474 14.8818L58.6947 14.8733C60.1981 14.7801 61.0859 14.8612 61.3518 15.8003C61.5786 16.6008 61.159 17.4679 59.8505 17.8386C58.2187 18.3008 57.2115 17.6215 56.8365 16.2976L56.758 16.0205L54.7567 16.5874L54.8526 16.926C55.5677 19.4507 57.6623 20.3874 60.2947 19.6418C62.5885 18.9921 63.9374 17.2963 63.3226 15.1257C62.7688 13.1706 61.2379 12.7561 58.8816 12.8914L58.7343 12.8998C57.3584 12.9736 56.3516 13.0592 56.0638 12.0432C55.8545 11.3042 56.3639 10.5779 57.4415 10.2727C58.673 9.92389 59.6107 10.2403 59.9596 11.4719L60.0511 11.7952L62.0216 11.237L61.8908 10.7752C61.2804 8.61998 59.2448 7.83292 56.9357 8.48696Z" fill="#FF440B"/>
<path d="M68.4223 6.21551C65.5761 6.535 64.0411 8.49446 64.3606 11.3406L64.6248 13.6938C64.9104 16.2378 66.4103 17.6956 68.6633 17.8291L68.7972 19.0216C68.8971 19.912 69.6363 20.4731 70.5267 20.3731L72.3552 20.1679L72.1518 18.3552L71.3091 18.4498C71.0229 18.482 70.846 18.3408 70.8103 18.0228L70.7621 17.5935C72.9294 16.9638 74.0688 15.2098 73.7833 12.6657L73.5191 10.3125C73.1996 7.46639 71.2684 5.89602 68.4223 6.21551ZM71.6952 12.9967C71.8683 14.539 71.2441 15.72 69.511 15.9146C67.8256 16.1038 66.9146 15.1595 66.7343 13.5536L66.4487 11.0096C66.2792 9.49907 67.027 8.272 68.6329 8.09173C70.1911 7.91681 71.2329 8.8786 71.4096 10.4527L71.6952 12.9967Z" fill="#FF440B"/>
<path d="M76.0103 5.85473L75.592 13.0746C75.4439 15.6303 76.9308 17.3512 79.7261 17.5132C82.5214 17.6752 84.1972 16.1375 84.3453 13.5818L84.7636 6.36191L82.6551 6.23974L82.2313 13.5555C82.1526 14.9132 81.2889 15.7126 79.8353 15.6284C78.3818 15.5441 77.6162 14.6503 77.6949 13.2926L78.1187 5.97689L76.0103 5.85473Z" fill="#FF440B"/>
<path d="M89.9133 7.27759L84.4501 17.5357L86.5742 18.0084L87.7724 15.7181L91.5831 16.5663L91.6968 19.1486L93.8208 19.6214L93.2243 8.01455L89.9133 7.27759ZM88.6737 13.9517L91.0927 9.34317L91.2801 9.38489L91.5161 14.5844L88.6737 13.9517Z" fill="#FF440B"/>
<path d="M98.1684 9.3195L94.077 19.7454L97.6516 21.1482C100.452 22.2471 102.485 21.4464 103.601 18.6016L104.373 16.6356C105.489 13.7908 104.543 11.8211 101.743 10.7223L98.1684 9.3195ZM99.4331 11.8783L101.071 12.5213C102.754 13.1817 103.026 14.2853 102.43 15.8045L101.612 17.8896C101.015 19.4089 100.066 20.0331 98.3828 19.3726L96.7444 18.7297L99.4331 11.8783Z" fill="#FF440B"/>
<path d="M113.239 16.29L106.784 25.4425L108.51 26.6598L113.821 19.1286L113.978 19.2392L110.758 28.246L113.818 30.4039L120.273 21.2513L118.547 20.0341L113.236 27.5653L113.079 27.4546L116.299 18.4479L113.239 16.29Z" fill="#FF440B"/>
<path d="M122.713 23.3637L114.939 31.4259L116.459 32.8919L119.691 29.5404L123.077 32.8056L124.41 31.4235L121.024 28.1583L122.901 26.2118L126.517 29.6992L127.85 28.3171L122.713 23.3637Z" fill="#FF440B"/>
<path d="M129.201 29.7548L127.682 30.9291L129.757 33.6127L122.415 39.2884L123.707 40.9593L131.049 35.2836L133.123 37.9673L134.642 36.793L129.201 29.7548Z" fill="#FF440B"/>
<path d="M137.409 54.9124C136.219 55.2887 135.536 56.6292 135.907 57.8039C136.269 58.948 137.548 59.7016 138.799 59.306C140.019 58.9201 140.687 57.635 140.301 56.4146C139.915 55.1941 138.599 54.5362 137.409 54.9124Z" fill="#FF440B"/>
</svg>
