<svg width="854" height="854" viewBox="0 0 854 854" fill="none" xmlns="http://www.w3.org/2000/svg">
<g clip-path="url(#clip0_163_22)">
<path d="M682.355 854.379L681.928 854.99C681.928 854.786 681.928 854.582 681.928 854.379H177.04C182.862 767.688 216.479 690.906 266.642 638.045C308.371 594.074 361.581 566.649 419.818 563.844L422.73 563.737C425.059 563.65 427.388 563.611 429.736 563.611C490.312 563.611 545.909 590.24 589.512 634.658C641.47 687.596 676.406 765.815 682.355 854.379Z" fill="#D33137"/>
<path d="M663.713 854.379H194.576C206.823 696.942 307.149 574.16 429.145 574.16C551.141 574.16 651.466 696.942 663.713 854.379Z" fill="#A60D12"/>
<path d="M681.938 857.416C681.314 857.417 680.714 857.177 680.262 856.747C679.81 856.317 679.541 855.73 679.511 855.106V854.495C668.555 692.779 558.641 566.057 429.241 566.057C427.174 566.057 425.058 566.057 422.778 566.163L419.925 566.27C293.27 572.093 189.694 696 178.999 854.495C178.978 854.814 178.894 855.125 178.752 855.411C178.61 855.697 178.413 855.952 178.172 856.162C177.932 856.372 177.652 856.533 177.349 856.635C177.047 856.737 176.727 856.778 176.408 856.756C176.09 856.735 175.779 856.65 175.492 856.508C175.206 856.366 174.951 856.17 174.741 855.929C174.531 855.688 174.371 855.409 174.269 855.106C174.167 854.803 174.126 854.484 174.147 854.165C185.007 693.157 290.602 567.289 419.672 561.369L422.584 561.262C424.913 561.195 427.077 561.156 429.202 561.156C493.873 561.156 555.604 591.395 603.02 646.303C650.048 700.746 678.9 774.568 684.276 854.165V854.825C684.292 855.144 684.245 855.462 684.137 855.763C684.029 856.063 683.863 856.339 683.649 856.575C683.434 856.812 683.175 857.003 682.887 857.139C682.598 857.275 682.285 857.353 681.967 857.368L681.938 857.416Z" fill="#0A0A0A"/>
<path d="M545.966 712.372C533.079 755.47 479.403 831.126 428.697 831.951C377.99 832.776 320.404 761.215 306.274 719.107C303.485 710.29 302.583 700.986 303.624 691.798C306.963 656.338 332 621.431 332 621.431L516.076 605.505C516.076 605.505 544.491 647.905 548.014 686.927C548.956 695.461 548.261 704.097 545.966 712.372Z" fill="#EFE0C5"/>
<path d="M548.015 686.897C547.677 690.488 546.991 694.037 545.967 697.495C533.08 740.583 479.404 816.24 428.698 817.065C377.991 817.889 320.405 746.338 306.275 704.201C304.939 700.166 304.051 695.998 303.625 691.769C306.964 656.309 332.002 621.402 332.002 621.402L516.077 605.476C516.077 605.476 544.492 647.876 548.015 686.897Z" fill="#FCF4E3"/>
<path d="M604.262 854.379H574.983C600.884 805.264 597.08 760.128 597.08 760.128C608.26 777.509 605.378 834.873 604.262 854.379Z" fill="#7C0009"/>
<path d="M255.335 854.379H284.613C258.712 805.264 261.167 760.128 261.167 760.128C249.987 777.509 254.257 834.873 255.335 854.379Z" fill="#7C0009"/>
<path d="M266.457 854.379H242.613C240.672 795.365 251.347 769.173 257.781 758.847C258.004 758.486 258.346 758.213 258.749 758.077C259.151 757.941 259.588 757.95 259.985 758.102C260.382 758.253 260.713 758.539 260.922 758.909C261.131 759.279 261.204 759.71 261.129 760.128C254.006 802.207 262.264 839.443 266.457 854.379Z" fill="#D33137"/>
<path d="M615.597 854.379H591.792C595.984 839.443 604.252 802.207 597.08 760.128C597.005 759.71 597.079 759.279 597.287 758.909C597.496 758.539 597.828 758.253 598.224 758.102C598.621 757.95 599.058 757.941 599.461 758.077C599.863 758.213 600.205 758.486 600.429 758.847C606.921 769.173 617.586 795.365 615.597 854.379Z" fill="#D33137"/>
<path d="M351.992 730.878C351.992 730.878 332.02 753.849 372.197 772.744C372.197 772.744 351.022 754.82 351.992 730.878Z" fill="#EFE0C5"/>
<path d="M379.174 753.665C379.174 753.665 355.359 776.432 403.95 795.773C403.95 795.773 378.252 777.606 379.174 753.665Z" fill="#EFE0C5"/>
<path d="M366.094 742.679C366.094 742.679 332.866 762.37 385.833 781.925C385.833 781.925 365.201 766.659 366.094 742.679Z" fill="#EFE0C5"/>
<path d="M394.625 766.941C394.625 766.941 357.272 786.787 412.53 798.471C412.53 798.471 397.197 790.765 394.625 766.941Z" fill="#EFE0C5"/>
<path d="M497.784 731.121C497.784 731.121 517.766 754.092 477.589 772.977C477.589 772.977 498.813 755.062 497.784 731.121Z" fill="#EFE0C5"/>
<path d="M468.622 758.08C468.622 758.08 498.706 775.626 450.077 794.958C450.077 794.958 469.554 782.021 468.622 758.08Z" fill="#EFE0C5"/>
<path d="M478.851 744.426C478.851 744.426 512.109 764.117 459.112 783.662C473.329 765.543 483.762 775.685 478.851 744.426Z" fill="#EFE0C5"/>
<path d="M455.055 772.23C455.055 772.23 475.725 799.17 428.668 796.831C428.668 796.831 445.758 794.308 455.055 772.23Z" fill="#EFE0C5"/>
<path d="M223.831 811.125C224.52 806.329 223.779 802.255 222.177 802.025C220.575 801.795 218.718 805.496 218.029 810.292C217.341 815.088 218.082 819.163 219.684 819.393C221.286 819.623 223.143 815.921 223.831 811.125Z" fill="#7C0009"/>
<path d="M221.438 843.088C223.053 842.991 224.129 838.992 223.84 834.155C223.551 829.319 222.007 825.476 220.391 825.573C218.775 825.67 217.7 829.669 217.989 834.505C218.278 839.342 219.822 843.184 221.438 843.088Z" fill="#7C0009"/>
<path d="M234.48 800.25C235.168 795.454 234.337 791.366 232.624 791.12C230.91 790.874 228.963 794.563 228.274 799.359C227.586 804.155 228.416 808.242 230.13 808.488C231.844 808.734 233.791 805.045 234.48 800.25Z" fill="#7C0009"/>
<path d="M229.22 830.904C230.951 830.904 232.355 826.976 232.355 822.131C232.355 817.285 230.951 813.358 229.22 813.358C227.489 813.358 226.085 817.285 226.085 822.131C226.085 826.976 227.489 830.904 229.22 830.904Z" fill="#7C0009"/>
<path d="M634.303 815.976C635.906 815.749 636.655 811.677 635.976 806.88C635.298 802.083 633.449 798.379 631.847 798.605C630.244 798.832 629.495 802.904 630.174 807.701C630.852 812.497 632.701 816.202 634.303 815.976Z" fill="#7C0009"/>
<path d="M636.624 830.984C636.913 826.147 635.838 822.148 634.222 822.052C632.606 821.955 631.062 825.798 630.773 830.634C630.484 835.471 631.559 839.47 633.175 839.566C634.791 839.663 636.335 835.821 636.624 830.984Z" fill="#7C0009"/>
<path d="M624.547 803.633C626.261 803.387 627.092 799.3 626.403 794.504C625.715 789.708 623.768 786.02 622.054 786.266C620.34 786.512 619.509 790.599 620.198 795.395C620.886 800.191 622.834 803.88 624.547 803.633Z" fill="#7C0009"/>
<path d="M625.408 827.4C627.139 827.4 628.543 823.472 628.543 818.627C628.543 813.782 627.139 809.854 625.408 809.854C623.677 809.854 622.273 813.782 622.273 818.627C622.273 823.472 623.677 827.4 625.408 827.4Z" fill="#7C0009"/>
<g opacity="0.15">
<path opacity="0.15" d="M589.473 634.678L551.625 659.046C548.254 661.394 544.751 663.659 541.115 665.839L540.96 665.936C510.216 684.132 469.826 695.176 425.583 695.176C404.426 695.237 383.346 692.628 362.843 687.412C344.384 682.758 326.669 675.538 310.215 665.965C306.886 664.024 303.684 661.957 300.598 659.832L266.632 638.132C308.361 594.161 361.571 566.736 419.808 563.931L422.72 563.825C425.049 563.737 427.378 563.698 429.726 563.698C490.273 563.611 545.87 590.24 589.473 634.678Z" fill="#0A0A0A"/>
</g>
<path d="M729.985 496.64C735.376 500.371 741.007 503.743 746.842 506.732L739.651 512.041C737.264 513.778 734.877 515.515 732.47 517.223C730.063 518.931 727.336 520.823 724.706 522.56C724.347 522.803 723.959 523.065 723.561 523.317C713.274 530.111 691.313 544.435 666.13 560.738L628.282 585.213C598.052 604.739 568.939 623.488 553.712 633.299C550.244 635.719 546.637 638.035 542.892 640.248C542.843 640.288 542.791 640.324 542.736 640.354V640.354C511.07 659.094 467.866 673.874 422.313 673.874C399.546 673.874 381.059 669.565 361.009 664.383C340.959 659.201 320.978 649.729 305.14 640.354C301.724 638.336 298.424 636.23 295.241 634.037C280.393 624.555 250.756 605.622 219.827 585.805C183.222 562.369 144.83 537.68 127.003 525.977L126.324 525.53C124.616 524.404 123.112 523.414 121.84 522.56C119.23 520.823 116.648 519.028 114.077 517.223C111.67 515.515 109.292 513.778 106.915 512.041C104.537 510.304 102.063 508.499 99.714 506.723C105.547 503.733 111.178 500.365 116.571 496.64L114.086 494.932C111.68 493.224 109.302 491.487 106.925 489.749C104.547 488.012 98.6562 483.422 96.2495 481.646C118.774 476.299 157.747 434.249 185.425 401.186C189.413 396.411 193.188 391.821 196.614 387.599C206.221 375.702 213.335 366.337 216.139 362.494C227.135 346.908 237.489 333.167 247.048 321.123C250.717 316.497 254.275 312.121 257.723 307.993C294.892 263.236 317.892 246.554 317.892 246.554C335.36 232.171 358.224 221.118 384.31 214.936C424.273 201.786 477.298 214.179 477.298 214.179C497.872 218.682 516.534 226.193 532.255 235.976C532.255 235.976 575.47 253.133 634.328 361.3C639.646 370.733 644.948 379.506 650.234 387.619C653.468 392.646 656.703 397.437 659.938 401.991C697.058 454.532 730.781 476.328 746.852 484.48L739.661 489.788C737.274 491.525 734.886 493.263 732.48 494.971L729.985 496.64Z" fill="#A60D12"/>
<path d="M676.64 544.58C676.641 547.176 676.479 549.769 676.155 552.344C667.537 558.07 649.157 570.016 628.079 583.67L596.393 604.156C571.084 620.499 546.716 636.181 533.974 644.401C531.069 646.426 528.048 648.367 524.91 650.224L524.784 650.311C498.28 665.994 463.47 675.543 425.341 675.543C407.106 675.59 388.937 673.334 371.267 668.828C355.361 664.83 340.092 658.624 325.908 650.389C323.042 648.7 320.28 646.937 317.621 645.1C305.189 637.162 280.384 621.314 254.541 604.729C223.904 585.106 191.762 564.445 176.846 554.644L176.274 554.275C175.617 550.269 175.555 546.188 176.089 542.164C176.089 542.164 176.089 542.164 176.089 542.115C176.176 539.936 176.377 537.762 176.691 535.603C176.779 535.021 176.866 534.439 176.973 533.857C177.031 533.507 177.099 533.158 177.167 532.809C179.542 520.574 185.536 509.334 194.372 500.544C203.208 491.754 214.479 485.819 226.726 483.508C238.973 481.196 251.632 482.614 263.064 487.579C274.496 492.543 284.174 500.825 290.846 511.352C301.453 516.204 319.959 521.561 349.723 521.134C351.15 521.299 352.751 521.513 354.498 521.794C354.498 521.794 364.406 524.23 375.042 534.167C387.328 545.628 425.584 541.63 425.584 541.63C425.584 541.63 457.026 545.434 469.972 537.554C479.172 531.955 483.384 527.85 494.699 526.937L499.494 526.539C511.139 527.723 542.844 528.81 563.272 509.256C570.299 499.117 580.181 491.295 591.662 486.783C603.143 482.271 615.706 481.272 627.756 483.914C639.806 486.555 650.799 492.717 659.341 501.618C667.882 510.519 673.586 521.757 675.728 533.905C675.993 535.4 676.197 536.914 676.339 538.447C676.542 540.485 676.643 542.532 676.64 544.58Z" fill="#FFFCF8"/>
<path d="M676.406 538.379L676.309 538.447L668.381 543.61L630.533 568.085C600.303 587.61 571.19 606.359 555.963 616.171C552.502 618.59 548.895 620.906 545.143 623.119C545.094 623.16 545.042 623.195 544.987 623.226V623.226C513.321 641.965 471.737 653.31 426.184 653.31C404.404 653.386 382.701 650.712 361.591 645.352C342.584 640.563 324.343 633.131 307.401 623.274C303.985 621.256 300.685 619.15 297.502 616.957C282.654 607.475 253.016 588.542 222.088 568.725C206.561 558.778 190.713 548.617 176.253 539.311C176.36 537.923 176.515 536.554 176.71 535.196C176.777 534.74 176.845 534.284 176.923 533.827C177.001 533.371 177.049 533.129 177.117 532.779C179.419 520.496 185.366 509.19 194.184 500.334C203.002 491.477 214.281 485.481 226.555 483.125C238.828 480.769 251.526 482.163 262.996 487.124C274.466 492.086 284.177 500.386 290.864 510.944C300.646 515.428 317.066 520.309 342.929 520.717C343.817 520.649 344.709 520.649 345.598 520.717C346.685 520.785 348.063 520.901 349.664 521.076C351.091 521.241 352.692 521.454 354.439 521.736C354.439 521.736 364.347 524.171 374.983 534.109C387.269 545.57 425.524 541.572 425.524 541.572C425.524 541.572 456.967 545.376 469.913 537.496C479.113 531.896 483.325 527.791 494.64 526.879L499.434 526.481L501.928 526.316C506.408 526.059 510.901 526.137 515.369 526.549C529.926 525.938 549.238 522.25 563.28 508.819C570.308 498.663 580.198 490.827 591.692 486.309C603.186 481.79 615.765 480.793 627.827 483.444C639.89 486.095 650.891 492.275 659.431 501.197C667.971 510.119 673.664 521.379 675.785 533.546C676.076 535.118 676.29 536.739 676.406 538.379Z" fill="#FCF4E3"/>
<path d="M423.06 676.407C400.002 676.407 381.331 672.069 361.029 666.819C343.289 662.228 323.181 653.582 304.412 642.48C300.967 640.442 297.619 638.287 294.388 636.084C279.365 626.496 249.65 607.504 219.003 587.872C175.652 560.069 141.784 538.263 126.159 527.995L125.674 527.675L125.063 527.277C123.51 526.255 122.145 525.352 120.967 524.569C118.056 522.628 115.28 520.688 113.204 519.193C110.778 517.475 108.351 515.729 105.993 513.982L99.2874 509.023L94.9883 505.84L99.2 503.714C103.668 501.432 108.012 498.915 112.214 496.174C110.127 494.679 108.06 493.166 105.993 491.661C104.693 490.691 102.422 488.963 100.229 487.285C98.2878 485.809 96.4342 484.373 95.3182 483.548L90.2524 479.822L96.3372 478.376C128.149 470.835 198.73 381.961 214.529 360.33C274.251 275.609 314.272 245.641 316.824 243.778C334.807 228.959 358.098 217.857 384.242 211.656C424.496 198.458 476.484 210.356 478.687 210.87C499.28 215.373 518.009 222.787 534.313 232.899C538.37 234.636 580.623 254.715 637.608 359.437C684.345 442.382 731.014 472.369 748.91 481.404L753.131 483.539L742 491.749C739.962 493.224 737.934 494.66 735.876 496.174C740.082 498.922 744.433 501.443 748.91 503.724L753.131 505.859L742 514.069C739.639 515.784 737.274 517.488 734.906 519.183C732.169 521.124 729.607 522.9 727.142 524.569C726.774 524.822 726.366 525.093 725.939 525.365C716.855 531.401 698.068 543.649 668.527 562.767L641.257 580.409L630.669 587.203C604.865 603.865 579.876 619.965 563.64 630.427L556.148 635.279C552.626 637.724 548.986 640.063 545.308 642.237C545.175 642.338 545.032 642.426 544.881 642.499C508.421 664.043 464.052 676.407 423.06 676.407ZM105.925 506.723L109.4 509.285C111.758 511.012 114.126 512.74 116.523 514.438C118.609 515.903 121.375 517.834 124.209 519.727C125.373 520.513 126.732 521.406 128.265 522.415L128.818 522.784L129.42 523.182C144.947 533.381 178.787 555.207 222.147 582.942C252.813 602.594 282.558 621.595 297.561 631.174L297.648 631.232C300.754 633.367 304.024 635.463 307.353 637.433C325.665 648.273 345.201 656.697 362.475 661.151C382.369 666.295 400.662 670.555 423.041 670.555C463.053 670.555 506.383 658.492 541.931 637.472L542.154 637.327C545.764 635.201 549.336 632.901 552.829 630.533L552.917 630.475L560.457 625.623C576.693 615.161 601.682 599.062 627.486 582.399L638.064 575.557L665.334 557.924C694.846 538.816 713.624 526.578 722.736 520.523C723.163 520.251 723.532 520.008 723.862 519.775C726.356 518.126 728.86 516.389 731.558 514.477C733.919 512.795 736.265 511.1 738.594 509.392L742.155 506.771C737.914 504.423 733.547 501.715 729.103 498.678L725.628 496.3L729.51 493.554C730.18 493.098 730.84 492.583 731.509 492.156C733.871 490.474 736.216 488.779 738.545 487.071L742.116 484.441C721.388 472.951 676.805 440.945 632.455 362.29C575.004 256.705 532.256 238.411 531.838 238.237L531.382 238.004C515.593 228.183 497.416 220.972 477.338 216.586C476.775 216.45 424.584 204.523 385.882 217.265L385.649 217.333C360.33 223.331 337.767 234.064 320.405 248.388L320.27 248.494C319.862 248.795 279.006 278.996 219.216 363.765C218.449 364.823 143.822 465.216 103.121 482.248L103.703 482.685C105.867 484.354 108.119 486.072 109.37 486.993C111.729 488.721 114.097 490.448 116.494 492.147C117.134 492.603 117.784 493.049 118.434 493.505L122.413 496.281L118.939 498.658C114.514 501.725 110.156 504.384 105.925 506.723Z" fill="#0A0A0A"/>
<path d="M186.883 453.319C189.634 450.293 190.894 446.958 189.696 445.869C188.499 444.78 185.298 446.35 182.546 449.376C179.795 452.401 178.536 455.737 179.733 456.826C180.931 457.915 184.132 456.345 186.883 453.319Z" fill="#7C0009"/>
<path d="M185.537 439.296C187.872 435.939 188.689 432.468 187.36 431.544C186.031 430.619 183.061 432.591 180.725 435.948C178.39 439.305 177.573 442.775 178.902 443.7C180.23 444.624 183.201 442.652 185.537 439.296Z" fill="#7C0009"/>
<path d="M199.25 435.626C201.453 432.181 202.134 428.681 200.771 427.809C199.407 426.937 196.515 429.023 194.312 432.468C192.109 435.913 191.428 439.413 192.792 440.285C194.155 441.157 197.047 439.071 199.25 435.626Z" fill="#7C0009"/>
<path d="M171.12 468.308C174.42 465.503 176.245 462.23 175.196 460.997C174.148 459.763 170.623 461.038 167.324 463.843C164.024 466.648 162.2 469.921 163.248 471.155C164.296 472.388 167.821 471.113 171.12 468.308Z" fill="#7C0009"/>
<path d="M172.139 454.377C174.857 451.387 176.023 448.019 174.742 446.854C173.461 445.69 170.219 447.169 167.5 450.159C164.782 453.149 163.616 456.517 164.897 457.682C166.178 458.846 169.42 457.367 172.139 454.377Z" fill="#7C0009"/>
<path d="M687.577 469.002C688.683 467.82 687.159 464.597 684.173 461.803C681.187 459.008 677.87 457.701 676.764 458.883C675.658 460.065 677.182 463.288 680.168 466.083C683.154 468.877 686.471 470.184 687.577 469.002Z" fill="#7C0009"/>
<path d="M687.361 455.936C688.611 454.907 687.518 451.514 684.92 448.356C682.321 445.198 679.201 443.472 677.952 444.5C676.702 445.529 677.795 448.922 680.393 452.08C682.992 455.238 686.111 456.964 687.361 455.936Z" fill="#7C0009"/>
<path d="M673.236 453.659C674.525 452.68 673.565 449.246 671.091 445.99C668.618 442.734 665.568 440.887 664.279 441.866C662.99 442.845 663.95 446.279 666.424 449.536C668.897 452.792 671.947 454.638 673.236 453.659Z" fill="#7C0009"/>
<path d="M705.135 481.934C706.08 480.62 703.998 477.504 700.483 474.974C696.969 472.444 693.353 471.458 692.407 472.772C691.461 474.085 693.544 477.201 697.059 479.731C700.573 482.262 704.189 483.248 705.135 481.934Z" fill="#7C0009"/>
<path d="M702.421 468.66C703.603 467.396 702.17 464.133 699.22 461.372C696.269 458.61 692.918 457.397 691.735 458.661C690.552 459.925 691.985 463.188 694.936 465.949C697.887 468.71 701.238 469.924 702.421 468.66Z" fill="#7C0009"/>
<path d="M330.201 288.663C334.132 285.83 336.583 282.514 335.677 281.258C334.772 280.001 330.851 281.28 326.921 284.113C322.991 286.947 320.539 290.262 321.445 291.519C322.351 292.775 326.271 291.497 330.201 288.663Z" fill="#7C0009"/>
<path d="M313.579 287.389C317.509 284.555 320.007 281.303 319.157 280.125C318.308 278.946 314.433 280.288 310.503 283.122C306.573 285.955 304.075 289.208 304.925 290.386C305.774 291.564 309.649 290.222 313.579 287.389Z" fill="#7C0009"/>
<path d="M336.171 273.811C340.367 271.388 343.136 268.33 342.356 266.979C341.576 265.628 337.543 266.497 333.347 268.92C329.151 271.342 326.381 274.401 327.161 275.752C327.941 277.103 331.975 276.234 336.171 273.811Z" fill="#7C0009"/>
<path d="M549.082 266.376C550.294 264.93 548.265 261.235 544.552 258.123C540.838 255.011 536.845 253.661 535.633 255.107C534.422 256.553 536.45 260.248 540.164 263.36C543.878 266.471 547.87 267.822 549.082 266.376Z" fill="#7C0009"/>
<path d="M243.986 556.342C245.063 554.794 242.713 551.295 238.736 548.528C234.758 545.76 230.661 544.772 229.583 546.321C228.506 547.87 230.856 551.368 234.834 554.136C238.811 556.903 242.908 557.891 243.986 556.342Z" fill="white"/>
<path d="M223.618 542.899C224.829 541.453 222.801 537.758 219.087 534.647C215.374 531.535 211.381 530.184 210.169 531.63C208.957 533.077 210.986 536.771 214.699 539.883C218.413 542.995 222.406 544.345 223.618 542.899Z" fill="white"/>
<path d="M227.617 558.279C228.828 556.833 226.8 553.138 223.086 550.026C219.373 546.915 215.38 545.564 214.168 547.01C212.956 548.456 214.985 552.151 218.698 555.263C222.412 558.375 226.405 559.725 227.617 558.279Z" fill="white"/>
<path d="M208.379 544.65C209.59 543.204 207.562 539.509 203.848 536.397C200.134 533.286 196.141 531.935 194.93 533.381C193.718 534.827 195.746 538.522 199.46 541.634C203.174 544.746 207.167 546.096 208.379 544.65Z" fill="white"/>
<path d="M249.41 569.026C250.314 567.369 247.598 564.146 243.344 561.826C239.091 559.506 234.91 558.968 234.007 560.624C233.103 562.28 235.819 565.504 240.073 567.824C244.326 570.144 248.507 570.682 249.41 569.026Z" fill="white"/>
<path d="M619.612 553.496C623.541 550.661 625.831 547.122 624.726 545.592C623.622 544.062 619.542 545.121 615.614 547.956C611.685 550.792 609.395 554.331 610.499 555.86C611.603 557.39 615.683 556.332 619.612 553.496Z" fill="white"/>
<path d="M639.463 539.631C643.391 536.795 645.681 533.256 644.577 531.727C643.473 530.197 639.393 531.256 635.464 534.091C631.535 536.927 629.246 540.465 630.35 541.995C631.454 543.525 635.534 542.466 639.463 539.631Z" fill="white"/>
<path d="M635.928 552.202C639.853 549.344 642.132 545.788 641.019 544.259C639.905 542.731 635.822 543.81 631.897 546.668C627.972 549.527 625.693 553.083 626.806 554.611C627.92 556.14 632.003 555.061 635.928 552.202Z" fill="white"/>
<path d="M653.697 541.845C657.411 538.733 659.439 535.038 658.228 533.592C657.016 532.146 653.023 533.496 649.309 536.608C645.596 539.72 643.567 543.415 644.779 544.861C645.991 546.307 649.983 544.957 653.697 541.845Z" fill="white"/>
<path d="M613.931 568.327C618.184 566.007 620.9 562.783 619.997 561.127C619.093 559.471 614.913 560.009 610.659 562.329C606.406 564.649 603.69 567.872 604.593 569.529C605.497 571.185 609.677 570.647 613.931 568.327Z" fill="white"/>
<path d="M206.43 203.922C207.691 208.866 209.256 213.728 211.117 218.479C213.933 225.652 217.365 232.568 221.375 239.149C252.983 291.117 290.083 297.551 290.083 297.551L309.803 287.303L342.798 270.155C342.798 270.155 350.358 254.347 349.126 229.746C347.893 205.145 320.274 177.622 316.819 146.811C315.767 137.956 316.013 128.995 317.547 120.21C320.633 103.004 327.931 93.7655 327.931 93.7655C327.931 93.7655 311.763 91.8246 300.554 101.83C300.03 102.286 299.526 102.8 299.031 103.286C298.718 97.0918 298.955 90.8825 299.739 84.7306C301.272 71.61 305.562 53.7634 316.819 38.7407C316.819 38.7407 288.977 45.1845 268.209 81.2854C263.856 88.9218 260.229 96.9504 257.379 105.265C256.932 106.527 256.505 107.798 256.088 109.147C249.814 105.226 244.977 99.3808 242.298 92.4845C242.298 92.4845 232.535 110.302 228.556 129.362C227.084 135.795 226.61 142.417 227.149 148.994C227.198 149.421 227.236 149.829 227.304 150.246C227.311 150.348 227.327 150.448 227.353 150.547C227.411 151.081 227.508 151.605 227.605 152.138C227.862 153.524 228.206 154.891 228.634 156.234C228.634 156.234 213.107 153.06 207.779 140.765C207.73 140.735 197.23 167.899 206.43 203.922Z" fill="#FCF4E3"/>
<path d="M206.431 203.922C215.903 195.081 226.306 183.911 227.034 176.895C228.392 163.813 233.274 160.29 233.274 160.29L227.315 150.547C227.373 151.081 227.47 151.605 227.567 152.138C227.824 153.524 228.168 154.891 228.596 156.234C228.596 156.234 213.069 153.06 207.741 140.765C207.731 140.736 197.231 167.899 206.431 203.922Z" fill="#EFE0C5"/>
<path d="M268.16 81.2854C277.864 74.599 290.131 69.902 291.286 69.4652C291.303 69.4502 291.326 69.442 291.349 69.442C291.372 69.442 291.394 69.4502 291.412 69.4652L299.69 84.682C301.223 71.5614 305.512 53.7148 316.77 38.6921C316.77 38.7407 288.927 45.1845 268.16 81.2854Z" fill="#EFE0C5"/>
<path d="M298.06 107.526C302.582 105.586 312.277 104.149 312.277 104.149C312.277 104.149 314.645 119.434 314.859 120.016L317.498 120.21C320.584 103.004 327.882 93.7654 327.882 93.7654C327.882 93.7654 311.714 91.8245 300.506 101.83L298.06 107.526Z" fill="#EFE0C5"/>
<path d="M228.508 129.333C237.349 111.603 244.132 110.118 244.132 110.118C249.091 112.893 257.806 113.621 257.806 113.621L257.33 105.266C256.884 106.527 256.457 107.798 256.04 109.147C249.766 105.226 244.929 99.3809 242.249 92.4846C242.249 92.4846 232.487 110.263 228.508 129.333Z" fill="#EFE0C5"/>
<path d="M215.136 227.678C222.899 255.744 264.037 285.12 264.037 285.566C264.037 285.809 277.429 292.893 287.59 298.308C287.59 298.308 288.191 298.046 288.22 298.046C300.963 290.845 298.711 304.344 298.711 304.344C298.711 304.344 315.092 302.112 328.892 290.894C337.141 284.325 343.041 275.262 345.71 265.06C354.765 230.929 347.884 196.847 321.575 173.576C293.131 148.392 302.166 131.341 302.166 131.341C286.076 130.536 275.964 144.559 275.964 144.559C270.374 140.803 266.793 133.981 264.813 129.032C264.029 127.134 263.364 125.19 262.824 123.209C232.662 134.719 240.988 182.659 240.988 182.659C236.066 180.699 231.611 177.723 227.916 173.925C226.123 172.166 224.498 170.243 223.064 168.18C199.861 184.241 215.136 227.678 215.136 227.678Z" fill="#7C0009"/>
<path d="M230.603 218.556C231.089 220.08 231.574 221.574 232.127 223.069C248.625 269.127 290.083 297.114 290.083 297.551C290.083 297.551 291.189 296.852 291.208 296.852C296.594 299.764 297.516 305.247 298.506 305.489H298.71C298.71 305.489 318.236 303.354 332.035 292.136C339.226 286.313 341.847 275.891 344.952 264.197C345.263 263.022 345.564 261.848 345.835 260.674C353.599 227.785 346.951 196.003 321.574 173.537C293.13 148.353 302.165 131.303 302.165 131.303C298.511 131.129 294.86 131.697 291.432 132.972C289.735 133.6 288.095 134.373 286.531 135.281C282.448 137.666 278.853 140.801 275.933 144.52C273.903 143.11 272.105 141.391 270.606 139.425L270.489 139.28C268.137 136.134 266.218 132.688 264.783 129.032C263.998 127.134 263.334 125.19 262.793 123.209C257.512 125.184 252.891 128.604 249.459 133.079C235.815 150.731 240.725 181.145 240.939 182.572C240.941 182.588 240.941 182.604 240.939 182.62C236.016 180.66 231.562 177.684 227.867 173.886C221.646 193.062 230.603 218.556 230.603 218.556Z" fill="#D33137"/>
<path d="M228.507 220.847C228.992 222.361 229.478 223.865 230.031 225.359C246.286 271.301 283.755 295.475 283.755 295.911L290.083 297.551C295.469 300.463 297.574 307.013 298.564 307.256C304.387 305.228 316.77 305.15 322.408 300.569C329.599 294.747 343.05 287.313 344.729 275.338C345.412 270.478 345.787 265.581 345.855 260.674C346.32 222.477 326.445 197.1 306.066 177.215C288.947 160.416 289.238 143.006 291.412 133.001C289.715 133.63 288.076 134.402 286.511 135.311C282.429 137.696 278.833 140.83 275.914 144.549C273.883 143.139 272.085 141.42 270.586 139.455L270.47 139.309C268.118 136.164 266.199 132.717 264.763 129.061C263.979 127.164 263.314 125.219 262.774 123.238C257.503 125.209 252.89 128.618 249.459 133.079C235.815 150.731 240.725 181.145 240.939 182.572C240.941 182.588 240.941 182.604 240.939 182.62C236.016 180.66 231.562 177.684 227.867 173.886C221.646 193.062 228.507 220.847 228.507 220.847Z" fill="#A60D12"/>
<path d="M363.92 223.69C363.92 223.69 362.033 248.631 342.75 270.155C348.186 255.71 351.187 244.442 350.62 229.018L363.92 223.69Z" fill="#7C0009"/>
<path d="M290.084 297.551C283.29 302.792 276.298 302.171 265.419 303.753C269.301 299.385 272.212 295.989 275.123 292.592C279.314 294.064 285.725 296.697 290.084 297.551Z" fill="#7C0009"/>
<path d="M342.798 270.146C344.93 262.744 346.168 255.114 346.486 247.418C346.739 239.964 346.797 232.376 345.186 225.097C341.43 210.54 332.327 197.75 325.359 184.338C318.751 171.936 312.918 158.553 312.093 144.287C310.832 126.15 314.296 106.673 325.68 92.0187L327.621 96.7156C318.207 96.0169 307.882 98.4334 301.156 105.372L296.556 110.059L296.158 103.577C295.289 85.9774 298.507 68.4158 305.562 52.2688C307.967 46.8792 310.941 41.7618 314.432 37.0036L317.421 41.5841C317.101 41.6618 316.616 41.8073 316.189 41.9432C309.349 44.2987 302.933 47.7393 297.187 52.133C277.167 67.0294 264.793 89.9031 257.69 113.437C249.405 109.233 242.941 102.148 239.513 93.5132L244.773 93.8431C242.253 98.6583 239.986 103.601 237.98 108.652C232.497 122.918 226.936 140.25 231.361 155.292L232.924 160.145C229.178 159.3 224.49 158.369 221.065 156.709C214.272 153.798 208.061 148.819 205.062 141.89L210.448 141.774C209.904 143.501 209.39 145.51 209.002 147.335C202.694 176.274 207.847 207.076 222.035 233.006C231.662 250.319 243.822 266.594 259.068 279.404C268.248 287.109 278.661 293.844 290.122 297.561C277.914 295.62 266.628 289.7 256.554 282.713C233.914 266.526 214.33 240.159 205.372 213.811C196.57 187.861 196.308 158.369 207.692 133.166L210.438 139.6C213.718 147.014 221.618 151.459 229.217 153.371L225.868 157.126C224.163 151.428 223.574 145.454 224.131 139.532C225.655 122.365 231.895 106.294 239.727 91.0676L242.57 85.701L244.948 91.349C247.133 96.8476 250.764 101.653 255.458 105.256C256.03 105.663 256.826 106.226 257.398 106.556L253.235 108.225C260.737 84.8276 273.722 62.3227 293.703 47.4651C299.964 42.6792 306.958 38.9368 314.413 36.3825C316.218 35.7711 322.118 34.4416 323.884 33.9661L319.032 40.4972C305.931 58.2662 301.04 81.2563 301.826 103.072L296.828 101.277C302.796 95.0465 311.259 91.7954 319.692 90.9609C323.884 90.4077 328.562 90.9026 332.793 91.2423L330.183 95.5802C321.225 110.661 319.187 129.061 321.216 146.257C323.846 166.2 335.355 182.979 343.876 200.913C347.243 208.046 350.436 215.567 351.698 223.845C353.27 238.926 350.087 256.899 342.769 270.146H342.798Z" fill="#0A0A0A"/>
<path d="M306.252 278.297C308.684 279.293 311.4 279.348 313.87 278.451C316.34 277.554 318.388 275.769 319.615 273.445C319.818 273.005 319.99 272.551 320.129 272.086C323.206 261.605 326.447 245.05 320.537 234.52C312.967 221.021 294.907 202.495 286.823 176.293C284.992 170.441 283.772 164.414 283.184 158.31C283.184 158.31 271.995 179.214 275.556 197.847C275.663 198.429 275.789 199.001 275.925 199.574C271.207 197.73 266.811 195.149 262.902 191.927C259.573 189.074 256.642 185.444 255.604 181.058C255.604 181.067 242.842 252.988 306.252 278.297Z" fill="#EFE0C5"/>
<path d="M262.9 191.937C263.181 214.723 270.343 255.016 314.577 272.717C316.175 273.354 317.901 273.6 319.613 273.435C319.816 272.995 319.988 272.541 320.128 272.077C323.204 261.596 326.445 245.04 320.535 234.51C312.966 221.011 294.905 202.485 286.822 176.283C282.833 185.464 279.33 196.372 280.533 204.475C280.533 204.475 278.359 201.806 275.555 197.818C275.661 198.4 275.788 198.972 275.923 199.545C271.208 197.713 266.812 195.145 262.9 191.937V191.937Z" fill="#FCF4E3"/>
<path d="M321.331 253.745C321.331 253.745 310.122 253.551 308.618 244.623C307.005 246.344 305.907 248.484 305.449 250.798C304.991 253.112 305.191 255.508 306.027 257.714C306.027 257.714 296.759 259.102 296.118 252.561C296.118 252.561 289.645 263.236 300.427 273.591L308.53 278.919L317.429 276.337L321.311 268.234L323.815 257.559L321.331 253.745Z" fill="#A60D12"/>
<path d="M306.241 278.288C311.947 280.568 318.508 277.599 320.128 272.077C323.205 261.596 326.446 245.05 320.536 234.501C311.346 218.1 286.638 194.295 283.183 158.32C283.183 158.32 271.285 180.534 275.934 199.584C275.934 199.584 258.465 193.237 255.554 181.068C255.603 181.068 242.841 252.978 306.241 278.288Z" stroke="#0A0A0A" stroke-width="5.82273" stroke-miterlimit="10"/>
<path d="M243.055 241.582C244.665 240.932 244.687 237.222 243.102 233.296C241.518 229.369 238.929 226.713 237.318 227.362C235.708 228.012 235.686 231.722 237.271 235.648C238.855 239.575 241.444 242.232 243.055 241.582Z" fill="#7C0009"/>
<path d="M235.197 220.609C236.928 220.333 237.794 216.749 237.132 212.605C236.47 208.461 234.53 205.326 232.799 205.602C231.068 205.879 230.202 209.463 230.865 213.607C231.527 217.751 233.467 220.886 235.197 220.609Z" fill="#7C0009"/>
<path d="M247.21 229.199C248.851 228.615 249.033 224.916 247.617 220.937C246.201 216.958 243.723 214.206 242.082 214.79C240.441 215.374 240.258 219.073 241.674 223.052C243.09 227.031 245.569 229.783 247.21 229.199Z" fill="#7C0009"/>
<path d="M295.414 214.938C296.494 214.033 295.507 211.075 293.209 208.329C290.91 205.584 288.171 204.093 287.09 204.998C286.009 205.903 286.997 208.862 289.295 211.607C291.594 214.352 294.333 215.843 295.414 214.938Z" fill="#EFE0C5"/>
<path d="M303.763 229.215C305.029 228.549 304.729 225.483 303.092 222.365C301.454 219.248 299.1 217.26 297.833 217.926C296.566 218.591 296.866 221.658 298.504 224.775C300.141 227.892 302.496 229.88 303.763 229.215Z" fill="#EFE0C5"/>
<path d="M294.319 226.394C295.434 225.533 294.569 222.544 292.387 219.719C290.205 216.895 287.531 215.304 286.416 216.165C285.3 217.027 286.165 220.016 288.348 222.84C290.53 225.665 293.203 227.256 294.319 226.394Z" fill="#EFE0C5"/>
<path d="M563.999 295.61C580.817 299.385 593.433 299.871 593.433 299.871C593.433 299.871 587.61 291.622 584.699 287.74C577.42 292.107 565.926 295.061 563.999 295.61Z" fill="#7C0009"/>
<path d="M647.651 201.991C646.387 206.935 644.819 211.797 642.955 216.547C640.146 223.722 636.717 230.639 632.707 237.218C601.089 289.186 563.998 295.62 563.998 295.62L544.279 285.372L511.283 268.224C511.283 268.224 503.733 252.415 504.966 227.814C506.198 203.213 533.807 175.691 537.272 144.879C538.319 136.024 538.074 127.064 536.544 118.279C533.497 101.063 526.248 91.8246 526.248 91.8246C526.248 91.8246 542.415 89.8837 553.624 99.8891C554.139 100.345 554.653 100.86 555.148 101.345C555.445 95.1495 555.191 88.9401 554.391 82.7896C552.848 69.6691 548.568 51.8224 537.311 36.7998C537.311 36.7998 565.153 43.2436 585.911 79.3445C590.272 86.9784 593.902 95.0075 596.751 103.324C597.188 104.586 597.625 105.857 598.042 107.206C604.316 103.285 609.153 97.4399 611.832 90.5436C611.832 90.5436 621.537 108.361 625.564 127.421C627.036 133.854 627.51 140.476 626.971 147.053C626.971 147.48 626.884 147.888 626.826 148.305C626.826 148.412 626.826 148.499 626.826 148.606C626.758 149.14 626.67 149.664 626.573 150.197C626.313 151.583 625.966 152.951 625.535 154.293C625.535 154.293 641.062 151.119 646.4 138.824C646.351 138.795 656.842 165.958 647.651 201.991Z" fill="#FCF4E3"/>
<path d="M647.653 201.991C638.182 193.15 627.769 181.98 627.041 174.964C625.692 161.882 620.811 158.359 620.811 158.359L626.779 148.616C626.711 149.149 626.624 149.674 626.527 150.207C626.266 151.593 625.92 152.961 625.488 154.303C625.488 154.303 641.015 151.129 646.353 138.834C646.353 138.795 656.843 165.958 647.653 201.991Z" fill="#EFE0C5"/>
<path d="M585.912 79.3445C576.207 72.6581 563.95 67.9611 562.796 67.5244C562.776 67.5086 562.753 67.5 562.728 67.5C562.703 67.5 562.679 67.5086 562.66 67.5244L554.392 82.7896C552.848 69.6691 548.569 51.8224 537.312 36.7998C537.312 36.7998 565.154 43.2436 585.912 79.3445Z" fill="#EFE0C5"/>
<path d="M556.022 105.586C551.499 103.645 541.804 102.208 541.804 102.208C541.804 102.208 539.437 117.493 539.213 118.075L536.583 118.269C533.497 101.063 526.248 91.8245 526.248 91.8245C526.248 91.8245 542.416 89.8836 553.625 99.889L556.022 105.586Z" fill="#EFE0C5"/>
<path d="M625.565 127.392C616.733 109.662 609.95 108.177 609.95 108.177C604.991 110.952 596.267 111.68 596.267 111.68L596.752 103.325C597.189 104.586 597.625 105.857 598.042 107.206C604.316 103.285 609.154 97.44 611.833 90.5437C611.833 90.5437 621.586 108.322 625.565 127.392Z" fill="#EFE0C5"/>
<path d="M638.947 225.738C631.183 253.803 590.046 283.179 590.046 283.625C590.046 283.868 580.157 288.798 570.006 294.213C570.006 294.213 566.803 294.882 563.999 295.61C551.257 288.41 555.371 302.403 555.371 302.403C555.371 302.403 538.98 300.171 525.181 288.953C516.951 282.378 511.065 273.32 508.401 263.129C499.347 228.998 506.227 194.916 532.527 171.644C560.981 146.461 551.936 129.41 551.936 129.41C568.026 128.605 578.138 142.628 578.138 142.628C583.738 138.872 587.319 132.05 589.298 127.101C590.07 125.203 590.718 123.258 591.239 121.278C621.411 132.787 613.084 180.728 613.084 180.728C618.006 178.765 622.459 175.789 626.156 171.994C627.949 170.234 629.573 168.311 631.009 166.249C654.212 182.3 638.947 225.738 638.947 225.738Z" fill="#7C0009"/>
<path d="M623.469 216.615C622.994 218.139 622.499 219.634 621.955 221.128C605.458 267.186 564 295.174 564 295.61C564 295.61 562.884 294.912 562.864 294.912C557.478 297.823 556.566 303.306 555.576 303.549H555.372C555.372 303.549 535.847 301.414 522.047 290.195C514.856 284.373 512.226 273.95 509.12 262.256C508.82 261.082 508.519 259.907 508.247 258.733C500.483 225.844 507.131 194.062 532.508 171.596C560.962 146.413 551.918 129.362 551.918 129.362C555.552 129.196 559.182 129.764 562.593 131.031C564.274 131.658 565.898 132.431 567.445 133.341C571.53 135.722 575.126 138.857 578.042 142.579C580.075 141.172 581.873 139.453 583.37 137.485L583.496 137.339C585.889 134.213 587.851 130.779 589.329 127.13C590.1 125.233 590.748 123.288 591.269 121.307C596.551 123.273 601.175 126.682 604.613 131.148C618.268 148.8 613.347 179.214 613.143 180.641C613.141 180.657 613.141 180.673 613.143 180.689C618.065 178.726 622.519 175.751 626.216 171.955C632.426 191.122 623.469 216.615 623.469 216.615Z" fill="#D33137"/>
<path d="M625.564 218.906C625.079 220.42 624.574 221.924 624.05 223.418C607.785 269.36 570.326 293.534 570.326 293.97C570.326 293.97 564.018 295.61 563.998 295.61C558.612 298.522 556.506 305.072 555.517 305.315C549.694 303.287 537.311 303.209 531.673 298.629C524.481 292.806 511.031 285.372 509.352 273.397C508.672 268.537 508.3 263.64 508.236 258.733C507.77 220.536 527.645 195.159 548.025 175.274C565.144 158.476 564.852 141.066 562.669 131.06C564.35 131.687 565.974 132.46 567.521 133.37C571.606 135.751 575.202 138.886 578.118 142.609C580.151 141.201 581.95 139.482 583.446 137.514L583.572 137.368C585.941 134.228 587.876 130.785 589.327 127.13C590.099 125.233 590.747 123.288 591.268 121.307C596.55 123.273 601.173 126.682 604.612 131.148C618.266 148.8 613.346 179.214 613.142 180.641C613.14 180.657 613.14 180.673 613.142 180.689C618.064 178.726 622.517 175.751 626.214 171.955C632.425 191.122 625.564 218.906 625.564 218.906Z" fill="#A60D12"/>
<path d="M488.139 219.323C488.139 219.323 492.04 246.69 511.323 268.214C505.996 253.744 503.094 239.585 503.666 224.175L488.139 219.323Z" fill="#7C0009"/>
<path d="M511.324 268.205C503.997 254.968 500.823 236.975 502.395 221.904C503.657 213.626 506.84 206.105 510.207 198.972C518.738 181.048 530.238 164.25 532.877 144.316C534.896 127.12 532.877 108.72 523.91 93.6393L521.232 89.3014C525.492 88.9908 530.121 88.4571 534.333 89.0199C542.766 89.8545 551.229 93.1056 557.187 99.3359L552.189 101.131C552.975 79.3348 548.084 56.3253 534.983 38.5563L530.131 32.0251C531.538 32.326 538.438 34.0922 539.603 34.4416C547.062 36.9936 554.059 40.7362 560.322 45.5242C580.294 60.3818 593.317 82.8867 600.79 106.284L596.617 104.615C597.289 104.22 597.937 103.786 598.558 103.315C603.272 99.7229 606.924 94.9203 609.126 89.4178L611.542 83.7213L614.386 89.0879C622.149 104.305 628.467 120.385 629.981 137.552C630.537 143.474 629.951 149.447 628.254 155.147L624.905 151.391C632.504 149.45 640.433 145.035 643.684 137.62L646.42 131.186C657.804 156.418 657.542 185.881 648.75 211.831C639.792 238.208 620.199 264.575 597.558 280.733C587.494 287.721 576.208 293.679 564 295.581C575.412 291.855 585.835 285.129 595.054 277.424C610.3 264.614 622.45 248.31 632.087 231.027C646.731 204.252 651.777 172.217 644.441 142.502C644.208 141.58 643.926 140.561 643.674 139.794L649.06 139.911C646.052 146.84 639.812 151.799 633.048 154.729C629.641 156.389 624.954 157.33 621.189 158.165L622.761 153.313C627.186 138.261 621.625 120.928 616.142 106.663C614.136 101.612 611.869 96.6689 609.349 91.8537L614.609 91.5237C611.188 100.16 604.727 107.246 596.442 111.447C589.329 87.9136 576.955 65.0303 556.945 50.1435C551.178 45.7662 544.746 42.3423 537.895 40.0023C537.468 39.8664 536.924 39.7208 536.662 39.6432L539.641 35.0724C543.152 39.8042 546.146 44.8991 548.57 50.2697C555.634 66.4138 558.853 83.9776 557.973 101.578L557.585 108.06L552.975 103.373C546.26 96.4342 535.934 94.0178 526.521 94.7165L528.462 90.0195C539.797 104.673 543.271 124.15 542.048 142.288C541.223 156.554 535.381 169.936 528.782 182.339C521.814 195.789 512.711 208.628 508.946 223.098C507.345 230.396 507.403 237.975 507.655 245.418C507.969 253.115 509.207 260.746 511.343 268.146L511.324 268.205Z" fill="#0A0A0A"/>
<path d="M547.831 276.356C545.399 277.355 542.683 277.41 540.212 276.513C537.741 275.616 535.693 273.83 534.468 271.504C534.257 271.067 534.085 270.613 533.954 270.146C530.878 259.665 527.627 243.109 533.546 232.579C541.106 219.08 559.176 200.554 567.26 174.352C569.087 168.503 570.304 162.479 570.889 156.379C570.889 156.379 582.079 177.283 578.527 195.915C578.41 196.498 578.294 197.07 578.148 197.643C582.87 195.8 587.269 193.219 591.182 189.996C594.51 187.143 597.431 183.513 598.47 179.127C598.47 179.127 611.241 251.047 547.831 276.356Z" fill="#EFE0C5"/>
<path d="M591.182 189.996C590.89 212.782 583.738 253.124 539.505 270.776C537.907 271.411 536.18 271.657 534.468 271.494C534.257 271.058 534.085 270.603 533.954 270.136C530.878 259.655 527.627 243.099 533.546 232.57C541.106 219.071 559.176 200.545 567.26 174.342C571.248 183.523 574.742 194.431 573.548 202.485C573.548 202.485 575.713 199.817 578.527 195.828C578.41 196.41 578.294 196.983 578.148 197.556C582.865 195.739 587.263 193.188 591.182 189.996V189.996Z" fill="#FCF4E3"/>
<path d="M532.75 251.804C532.75 251.804 543.959 251.61 545.463 242.682C547.076 244.404 548.174 246.543 548.632 248.857C549.09 251.171 548.89 253.567 548.055 255.773C548.055 255.773 557.313 257.161 557.963 250.62C557.963 250.62 564.426 261.295 553.654 271.65L545.551 276.978L536.652 274.396L532.77 266.293L530.266 255.618L532.75 251.804Z" fill="#A60D12"/>
<path d="M547.831 276.347C542.125 278.627 535.575 275.658 533.954 270.136C530.878 259.655 527.627 243.109 533.537 232.56C542.746 216.159 567.444 192.354 570.889 156.379C570.889 156.379 582.797 178.593 578.148 197.643C578.148 197.643 595.617 191.296 598.479 179.127C598.479 179.127 611.231 251.037 547.831 276.347Z" stroke="#0A0A0A" stroke-width="5.82273" stroke-miterlimit="10"/>
<path d="M614.766 231.043C616.333 227.105 616.293 223.392 614.678 222.749C613.064 222.107 610.484 224.778 608.918 228.716C607.351 232.654 607.39 236.367 609.005 237.009C610.62 237.652 613.199 234.98 614.766 231.043Z" fill="#7C0009"/>
<path d="M623.157 211.61C623.82 207.466 622.954 203.883 621.223 203.606C619.492 203.329 617.552 206.465 616.89 210.609C616.228 214.753 617.094 218.336 618.825 218.613C620.555 218.889 622.495 215.754 623.157 211.61Z" fill="#7C0009"/>
<path d="M612.419 221.135C613.835 217.156 613.653 213.457 612.012 212.873C610.371 212.289 607.893 215.041 606.477 219.02C605.061 222.999 605.243 226.698 606.884 227.282C608.525 227.866 611.003 225.114 612.419 221.135Z" fill="#7C0009"/>
<path d="M564.796 209.708C567.095 206.963 568.082 204.004 567.001 203.099C565.92 202.194 563.181 203.686 560.882 206.431C558.584 209.176 557.597 212.135 558.678 213.04C559.758 213.945 562.498 212.453 564.796 209.708Z" fill="#EFE0C5"/>
<path d="M555.588 222.87C557.226 219.753 557.526 216.686 556.259 216.021C554.992 215.355 552.638 217.343 551 220.46C549.363 223.578 549.063 226.644 550.33 227.31C551.596 227.975 553.951 225.988 555.588 222.87Z" fill="#EFE0C5"/>
<path d="M565.731 220.905C567.914 218.08 568.778 215.092 567.663 214.23C566.548 213.368 563.874 214.959 561.692 217.784C559.509 220.609 558.644 223.597 559.76 224.459C560.875 225.321 563.549 223.729 565.731 220.905Z" fill="#EFE0C5"/>
<path d="M690.409 854.378H153.195C153.195 854.378 172.313 690.09 194.332 670.584C217.458 650.078 271.357 623.371 278.539 622.867C279.8 623.701 281.169 624.594 282.624 625.526L282.683 625.574L284.934 627.011L285.4 627.292H285.468C297.57 635.022 310.06 642.129 322.889 648.584C330.138 652.184 337.62 655.542 344.976 658.288L346.723 658.939C369.276 667.178 396.692 673.786 426.591 673.767C489.224 673.767 536.66 646.187 556.147 632.688L556.778 632.251L564.076 627.282L566.482 625.652L572.373 621.683L573.043 621.236L575.178 619.8C575.799 619.383 576.41 618.966 577.021 618.568C578.856 619.538 646.089 654.533 664.576 675.446C665.582 676.635 666.445 677.938 667.148 679.328C667.274 679.551 667.39 679.784 667.507 680.026C667.885 680.783 668.264 681.599 668.632 682.472L668.972 683.307C669.292 684.102 669.613 684.937 669.943 685.82C670.078 686.179 670.205 686.538 670.331 686.917C671.476 690.255 672.553 694.118 673.591 698.388C673.931 699.804 674.271 701.299 674.562 702.793C674.669 703.298 674.775 703.764 674.892 704.317C675.28 706.161 675.665 708.063 676.047 710.023C676.402 711.88 676.752 713.776 677.095 715.71C677.192 716.283 677.289 716.855 677.396 717.428C677.58 718.544 677.774 719.67 677.958 720.805C677.962 720.847 677.962 720.889 677.958 720.931C678.25 722.697 678.541 724.502 678.812 726.327C679.194 728.753 679.556 731.224 679.899 733.741L680.161 735.624C680.433 737.565 680.695 739.506 680.947 741.524C681.025 742.106 681.103 742.698 681.171 743.29C681.229 743.669 681.268 744.047 681.316 744.426C681.404 745.105 681.491 745.794 681.569 746.483C681.869 748.851 682.151 751.238 682.423 753.626C682.549 754.693 682.665 755.77 682.791 756.838C682.791 756.984 682.791 757.119 682.84 757.265C682.976 758.497 683.112 759.73 683.238 760.962C683.927 767.251 684.548 773.578 685.12 779.75L685.441 783.215C685.557 784.506 685.674 785.796 685.78 787.097C685.887 788.397 685.994 789.513 686.091 790.707C686.091 790.765 686.091 790.833 686.091 790.891L686.324 793.638L686.411 794.783C686.498 795.753 686.576 796.801 686.663 797.801C686.731 798.577 686.79 799.354 686.848 800.12C686.974 801.654 687.09 803.167 687.207 804.672C687.207 805.419 687.314 806.166 687.372 806.904C687.459 808.078 687.547 809.243 687.634 810.388C687.692 811.242 687.76 812.086 687.818 812.921C687.886 813.988 687.964 815.046 688.041 816.084C688.041 816.434 688.041 816.773 688.109 817.123C688.168 817.812 688.206 818.491 688.255 819.161C688.323 820.131 688.381 821.014 688.439 821.917C688.439 822.489 688.517 823.042 688.556 823.605C688.624 824.576 688.682 825.546 688.74 826.449C688.983 830.175 689.196 833.62 689.381 836.726C689.381 837.114 689.381 837.492 689.449 837.871C689.517 839.006 689.575 840.093 689.633 841.122C689.633 841.743 689.711 842.335 689.74 842.908C689.74 842.976 689.74 843.053 689.74 843.121C689.74 843.762 689.808 844.383 689.837 844.975C689.866 845.567 689.905 846.188 689.934 846.741C689.938 846.815 689.938 846.89 689.934 846.964C689.934 847.284 689.934 847.595 689.992 847.935C690.118 850.332 690.206 852.108 690.254 853.175C690.254 853.359 690.254 853.515 690.254 853.651C690.254 853.786 690.254 854 690.254 854.107C690.254 854.213 690.409 854.378 690.409 854.378Z" fill="#5865F2"/>
<path d="M201.853 755.363C201.733 754.677 201.665 753.983 201.649 753.286C201.688 753.558 201.756 754.266 201.853 755.363Z" fill="#C6A7A7"/>
<path d="M194.851 804.041C194.851 817.715 204.653 854.378 204.653 854.378H187.631C188.388 845.479 194.851 804.041 194.851 804.041Z" fill="#434FD9"/>
<path d="M639.895 854.378H216.864V851.05C209.508 830.981 203.074 768.047 201.832 755.392C204.471 771.249 230.411 789.921 232.527 791.406C230.673 789.892 211.381 773.462 211.119 749.356C210.847 724.046 220.823 696.699 220.823 696.699C221.173 718.476 233.633 759.487 233.633 759.487C234.604 726.569 247.113 704.928 247.113 704.928C248.287 713.662 266.862 764.33 270.86 775.17C261.553 748.686 262.999 716.448 262.999 716.448C262.999 716.448 394.971 832.145 446.609 809.737C498.247 787.33 576.194 686.325 576.194 686.325C576.194 686.325 465.601 756.954 438.642 749.734C367.702 730.752 302.574 658.599 301.555 657.473C338.947 682.142 375.65 685.548 377.707 686.305C366.159 680.483 354.824 668.711 346.73 658.997C369.283 667.236 396.699 673.845 426.599 673.825C489.232 673.825 544.091 640.597 563.578 627.098C596.118 642.722 639.895 670.555 639.895 670.555C662.807 686.752 655.102 714.507 655.102 714.507L647.882 753.16L635.722 799.48C650.405 776.703 662.303 729.898 662.303 729.898C663.059 779.547 639.895 854.378 639.895 854.378Z" fill="#434FD9"/>
<path d="M231.297 686.325C227.229 698.915 227.229 712.466 231.297 725.056C231.297 725.056 235.091 708.345 238.507 702.27L231.297 686.325Z" fill="#434FD9"/>
<path d="M285.602 713.284C285.602 713.284 373.593 767.397 436.022 767.397C473.996 767.397 498.131 742.902 498.131 742.902C498.131 742.902 462.224 784.127 434.256 785.311C403.774 786.592 308 754.296 285.602 713.284Z" fill="#434FD9"/>
<path d="M672.435 854.378H653.191C653.191 854.378 667.117 819.947 665.807 796.044C665.846 796.044 674.464 828.768 672.435 854.378Z" fill="#434FD9"/>
<path d="M690.406 854.379H672.434C672.434 854.379 680.362 827.972 685.176 779.809C688.825 819.18 690.406 854.379 690.406 854.379Z" fill="#434FD9"/>
<path d="M604.835 737.71C604.835 737.71 595.47 815.473 575.343 854.379L596.479 854.252L601.419 812.649L603.564 761.448L604.835 737.71Z" fill="#2D39B8"/>
<path d="M654.766 704.666C654.766 704.666 627.088 802.75 611.28 846.178L623.08 824.178C623.08 824.178 640.345 780.41 640.549 779.809C640.752 779.207 651.136 737.963 650.777 737.71C650.418 737.458 657.755 704.171 657.755 704.171L654.766 704.666Z" fill="#2D39B8"/>
<path d="M639.9 819.617C639.9 819.617 632.661 841.617 617.201 854.252H633.825L636.183 841.53L638.706 829.351L639.9 819.617Z" fill="#2D39B8"/>
<path d="M281.43 854.379C261.294 815.473 249.726 720.66 249.726 720.66L247.562 757.052L247.183 753.286L243.098 787.514L237.566 779.654L238.915 785.709L233.878 774.423L226.396 754.315C226.396 754.315 245.126 821.548 242.088 854.369H259.751V854.272L281.43 854.379Z" fill="#2D39B8"/>
<path d="M153.196 857.29H152.856C152.476 857.245 152.109 857.126 151.775 856.94C151.441 856.753 151.147 856.503 150.91 856.203C150.673 855.903 150.498 855.559 150.394 855.191C150.29 854.823 150.259 854.438 150.304 854.058C150.352 853.651 155.156 812.416 162.638 769.318C172.75 710.906 182.765 676.95 192.402 668.391C216.12 647.351 270.281 620.509 278.336 619.946C278.906 619.868 279.487 619.932 280.026 620.132C280.566 620.332 281.049 620.661 281.431 621.091C281.897 621.45 282.868 622.168 284.285 623.168L284.488 623.313L285.265 623.857L286.08 624.419L287.642 625.07V627.011C287.646 627.424 287.561 627.834 287.393 628.212C287.226 628.59 286.98 628.928 286.672 629.204L285.1 630.776L283.101 629.417L281.955 628.622L281.053 627.991L280.772 627.787C279.558 626.923 278.675 626.273 278.151 625.846C269.514 627.671 218.517 653.019 196.274 672.748C178.893 688.159 161.338 809.34 156.097 854.728C156.012 855.436 155.669 856.088 155.134 856.561C154.599 857.033 153.909 857.293 153.196 857.29V857.29Z" fill="#0A0A0A"/>
<path d="M690.412 857.27C689.64 857.27 688.899 856.964 688.353 856.418C687.807 855.872 687.501 855.131 687.501 854.359C687.493 854.236 687.493 854.113 687.501 853.99V853.816C687.501 853.738 687.501 853.563 687.501 853.34C687.501 852.263 687.365 850.497 687.238 848.109V847.75C687.238 847.585 687.238 847.42 687.238 847.255V846.576C687.238 846.13 687.239 845.664 687.161 845.179V845.033C687.161 844.49 687.103 843.907 687.064 843.315V843.199C687.059 843.144 687.059 843.089 687.064 843.034C687.064 842.529 687.006 841.996 686.967 841.462L686.744 837.58C686.744 837.366 686.744 837.143 686.744 836.92C686.559 833.853 686.346 830.408 686.103 826.691C686.045 825.721 685.987 824.751 685.928 823.858L685.773 821.645C685.725 820.917 685.676 820.17 685.628 819.423V818.714C685.628 818.287 685.569 817.851 685.531 817.424C685.492 816.997 685.472 816.667 685.453 816.288C685.385 815.318 685.298 814.231 685.23 813.154L684.793 807.166C684.725 806.409 684.667 805.662 684.618 804.905V804.604C684.512 803.216 684.405 801.819 684.288 800.412C684.23 799.635 684.172 798.869 684.104 798.102L683.531 791.25C683.536 791.212 683.536 791.173 683.531 791.134V790.988C683.444 789.901 683.347 788.805 683.25 787.699V787.398C683.143 786.117 683.027 784.826 682.91 783.516L682.59 780.061C681.959 773.19 681.338 767.067 680.707 761.322C680.581 760.07 680.455 758.847 680.319 757.624L679.902 754.004C679.63 751.617 679.345 749.246 679.048 746.891C678.97 746.173 678.883 745.503 678.796 744.834V744.445C678.796 744.222 678.747 743.999 678.708 743.776V743.659C678.64 743.087 678.563 742.514 678.485 741.951C678.233 739.952 677.971 738.002 677.709 736.07L677.447 734.188C677.097 731.684 676.735 729.225 676.36 726.812C676.078 724.997 675.807 723.212 675.515 721.446V721.203C675.409 720.582 675.312 719.971 675.205 719.359L674.972 717.942C674.875 717.409 674.768 716.826 674.671 716.234C674.341 714.293 673.992 712.45 673.633 710.615C673.274 708.781 672.876 706.782 672.488 704.958C672.381 704.492 672.274 703.987 672.167 703.473C671.828 701.969 671.498 700.561 671.197 699.106C670.12 694.671 669.072 691.002 668.014 687.897C667.897 687.538 667.781 687.218 667.655 686.927C667.334 686.024 667.034 685.228 666.684 684.471V684.374L666.383 683.617C666.083 682.909 665.724 682.142 665.364 681.414C665.248 681.181 665.161 681.007 665.064 680.832C664.461 679.623 663.718 678.49 662.851 677.455C646.188 658.599 587.796 627.37 577.655 622.023L577.286 622.275L576.393 622.877L575.112 623.74L574.452 624.177C572.278 625.613 570.328 626.865 568.309 628.136L565.796 629.709L565.67 629.786L565.456 629.912L565.262 630.038L562.351 631.834L561.633 632.271C534.023 648.768 480.114 676.407 427.846 676.407H427.05C384.068 676.174 346.279 662.607 322.144 651.272C310.415 645.864 299.064 639.672 288.168 632.736C288.11 632.736 287.974 632.62 287.858 632.533L287.77 632.474C286.091 631.387 284.519 630.339 283.093 629.349L281.841 628.476V626.952C281.841 626.407 281.995 625.872 282.284 625.409C282.574 624.947 282.988 624.575 283.478 624.336C283.969 624.097 284.517 624.001 285.06 624.059C285.602 624.117 286.118 624.326 286.548 624.662C287.887 625.584 289.362 626.603 290.924 627.574L291.167 627.739L291.254 627.806C301.802 634.583 312.785 640.655 324.133 645.983C347.744 657.066 384.68 670.341 426.594 670.565H427.37C478.125 670.584 530.84 643.605 558.013 627.36L558.12 627.263L558.411 627.127L558.886 626.836L561.798 625.06L561.895 624.973C562.031 624.876 562.174 624.789 562.322 624.711L564.748 623.187C566.747 621.935 568.63 620.712 570.774 619.305L571.405 618.878L572.676 618.024L573.559 617.432C574.666 616.666 575.267 616.229 575.287 616.219L577.296 614.783L578.742 616.229C584.39 619.14 648.333 652.728 666.762 673.563C667.902 674.93 668.88 676.425 669.673 678.018C669.79 678.222 669.935 678.513 670.081 678.814C670.488 679.619 670.886 680.502 671.265 681.395C671.381 681.676 671.469 681.9 671.566 682.123V682.249C671.915 683.103 672.245 683.976 672.536 684.908C672.662 685.238 672.798 685.626 672.934 686.043C674.05 689.294 675.147 693.128 676.263 697.747C676.612 699.193 676.952 700.659 677.291 702.211C677.417 702.755 677.515 703.182 677.621 703.725C678.029 705.666 678.417 707.549 678.796 709.548C679.174 711.547 679.514 713.333 679.853 715.283C679.95 715.856 680.047 716.419 680.154 716.972L680.397 718.437L680.717 720.378C680.717 720.456 680.717 720.553 680.717 720.669C680.998 722.426 681.28 724.192 681.552 725.987C681.933 728.433 682.299 730.921 682.648 733.45L682.91 735.333C683.182 737.274 683.444 739.263 683.696 741.262C683.774 741.835 683.852 742.427 683.92 743.009C683.92 743.281 683.997 743.553 684.026 743.824V744.164C684.123 744.853 684.211 745.561 684.288 746.27C684.589 748.609 684.871 751.006 685.142 753.403L685.55 756.984C685.695 758.294 685.831 759.536 685.958 760.778C686.588 766.533 687.209 772.686 687.84 779.595L688.17 783.05C688.287 784.36 688.403 785.661 688.51 786.932V787.213C688.607 788.291 688.704 789.368 688.791 790.435V790.726L689.364 797.626C689.432 798.412 689.49 799.198 689.548 799.985C689.665 801.382 689.771 802.789 689.878 804.177V804.526C689.878 805.283 689.985 806.011 690.043 806.729L690.49 812.794C690.557 813.872 690.635 814.92 690.713 815.948C690.713 816.327 690.713 816.647 690.781 816.919C690.849 817.191 690.849 817.889 690.878 818.307V818.986C690.936 819.743 690.984 820.51 691.033 821.257L691.179 823.44C691.246 824.411 691.305 825.313 691.363 826.226C691.609 830.017 691.822 833.468 692.003 836.58L692.265 841.103C692.265 841.675 692.343 842.248 692.363 842.791V842.879C692.358 842.927 692.358 842.976 692.363 843.024C692.363 843.626 692.421 844.208 692.45 844.761V844.868L692.537 846.285V846.557C692.537 846.654 692.537 846.76 692.537 846.857V847.449V847.886C692.663 850.254 692.741 852.011 692.79 853.078C692.79 853.214 692.79 853.34 692.79 853.457V853.961C692.79 854.233 692.79 854.369 692.79 854.369C692.799 855.055 692.565 855.723 692.13 856.254C691.695 856.785 691.087 857.145 690.412 857.27V857.27Z" fill="#0A0A0A"/>
<path d="M249.901 718.602C249.678 732.586 249.357 746.522 249.425 760.477C249.542 769.58 249.542 779.013 250.852 787.922C253.652 801.694 255.561 815.633 256.568 829.651C256.976 831.349 258.227 838.181 258.858 841.51C259.622 845.618 260.343 849.727 261.022 853.835C261.129 854.552 260.956 855.282 260.539 855.875C260.123 856.468 259.494 856.878 258.783 857.02C258.072 857.163 257.334 857.026 256.721 856.639C256.108 856.252 255.668 855.644 255.491 854.941C253.55 846.78 251.803 838.56 250.095 830.34C249.027 816.366 247.368 802.614 245.243 788.727C244.272 779.139 244.816 769.861 245.33 760.37C246.301 746.386 247.785 732.45 249.94 718.641L249.901 718.602Z" fill="#0A0A0A"/>
<path d="M196.999 704.919C199.494 722.387 201.328 739.855 204.084 757.187C205.18 763.612 206.17 769.968 208.276 775.888C212.003 784.137 219.155 796.588 223.396 804.759C228.85 815.192 234.333 825.672 238.545 836.697C232.062 826.827 225.541 817.123 219.32 807.088C216.195 802.1 213.138 797.083 210.178 791.969C207.267 786.68 203.88 781.507 202.036 775.704C198.737 764.146 197.853 752.199 196.97 740.311C196.212 728.536 196.06 716.729 196.514 704.938C196.514 704.686 196.941 704.647 196.961 704.938L196.999 704.919Z" fill="#0A0A0A"/>
<path d="M217.622 857.29C216.85 857.29 216.109 856.983 215.563 856.437C215.017 855.891 214.71 855.151 214.71 854.378V854.31C214.555 853.573 214.05 851.671 213.517 849.672C210.13 836.959 201.134 803.197 201.764 774.374C201.781 773.602 202.104 772.868 202.662 772.334C202.938 772.069 203.264 771.862 203.62 771.723C203.976 771.585 204.357 771.518 204.739 771.526C205.121 771.534 205.498 771.618 205.848 771.772C206.198 771.926 206.515 772.147 206.779 772.423C207.044 772.699 207.251 773.025 207.39 773.381C207.528 773.738 207.595 774.118 207.587 774.5C206.976 802.488 215.817 835.639 219.145 848.177C220.892 854.747 220.931 854.873 219.951 856.145C219.675 856.5 219.322 856.788 218.918 856.986C218.515 857.184 218.071 857.288 217.622 857.29V857.29Z" fill="#0A0A0A"/>
<path d="M225.978 753.16C236.866 778.062 247.9 803.003 256.062 828.962C256.301 829.697 256.239 830.497 255.889 831.186C255.538 831.875 254.929 832.396 254.194 832.636C253.459 832.875 252.659 832.813 251.97 832.462C251.281 832.112 250.76 831.502 250.521 830.767C242.126 806.331 233.839 777.839 225.949 753.131L225.978 753.16Z" fill="#0A0A0A"/>
<path d="M604.955 737.72C604.78 757.255 604.178 776.781 603.295 796.307C601.995 815.881 602.014 835.532 597.764 854.844C597.609 855.493 597.211 856.057 596.651 856.42C596.091 856.782 595.412 856.915 594.757 856.79C594.102 856.664 593.52 856.292 593.133 855.749C592.746 855.206 592.583 854.534 592.678 853.874C594.813 834.669 597.531 815.289 599.297 795.967C601.015 779.071 603.179 754.81 604.722 737.662C604.722 737.526 604.964 737.526 604.955 737.662V737.72Z" fill="#0A0A0A"/>
<path d="M624.495 708.082C628.571 736.924 625.145 774.229 609.938 799.489C617.042 777.285 620.021 754.402 622.205 731.305L624.204 708.102C624.204 708.058 624.221 708.016 624.252 707.985C624.283 707.954 624.325 707.937 624.369 707.937C624.412 707.937 624.454 707.954 624.485 707.985C624.516 708.016 624.534 708.058 624.534 708.102L624.495 708.082Z" fill="#0A0A0A"/>
<path d="M657.746 686.325C658.716 714.876 654.009 743.64 646.1 771.036C639.749 793.465 630.555 814.989 618.743 835.086C615.832 839.589 612.92 844.082 609.893 848.488C612.154 843.636 614.473 838.861 616.86 834.086C618.986 829.234 621.111 824.333 623.285 819.53C625.119 814.774 627.244 809.505 629.108 804.73C632.401 795.608 635.496 786.411 638.395 777.14C647.059 747.401 653.517 717.063 657.717 686.374L657.746 686.325Z" fill="#0A0A0A"/>
<path d="M639.897 819.617C639.528 831.728 638.247 844.072 633.715 855.466C633.574 855.753 633.377 856.009 633.137 856.22C632.896 856.431 632.615 856.593 632.312 856.695C632.009 856.797 631.688 856.838 631.368 856.816C631.049 856.793 630.737 856.708 630.451 856.564C630.165 856.421 629.91 856.222 629.701 855.98C629.492 855.737 629.332 855.456 629.233 855.152C629.133 854.847 629.094 854.526 629.119 854.207C629.144 853.888 629.232 853.577 629.377 853.292C635.2 842.995 637.956 831.233 639.897 819.617V819.617Z" fill="#0A0A0A"/>
<path d="M563.199 854.253C563.195 854.285 563.195 854.317 563.199 854.35V854.35H290.919V854.223C290.754 850.701 287.484 777.082 289.677 737.934C289.745 736.663 289.822 735.42 289.91 734.227C290.174 729.161 290.803 724.121 291.792 719.146C292.043 717.92 292.427 716.726 292.937 715.584C295.548 710.198 321.187 707.18 355.794 705.88L362.141 705.666C370.554 705.414 379.424 705.249 388.556 705.181C424.91 704.9 465.513 706.006 498.684 708.024C509.174 708.665 518.908 709.373 527.545 710.169C530.184 710.415 532.714 710.667 535.134 710.926L536.716 711.091C541.801 711.644 546.343 712.226 550.244 712.848C551.593 713.051 552.864 713.265 554.058 713.478C560.851 714.691 565.034 716.011 565.849 717.36C573.312 729.937 563.558 849.779 563.199 854.253Z" fill="#232323"/>
<path d="M438.881 749.608C408.622 741.505 379.411 723.736 355.8 705.938L362.147 705.724C370.561 705.472 379.431 705.307 388.563 705.239C424.916 704.958 465.52 706.064 498.69 708.083C509.181 708.723 518.914 709.431 527.551 710.227C530.191 710.473 532.721 710.725 535.14 710.984C500.757 730.549 454.961 753.917 438.881 749.608Z" fill="#161616"/>
<path d="M563.199 854.252H290.919C290.754 850.73 287.484 777.111 289.677 737.963C330.882 770.279 409.673 825.75 446.89 809.611C481.206 794.725 527.137 745.134 554.087 713.536C560.88 714.749 565.063 716.069 565.878 717.418C573.311 729.937 563.558 849.778 563.199 854.252Z" fill="#161616"/>
<path d="M556.223 718.602C556.223 718.602 558.252 823.411 495.978 854.252H564.802L566.384 815.939L568.645 742.184L566.413 718.622L560.367 713.546L556.223 718.602Z" fill="#0C0C0C"/>
<path d="M563.195 857.29H562.953C562.185 857.226 561.474 856.859 560.976 856.272C560.477 855.684 560.232 854.923 560.294 854.155C564.176 806.7 568.484 728.404 563.448 718.864C559.139 715.555 520.748 710.945 457.28 708.83C396.297 706.801 339.544 707.995 312.682 711.887C297.349 714.109 295.622 716.584 295.554 716.739C289.547 729.112 292.274 820.238 293.826 854.301C293.844 854.683 293.787 855.065 293.657 855.425C293.527 855.785 293.327 856.116 293.07 856.399C292.812 856.682 292.501 856.912 292.155 857.074C291.808 857.237 291.433 857.33 291.051 857.348C290.669 857.366 290.286 857.308 289.926 857.178C289.566 857.049 289.235 856.849 288.952 856.591C288.669 856.334 288.44 856.023 288.277 855.676C288.114 855.33 288.021 854.955 288.004 854.573C287.421 841.879 282.559 730.151 290.313 714.177C291.585 711.547 294.564 705.443 351.17 702.997C388.29 701.415 440.093 701.901 486.384 704.278C508.646 705.414 527.754 706.908 541.642 708.587C563.962 711.285 567.126 713.711 568.349 715.768C570.571 719.514 573.201 731.364 570.289 790.775C568.688 823.149 566.136 854.369 566.107 854.679C566.032 855.398 565.693 856.064 565.155 856.546C564.617 857.029 563.918 857.294 563.195 857.29V857.29Z" fill="#0A0A0A"/>
<path opacity="0.3" d="M611.724 637.899C589.928 651.97 565.201 668.293 553.72 675.688C550.253 678.108 546.646 680.424 542.9 682.637C542.852 682.677 542.8 682.713 542.744 682.744V682.744C511.079 701.483 467.874 716.263 422.321 716.263C399.554 716.263 381.067 711.954 361.017 706.772C340.968 701.59 320.986 692.118 305.148 682.744C301.732 680.725 298.433 678.619 295.249 676.426C284.041 669.264 262.108 654.843 239.846 640.597C262.244 630.378 278.189 620.974 278.548 622.837C278.548 622.837 309.437 645.371 346.742 658.996C369.295 667.236 396.71 673.844 426.61 673.825C489.243 673.825 536.679 646.245 556.166 632.746C562.484 628.369 576.303 618.596 576.303 618.596C576.303 618.596 596.828 628.854 611.724 637.899Z" fill="#0A0A0A"/>
<path d="M467.124 752.06C459.46 748.453 451.265 745.831 442.698 744.339C441.646 746.252 440.416 748.826 439.569 750.873C430.462 749.496 421.438 749.496 412.498 750.873C411.651 748.826 410.394 746.252 409.332 744.339C400.756 745.831 392.552 748.462 384.888 752.079C369.43 775.577 365.239 798.491 367.334 821.08C377.587 828.782 387.523 833.461 397.292 836.522C399.703 833.183 401.855 829.634 403.708 825.893C400.178 824.544 396.798 822.879 393.604 820.946C394.451 820.315 395.28 819.655 396.081 818.975C415.562 828.141 436.729 828.141 455.977 818.975C456.787 819.655 457.616 820.315 458.454 820.946C455.251 822.888 451.861 824.553 448.332 825.902C450.185 829.634 452.327 833.193 454.748 836.532C464.526 833.47 474.471 828.792 484.724 821.08C487.182 794.894 480.524 772.19 467.124 752.06ZM406.362 807.188C400.514 807.188 395.718 801.696 395.718 795.009C395.718 788.321 400.411 782.82 406.362 782.82C412.312 782.82 417.108 788.311 417.006 795.009C417.015 801.696 412.312 807.188 406.362 807.188ZM445.696 807.188C439.848 807.188 435.053 801.696 435.053 795.009C435.053 788.321 439.746 782.82 445.696 782.82C451.647 782.82 456.443 788.311 456.34 795.009C456.34 801.696 451.647 807.188 445.696 807.188Z" fill="white"/>
<path d="M553.481 458.642C553.481 458.836 553.481 459.127 553.481 459.322C553.384 465.338 552.899 470.773 552.122 475.819C552.122 476.013 552.025 476.305 552.025 476.499C552.025 476.79 551.928 477.081 551.831 477.372C551.734 477.954 552.025 477.852 551.831 478.434C551.831 478.628 551.703 479.404 551.703 479.404C551.703 479.404 550.442 478.531 550.248 478.434C549.18 478.046 548.889 477.852 547.821 477.463C544.037 476.299 540.058 474.746 536.176 474.067C527.539 472.611 518.611 471.932 509.974 472.126C488.721 472.805 469.991 476.493 450.291 484.257C450 484.354 448.156 484.257 447.865 484.257C447.185 484.354 445.924 482.801 445.924 482.801C445.924 482.801 443.626 483.874 442.849 481.836C439.841 473.684 438.094 464.562 437.9 455.149C437.124 411.478 463.714 387.605 495.642 387.605C506.123 387.605 515.924 391.39 524.367 397.698C533.684 404.685 541.35 414.584 546.494 425.744C547.367 427.588 548.046 429.335 548.823 431.178C551.734 438.942 553.384 447.191 553.481 455.149C553.481 456.41 553.481 457.575 553.481 458.642Z" fill="#FFF3F0"/>
<path d="M552.122 475.82C552.025 476.111 551.928 476.402 551.928 476.596C551.831 476.887 551.734 477.081 551.637 477.372C551.443 477.76 551.346 478.246 551.152 478.634C551.055 478.925 550.957 479.119 550.86 479.41C549.793 479.022 548.725 478.731 547.658 478.343C543.873 477.178 539.894 476.305 536.012 475.625C536.401 474.655 536.789 473.685 537.08 472.617C543.776 451.267 536.692 421.959 518.253 397.601C517.865 397.116 517.574 396.63 517.186 396.145C516.895 395.757 521.456 396.922 524.561 397.601C525.92 397.892 526.987 398.086 527.278 398.086L530.869 399.057C531.257 398.96 533.101 401.289 533.295 401.677L546.687 424.385L548.046 426.715C548.24 426.909 548.725 429.82 549.017 431.179C549.114 431.567 549.114 431.858 549.114 431.858C550.569 440.301 552.898 449.52 553.675 458.545C553.675 458.934 553.772 459.225 553.772 459.613C553.966 465.242 553.675 470.676 552.122 475.82Z" fill="#F4DCD9"/>
<path opacity="0.3" d="M478.756 339.665C478.756 339.665 530.093 366.546 542.903 364.411C542.903 364.411 495.254 339.956 478.756 339.665Z" fill="black"/>
<path d="M479.046 338.015C492.244 333.162 506.995 334.133 520.096 338.791C530.48 342.382 540.281 349.369 545.231 359.462C546.783 362.567 543.484 366.061 540.281 364.799C530.286 360.432 521.066 354.707 511.071 350.34C506.121 348.205 501.075 346.361 495.737 344.711C490.4 343.061 484.868 341.605 479.24 340.247C478.172 340.053 477.978 338.403 479.046 338.015Z" fill="#FCF4E3"/>
<path d="M547.365 423.027C559.108 431.761 566.095 431.567 566.095 431.567C566.095 431.567 555.226 433.508 557.167 465.921C558.04 480.866 548.821 440.301 548.821 440.301C548.821 440.301 544.745 421.086 547.365 423.027Z" fill="#0A0A0A"/>
<path d="M557.457 448.938C556.875 442.727 555.516 436.613 553.284 430.79C552.605 429.043 551.926 427.393 551.149 425.647C542.9 407.402 527.858 391.487 508.158 386.246C495.445 383.044 481.665 385.373 470.019 391.196C446.631 402.938 435.083 430.014 435.762 455.343C435.853 464.618 437.733 474.063 441.163 482.801L445.321 483.62C444.905 482.565 444.533 481.495 444.205 480.38C441.391 472.228 439.935 463.591 439.838 455.148C439.159 430.208 447.214 405.364 471.669 394.786C486.129 388.769 503.5 388.478 516.989 396.921C517.28 397.115 517.669 397.309 517.96 397.601C537.078 410.119 548.529 433.993 548.917 456.604C549.111 462.912 548.82 469.511 547.85 475.916C547.753 476.595 547.656 477.178 547.559 477.857C547.559 478.051 547.462 478.148 547.462 478.342C548.529 478.633 549.597 479.022 550.664 479.41C550.858 479.507 551.052 479.507 551.246 479.604C552.508 480.089 553.769 480.477 555.031 481.06C555.128 480.865 555.128 480.574 555.225 480.38C555.322 479.992 555.419 479.701 555.419 479.313C555.419 479.216 555.419 479.119 555.516 479.022C555.71 478.342 555.807 477.566 556.002 476.887C556.487 474.46 556.875 471.937 557.069 469.414C557.942 462.718 558.137 455.731 557.457 448.938Z" fill="#0A0A0A"/>
<path d="M570.753 489.503C565.901 486.106 560.66 483.292 555.129 481.06C553.867 480.575 552.605 480.089 551.344 479.604C551.15 479.507 550.956 479.507 550.762 479.41C549.694 479.022 548.627 478.731 547.559 478.343C543.774 477.178 539.795 476.305 535.914 475.625C527.277 474.17 518.542 473.684 509.905 473.878C490.071 474.512 470.575 479.203 452.048 486.137L442.529 483.286C442.917 482.704 443.817 480.866 444.4 480.478C444.691 480.283 445.079 480.089 445.37 479.992C474.484 470.288 506.994 465.435 536.981 472.714C540.669 473.587 544.357 474.655 548.044 476.013C549.112 476.402 550.179 476.79 551.247 477.178C551.344 477.275 551.538 477.275 551.635 477.372C551.732 477.372 551.829 477.469 551.829 477.469C553.091 477.954 554.352 478.537 555.614 479.119C555.808 479.216 556.099 479.313 556.293 479.41C556.778 479.604 557.167 479.798 557.555 479.992C562.504 482.418 567.162 485.136 571.432 488.726C571.917 489.115 571.335 489.988 570.753 489.503Z" fill="#0A0A0A"/>
<path d="M570.753 480.575C564.737 479.216 558.526 479.216 552.509 479.507C551.635 479.507 550.956 478.925 550.956 478.051C550.859 477.178 551.732 476.402 552.606 476.499C558.72 477.275 565.222 478.148 570.753 480.575Z" fill="#0A0A0A"/>
<path d="M500.682 457.571C510.58 452.913 514.948 441.268 510.289 431.466C505.728 421.664 493.986 417.491 484.087 422.053C474.188 426.711 469.821 438.356 474.48 448.158C478.944 457.959 490.783 462.132 500.682 457.571Z" fill="#0A0A0A"/>
<path d="M498.949 454.58C507.245 450.68 510.827 440.881 506.962 432.604C503.192 424.327 493.388 420.807 485.092 424.708C476.796 428.608 473.214 438.407 477.079 446.684C480.944 454.866 490.748 458.386 498.949 454.58Z" fill="#7B529B"/>
<path opacity="0.3" d="M508.317 440L498.613 440.388L508.123 442.912L508.317 440Z" fill="white"/>
<path opacity="0.3" d="M505.607 429.911L496.187 435.633L507.25 433.11L505.607 429.911Z" fill="white"/>
<path opacity="0.3" d="M477.464 432.24L490.303 437.972L480.375 427.97L477.464 432.24Z" fill="white"/>
<path opacity="0.3" d="M496.963 455.042L493.663 441.941L492.79 456.013L496.963 455.042Z" fill="white"/>
<path opacity="0.3" d="M496.873 424.088L495.902 432.143L499.784 425.059L496.873 424.088Z" fill="white"/>
<path d="M496.254 448.222C501.301 445.893 503.436 439.973 501.107 435.023C498.778 430.074 492.858 427.939 487.909 430.268C482.862 432.597 480.727 438.517 483.056 443.466C485.385 448.416 491.305 450.551 496.254 448.222Z" fill="#0A0A0A"/>
<path opacity="0.15" d="M277.163 462.122C280.754 431.844 310.838 396.617 340.534 397.878C385.951 399.819 398.567 441.646 398.955 481.143L337.816 466.101L277.163 462.122Z" fill="black"/>
<path opacity="0.2" d="M340.534 397.878C342.475 397.878 344.416 397.975 346.356 398.17C346.453 398.17 346.453 398.267 346.356 398.267C293.952 410.785 299.872 455.912 300.163 457.367C300.163 457.367 301.23 462.608 301.133 462.608L298.028 462.123L296.96 462.025L277.163 461.928C277.163 461.928 277.066 461.928 277.066 461.831C280.754 431.747 310.838 397.878 340.534 397.878Z" fill="black"/>
<path d="M403.516 482.017C382.069 473.283 359.36 468.14 336.555 464.84C316.66 462.123 296.378 460.958 276.386 461.832L267.749 462.123C267.264 462.123 266.876 462.608 266.876 463.093C266.876 463.578 267.361 463.967 267.846 463.967L276.386 463.773C307.635 463.287 339.175 467.072 369.356 475.321C380.225 478.232 384.613 479.104 394.803 483.665C397.908 485.121 406.524 483.473 403.516 482.017Z" fill="#0A0A0A"/>
<path d="M400.702 482.308C379.546 481.92 357.225 485.802 338.205 495.118L334.42 497.059C333.837 497.35 334.226 498.321 334.905 498.029C336.264 497.447 339.466 496.089 340.728 495.506C341.892 495.021 345.386 493.759 346.647 493.371L350.626 492.11C361.398 489.004 372.559 487.354 383.719 486.869C389.153 486.675 386.069 486.384 391.407 486.869C394.706 487.063 404.001 482.599 400.702 482.308Z" fill="#0A0A0A"/>
<path d="M406.62 481.831C387.696 466.595 362.174 454.165 338.786 447.76C337.913 447.566 337.525 448.827 338.398 449.119C344.027 451.059 349.752 453.097 355.09 455.621C365.959 460.473 376.343 466.587 385.95 473.477C390.802 476.971 395.558 480.658 399.828 484.637C399.826 484.15 406.62 481.831 406.62 481.831Z" fill="#0A0A0A"/>
<path opacity="0.3" d="M375.081 371.288C375.081 371.288 319.668 388.271 307.537 383.807C307.537 383.807 358.874 368.668 375.081 371.288Z" fill="black"/>
<path d="M375.179 369.638C363.145 362.36 348.394 360.71 334.614 362.845C323.744 364.495 312.875 369.541 306.082 378.469C303.947 381.284 306.665 385.36 309.964 384.583C320.542 382.157 330.732 378.178 341.31 375.752C346.55 374.588 351.888 373.714 357.419 373.035C362.951 372.356 368.579 371.967 374.499 371.676C375.664 371.773 376.149 370.221 375.179 369.638Z" fill="#FCF4E3"/>
<path opacity="0.3" d="M357.611 505.122C357.611 505.122 344.024 515.797 330.923 520.164C330.923 520.164 333.349 520.649 349.847 521.134C354.603 520.305 354.257 510.942 354.257 510.942L357.611 505.122Z" fill="black"/>
<path opacity="0.3" d="M491.048 507.062C491.048 507.062 505.12 519.679 520.162 526.297C520.162 526.297 517.736 526.472 500.753 526.297C495.998 525.468 496.343 516.104 496.343 516.104L491.048 507.062Z" fill="black"/>
<path d="M500.88 526.365L498.076 526.578L495.261 526.821C494.572 510.11 475.687 497.601 459.355 490.274C452.628 487.253 445.744 484.596 438.732 482.316C446.213 482.851 453.593 484.358 460.684 486.799C480.142 493.447 499.706 507.761 500.88 526.365Z" fill="#0A0A0A"/>
<path d="M410.502 480.889H410.842C403.841 483.144 396.97 485.781 390.259 488.789C375.042 495.582 357.68 506.849 354.72 521.784L354.458 521.716C353.575 521.571 352.721 521.445 351.916 521.338C350.945 521.202 350.023 521.095 349.179 520.998C352.702 503.53 372.47 490.817 388.871 485.286C395.819 483.034 403.428 481.054 410.483 480.88L410.502 480.889Z" fill="#0A0A0A"/>
<path d="M448.234 534.973C448.235 535.765 448.117 536.554 447.884 537.311C446.05 543.503 437.015 548.2 426.156 548.2C415.297 548.2 406.262 543.503 404.428 537.311C404.195 536.554 404.077 535.765 404.078 534.973C404.076 534.507 404.119 534.042 404.204 533.585C405.359 526.937 414.743 521.745 426.156 521.745C437.569 521.745 446.885 526.898 448.098 533.517C448.187 533.997 448.233 534.484 448.234 534.973Z" fill="#4C1200"/>
<path d="M459.704 524.152C459.668 526.326 458.936 528.431 457.617 530.159C455.608 532.954 452.222 535.419 447.913 537.311C433.949 542.811 418.419 542.811 404.456 537.311C399.73 535.254 396.129 532.517 394.198 529.402C393.193 527.834 392.648 526.015 392.626 524.152C392.626 514.612 407.649 506.878 426.184 506.878C444.72 506.878 459.704 514.612 459.704 524.152Z" fill="#0A0A0A"/>
<path d="M457.618 530.159C455.61 532.954 452.223 535.419 447.914 537.312C446.08 543.503 437.045 548.2 426.185 548.2C415.326 548.2 406.291 543.503 404.457 537.312C399.731 535.254 396.13 532.518 394.199 529.402C397.409 531.101 400.768 532.501 404.234 533.585C414.181 536.749 429.388 538.981 448.127 533.517C451.348 532.566 454.516 531.445 457.618 530.159V530.159Z" fill="black"/>
<path d="M413.773 524.162C419.133 524.162 423.478 522.241 423.478 519.872C423.478 517.503 419.133 515.583 413.773 515.583C408.414 515.583 404.069 517.503 404.069 519.872C404.069 522.241 408.414 524.162 413.773 524.162Z" fill="#701D07"/>
<path opacity="0.4" d="M374.532 509.784C376.684 507.801 377.793 505.503 377.008 504.652C376.224 503.8 373.843 504.718 371.691 506.701C369.539 508.684 368.43 510.982 369.215 511.833C369.999 512.684 372.38 511.767 374.532 509.784Z" fill="black"/>
<path opacity="0.4" d="M387.095 501.195C389.71 499.882 391.409 497.978 390.889 496.943C390.369 495.909 387.828 496.136 385.213 497.449C382.598 498.763 380.9 500.667 381.42 501.702C381.94 502.736 384.481 502.509 387.095 501.195Z" fill="black"/>
<path opacity="0.4" d="M384.383 509.97C386.818 508.347 388.271 506.25 387.629 505.287C386.987 504.324 384.492 504.859 382.057 506.482C379.622 508.105 378.169 510.202 378.811 511.165C379.453 512.129 381.948 511.593 384.383 509.97Z" fill="black"/>
<path d="M426.598 569.443C425.955 569.443 425.337 569.187 424.882 568.732C424.427 568.277 424.172 567.66 424.172 567.017V548.2C424.172 547.556 424.427 546.939 424.882 546.484C425.337 546.029 425.955 545.774 426.598 545.774C427.241 545.774 427.859 546.029 428.314 546.484C428.769 546.939 429.024 547.556 429.024 548.2V567.017C429.024 567.66 428.769 568.277 428.314 568.732C427.859 569.187 427.241 569.443 426.598 569.443V569.443Z" fill="#0A0A0A"/>
<path d="M490.621 581.506C487.334 588.9 483.302 595.94 478.587 602.516C477.616 603.923 476.52 605.35 475.384 606.786C464.506 620.615 447.872 634.929 425.717 634.929C407.006 634.929 392.653 622.313 382.667 608.727C381.328 606.912 380.057 605.069 378.873 603.244C373.474 594.905 369.009 585.998 365.558 576.683C365.558 576.683 366.276 576.362 367.615 575.819C374.719 572.908 399.291 563.844 426.173 563.747C452.142 563.659 479.839 576.13 488.156 580.186C489.776 581.03 490.621 581.506 490.621 581.506Z" fill="#892933"/>
<path d="M468.729 606.489C458.595 620.34 443.1 634.677 422.461 634.677C405.032 634.677 391.661 622.041 382.359 608.433L382.684 607.704C382.684 607.704 384.339 594.873 394.654 592.598C405.737 590.139 410.112 595.777 421.286 595.777C421.955 595.777 422.633 595.777 423.347 595.719C424.062 595.66 424.685 595.621 425.318 595.563C436.6 594.494 441.22 590.615 451.155 592.482C458.315 593.891 464.734 601.58 468.729 606.489Z" fill="#F7A19B"/>
<path d="M488.162 580.244C484.173 585.097 478.157 591.162 472.246 592.191C462.105 593.967 444.162 584.349 426.179 583.845C408.196 583.34 397.065 589.405 384.449 589.153C375.997 588.988 370.426 581.098 367.651 575.877C374.755 572.966 399.327 563.902 426.208 563.805C452.148 563.718 479.845 576.188 488.162 580.244Z" fill="#FFF3F0"/>
<path d="M478.586 602.516C467.911 617.481 450.171 634.958 425.715 634.978C404.482 634.978 388.838 618.664 378.872 603.302C380.213 603.208 381.554 603.48 382.753 604.088C385.888 605.864 396.961 617.413 425.347 617.209C453.732 617.005 465.135 605.049 472.2 603.292C474.291 602.787 476.434 602.526 478.586 602.516V602.516Z" fill="#FFF3F0"/>
<path d="M469.274 594.355C464.257 594.355 458.153 592.637 451.292 590.715C443.47 588.522 434.6 586.028 425.885 585.786C416.278 585.504 408.805 587.135 401.624 588.697C395.714 589.988 390.124 591.181 384.156 591.084C374.597 590.9 368.483 582.04 365.717 576.78L369.153 574.955C371.55 579.468 376.703 587.057 384.272 587.202C389.755 587.309 395.132 586.145 400.77 584.902C407.874 583.359 415.919 581.593 426.002 581.894C435.192 582.156 444.295 584.708 452.34 586.97C460.21 589.172 467.013 591.084 471.672 590.269C475.825 589.551 481.056 585.553 486.422 579.002L489.421 581.467C485.209 586.601 478.824 592.967 472.341 594.083C471.329 594.265 470.303 594.356 469.274 594.355V594.355Z" fill="black"/>
<path d="M424.382 619.15C399.781 619.15 388.155 610.571 383.157 606.883C382.653 606.488 382.128 606.118 381.585 605.777C380.683 605.333 379.675 605.148 378.674 605.243L378.538 601.361C380.252 601.24 381.966 601.6 383.487 602.4C384.157 602.82 384.804 603.273 385.428 603.758C390.164 607.252 401.256 615.481 425.081 615.268C445.325 615.122 456.631 608.921 464.113 604.816C466.424 603.391 468.896 602.248 471.479 601.41C473.704 600.876 475.983 600.596 478.272 600.575V604.457C476.284 604.468 474.304 604.709 472.371 605.175C470.119 605.949 467.958 606.968 465.928 608.213C458.106 612.512 446.286 618.994 425.062 619.15H424.382Z" fill="black"/>
<path d="M425.68 637.889C407.503 637.889 390.482 626.477 376.43 604.894C370.913 596.365 366.356 587.252 362.843 577.721L361.979 575.198L364.415 574.111C364.415 574.111 365.163 573.781 366.56 573.209C373.596 570.355 398.711 561.02 426.204 560.923H426.476C453.095 560.923 481.404 573.723 489.468 577.663C491.157 578.478 492.079 578.973 492.079 578.973L494.398 580.225L493.428 582.651C490.01 590.247 485.818 597.469 480.918 604.205C469.943 619.567 451.455 637.87 425.68 637.889V637.889ZM369.316 578.352C372.574 586.507 376.603 594.332 381.35 601.72C390.365 615.569 405.369 632.067 425.719 632.067C449.01 632.067 466.051 615.064 476.231 600.828C480.278 595.147 483.833 589.131 486.858 582.845C478.977 579.031 451.805 566.716 426.447 566.716H426.185C400.429 566.813 376.769 575.353 369.316 578.352Z" fill="black"/>
<path d="M425.963 595.107C425.963 595.107 448.671 587.829 458.279 602.095C467.886 616.36 469.148 646.93 459.346 659.157C449.545 671.385 430.815 672.161 430.815 672.161C430.815 672.161 397.043 673.52 392.579 639.263C392.579 639.263 388.212 605.879 391.123 596.951C391.317 596.466 391.414 596.078 391.512 595.981C397.431 590.255 416.84 591.323 425.963 595.107Z" fill="#F7A19B"/>
<path d="M431.983 625.968L432.08 621.504C431.886 612.478 430.818 602.968 426.451 595.01C426.16 595.107 425.966 595.107 425.966 595.107C425.772 595.01 425.578 594.913 425.287 594.816C429.46 604.327 428.974 615.39 427.713 625.483C427.519 626.744 428.489 628.006 429.751 628.006C431.012 628.103 431.983 627.132 431.983 625.968Z" fill="#DB8989"/>
<path opacity="0.3" d="M427.485 390.317C332.574 390.414 233.491 443.11 221.554 449.418C209.618 455.726 165.365 460.869 180.892 432.629C183.318 428.262 185.55 423.701 187.491 419.043C189.723 413.899 191.47 408.562 192.635 403.03C194.576 398.954 196.322 394.878 197.875 390.705C198.846 389.638 199.719 388.473 200.495 387.406C204.668 382.457 208.259 377.895 211.267 374.014C212.82 372.073 214.179 370.326 215.44 368.676C217.284 366.347 218.643 364.406 219.807 363.047L220.39 362.271C226.698 353.537 232.714 345.385 238.44 337.816C243.001 331.799 247.368 326.17 251.638 320.93C254.55 317.242 257.558 313.748 260.275 310.352L262.313 307.829C264.642 305.014 266.972 302.297 269.204 299.774C271.824 296.765 274.444 293.854 276.87 291.04C286.381 280.365 294.727 271.922 301.52 265.323C315.397 251.93 323.161 246.302 323.161 246.302C324.811 244.943 326.46 243.584 328.304 242.323C335.486 237.082 343.249 232.424 351.304 228.542C360.232 224.175 369.452 220.585 379.059 217.77L381.097 217.188C384.105 216.315 387.308 215.538 390.413 214.762C426.029 203.214 471.932 211.365 482.412 213.5C483.868 213.792 484.547 213.986 484.547 213.986L485.809 214.277C495.417 216.315 504.733 219.226 513.855 222.817C522.977 226.407 531.809 230.774 540.154 235.724C540.154 235.724 568.007 246.593 609.445 305.791C615.171 313.942 621.09 322.968 627.204 332.963C632.542 341.6 637.879 350.917 643.508 361.01C645.158 363.921 646.807 366.735 648.554 369.549C649.816 371.782 651.174 373.917 652.533 376.052C654.862 379.933 657.288 383.718 659.714 387.309C662.82 392.064 666.022 396.625 669.031 400.992V406.524C673.398 412.541 668.643 413.414 672.816 418.654C673.301 419.819 677.668 423.507 677.668 423.507C700.668 483.772 522.395 390.22 427.485 390.317Z" fill="#0A0A0A"/>
<path d="M605.758 409.726C602.555 408.852 599.256 407.882 595.956 406.912C542.484 390.996 471.835 365.085 424.865 365.085C334.71 365.182 240.478 417.878 229.221 424.283C219.808 429.523 189.238 433.987 187.589 419.236C187.201 416.228 188.074 412.346 190.597 407.591C191.373 406.135 192.053 404.68 192.732 403.224C205.057 377.895 202.728 364.891 202.728 364.891C202.728 364.891 186.812 272.018 192.732 224.272C194.091 213.209 196.614 204.669 200.787 200.108C233.2 164.589 332.381 134.893 390.414 123.345C405.068 120.433 417.101 118.687 424.865 118.298C462.907 116.455 619.15 157.408 644.673 189.627C648.166 193.994 650.69 200.69 652.534 208.939C662.82 254.259 651.757 346.549 650.301 358.001C650.301 358.098 650.301 358.098 650.301 358.195C650.204 358.874 650.204 359.165 650.204 359.165C650.204 359.165 650.69 359.942 651.563 361.397C658.259 372.752 663.888 384.688 668.449 397.013C678.93 425.447 649.525 422.148 605.758 409.726Z" fill="#5865F2"/>
<path d="M249.309 341.697C249.309 341.697 246.106 374.499 257.946 374.304C278.034 373.916 377.409 340.727 429.619 340.727C482.703 340.727 597.314 394.684 607.115 385.076C616.82 375.469 612.065 352.178 612.065 352.178L602.942 339.756L599.837 343.638L599.255 358.68L598.478 365.085L590.618 364.115L556.361 355.089L512.496 340.242L457.083 325.685L426.32 322.094L391.092 325.394L357.903 332.187L334.806 338.106L313.359 344.9L303.072 347.908L285.119 355.089L272.6 356.739C272.6 356.739 268.912 355.187 268.621 354.798C268.33 354.41 267.553 346.452 267.553 346.452L267.747 332.672L250.667 338.98L249.309 341.697Z" fill="#434FD9"/>
<path d="M650.107 359.068C650.107 359.068 650.592 359.845 651.465 361.3L592.947 338.204C596.247 189.53 470.67 140.425 390.413 123.248C405.067 120.337 417.101 118.59 424.864 118.202C462.906 116.358 619.246 157.408 644.672 189.53C648.166 193.897 650.689 200.593 652.533 208.842C663.499 257.268 650.107 359.068 650.107 359.068Z" fill="#434FD9"/>
<path d="M605.757 409.726C602.555 408.853 599.255 407.882 595.956 406.912C603.04 339.756 515.99 311.516 514.923 310.837L650.301 357.904C650.301 358.001 650.301 358.001 650.301 358.098C650.204 358.777 650.204 359.068 650.204 359.068C650.204 359.068 650.689 359.845 651.563 361.3C658.259 372.655 663.888 384.591 668.449 396.916C678.93 425.447 649.525 422.148 605.757 409.726Z" fill="#434FD9"/>
<path d="M214.664 354.507C214.664 354.507 200.593 305.888 201.272 240.188C201.466 225.922 200.301 203.699 218.158 196.032C236.014 188.366 307.343 142.56 434.278 127.712L461.354 140.716L434.181 136.931L413.704 137.805L381.097 144.404L347.811 155.176L316.562 163.91L286.187 175.459L257.946 185.357L235.432 195.741L216.605 205.446L211.753 214.374L209.521 229.416L210.491 269.204L214.567 302.2L219.808 336.748L221.166 350.82L214.664 354.507Z" fill="#434FD9"/>
<path d="M205.833 432.046C198.846 432.046 192.247 430.688 188.268 426.903C184.871 423.7 181.96 417.393 187.879 406.135C201.757 379.545 199.816 365.57 199.816 365.279C199.719 364.503 193.702 329.372 190.5 291.719C186.133 240.188 188.85 208.745 198.554 198.07C239.411 153.235 385.367 117.231 424.67 115.387C443.885 114.417 492.505 124.121 540.349 138.387C566.939 146.345 630.601 167.015 647.002 187.783C670.487 217.479 655.056 344.608 653.212 358.389C660.394 370.325 666.411 382.941 671.263 395.945C674.66 405.262 674.174 412.152 670.001 416.616C658.065 428.844 620.702 417.975 560.631 399.051C514.34 384.494 461.936 367.996 424.962 367.996H424.864C403.903 367.996 327.819 372.266 230.677 426.806C226.018 429.329 215.537 432.046 205.833 432.046ZM205.639 364.309C205.736 364.988 208.065 380.127 193.12 408.853C189.723 415.355 189.432 420.013 192.344 422.73C199.04 429.038 220.196 425.933 227.765 421.76C252.609 407.785 340.435 362.271 424.864 362.271H424.962C462.906 362.271 515.796 378.963 562.475 393.616C608.377 408.076 655.736 422.924 665.731 412.734C668.352 410.114 668.352 405.165 665.731 398.081C660.976 385.076 654.959 372.558 647.681 360.718L647.099 359.845L647.196 358.777C647.39 357.418 665.052 220.293 642.246 191.471C631.571 177.981 592.85 160.222 538.602 144.015C491.438 129.944 443.594 120.336 424.962 121.21C406.523 122.083 361.591 131.108 314.621 145.956C282.79 156.049 226.018 176.72 202.922 202.049C194.576 211.171 192.247 242.905 196.322 291.33C199.622 328.79 205.639 364.018 205.639 364.309Z" fill="#0A0A0A"/>
<path d="M204.765 366.832L200.689 362.659C201.174 362.174 212.14 351.79 221.36 348.393C222.233 348.102 224.659 347.132 228.347 345.676C324.713 308.605 384.008 289.584 404.776 289.002C442.526 287.934 453.298 288.419 458.442 289.002C465.429 289.778 630.988 348.005 651.271 356.254L649.039 361.592C625.748 352.178 464.847 295.892 457.762 294.727C450.484 293.951 434.18 293.951 404.97 294.727C380.029 295.407 296.376 325.685 230.579 351.014C226.891 352.469 224.465 353.343 223.495 353.731C215.343 356.836 204.862 366.735 204.765 366.832Z" fill="#0A0A0A"/>
<path d="M634.871 352.566L628.951 351.79C629.146 350.529 644.867 225.825 628.563 200.69C621.673 190.015 586.737 175.167 535.206 160.805C492.311 148.868 444.953 139.552 427.485 139.455C410.599 139.455 363.92 151.1 313.845 167.792C261.44 185.26 223.496 202.243 217.091 210.88C213.791 215.344 209.23 231.357 215.732 287.546C219.517 319.959 225.145 350.237 225.242 350.529L219.42 351.596C219.323 351.305 213.694 320.833 209.909 288.225C204.669 243.196 205.542 216.8 212.335 207.484C223.107 192.83 291.33 169.151 312.001 162.26C354.798 147.995 407.106 133.535 427.582 133.535C445.827 133.535 492.797 142.851 536.855 155.079C568.395 163.813 622.935 180.99 633.61 197.391C651.078 224.466 635.551 347.326 634.871 352.566Z" fill="#0A0A0A"/>
<path d="M595.373 368.094C589.356 368.094 575.575 363.727 549.664 355.187C512.302 342.959 461.062 326.17 429.619 325.2C386.725 323.841 312.291 347.52 284.245 356.351C278.713 358.098 275.026 359.262 273.473 359.651C272.405 359.942 271.338 359.942 270.367 359.748C269.3 359.457 268.427 358.971 267.65 358.292C262.507 353.343 265.806 337.427 266.971 332.672L272.697 334.031C270.756 342.182 269.979 352.76 271.823 354.216C271.92 354.216 272.114 354.216 272.211 354.119C273.57 353.828 277.355 352.566 282.692 350.917C310.932 341.891 386.143 318.115 430.007 319.474C462.323 320.541 514.049 337.427 551.702 349.752C571.597 356.254 592.17 363.047 595.955 362.368C596.149 362.368 596.343 362.271 596.44 362.174C596.634 362.077 596.731 361.883 596.828 361.689C599.06 358.292 597.993 347.714 596.537 341.212L602.263 339.95C602.942 342.959 606.145 358.292 601.681 364.891C601.195 365.765 600.419 366.444 599.643 367.026C598.866 367.608 597.896 367.997 596.925 368.094C596.343 367.997 595.858 368.094 595.373 368.094Z" fill="#0A0A0A"/>
<path d="M465.993 196.147C459.083 192.92 451.695 190.574 443.97 189.239C443.021 190.951 441.913 193.254 441.149 195.086C432.937 193.853 424.801 193.853 416.741 195.086C415.977 193.254 414.843 190.951 413.886 189.239C406.153 190.574 398.756 192.928 391.846 196.164C377.908 217.189 374.13 237.691 376.019 257.902C385.263 264.793 394.222 268.98 403.03 271.719C405.205 268.731 407.144 265.555 408.815 262.208C405.633 261.001 402.585 259.512 399.705 257.782C400.469 257.217 401.216 256.627 401.938 256.019C419.503 264.22 438.588 264.22 455.943 256.019C456.674 256.627 457.421 257.217 458.176 257.782C455.288 259.52 452.232 261.01 449.05 262.217C450.721 265.555 452.652 268.74 454.835 271.727C463.651 268.988 472.618 264.802 481.862 257.902C484.079 234.472 478.076 214.158 465.993 196.147ZM411.208 245.473C405.935 245.473 401.611 240.559 401.611 234.575C401.611 228.591 405.843 223.669 411.208 223.669C416.573 223.669 420.897 228.583 420.805 234.575C420.813 240.559 416.573 245.473 411.208 245.473ZM446.674 245.473C441.401 245.473 437.077 240.559 437.077 234.575C437.077 228.591 441.308 223.669 446.674 223.669C452.039 223.669 456.363 228.583 456.271 234.575C456.271 240.559 452.039 245.473 446.674 245.473Z" fill="#4350D9"/>
<path d="M465.993 188.384C459.083 185.156 451.695 182.811 443.97 181.475C443.021 183.187 441.913 185.49 441.149 187.322C432.937 186.089 424.801 186.089 416.741 187.322C415.977 185.49 414.843 183.187 413.886 181.475C406.153 182.811 398.756 185.165 391.846 188.401C377.908 209.425 374.13 229.927 376.019 250.139C385.263 257.03 394.222 261.216 403.03 263.955C405.205 260.968 407.144 257.792 408.815 254.445C405.633 253.238 402.585 251.748 399.705 250.019C400.469 249.454 401.216 248.863 401.938 248.255C419.503 256.456 438.588 256.456 455.943 248.255C456.674 248.863 457.421 249.454 458.176 250.019C455.288 251.757 452.232 253.246 449.05 254.453C450.721 257.792 452.652 260.976 454.835 263.964C463.651 261.224 472.618 257.038 481.862 250.139C484.079 226.709 478.076 206.395 465.993 188.384ZM411.208 237.709C405.935 237.709 401.611 232.795 401.611 226.811C401.611 220.828 405.843 215.905 411.208 215.905C416.573 215.905 420.897 220.819 420.805 226.811C420.813 232.795 416.573 237.709 411.208 237.709ZM446.674 237.709C441.401 237.709 437.077 232.795 437.077 226.811C437.077 220.828 441.308 215.905 446.674 215.905C452.039 215.905 456.363 220.819 456.271 226.811C456.271 232.795 452.039 237.709 446.674 237.709Z" fill="white"/>
</g>
<defs>
<clipPath id="clip0_163_22">
<rect width="854" height="854" fill="white"/>
</clipPath>
</defs>
</svg>
