<?xml version="1.0" encoding="utf-8"?>
<!-- Generator: Adobe Illustrator 24.2.3, SVG Export Plug-In . SVG Version: 6.00 Build 0)  -->
<svg version="1.1" id="Layer_1" xmlns="http://www.w3.org/2000/svg" xmlns:xlink="http://www.w3.org/1999/xlink" x="0px" y="0px"
	 viewBox="0 0 400 400" style="enable-background:new 0 0 400 400;" xml:space="preserve">
<style type="text/css">
	.st0{fill:url(#SVGID_1_);}
	.st1{fill:#FF450B;}
	.st2{fill:#010202;}
	.st3{fill-rule:evenodd;clip-rule:evenodd;fill:#000201;}
	.st4{fill:#000201;}
	.st5{fill:#FFBF2D;stroke:#010202;stroke-width:1.6;stroke-miterlimit:10;}
	.st6{fill-rule:evenodd;clip-rule:evenodd;fill:#FF440B;}
	.st7{fill:none;stroke:#000201;stroke-width:2;}
	.st8{fill:#010202;stroke:#010202;stroke-width:1.6;stroke-miterlimit:10;}
	.st9{fill:#FFFFFF;}
</style>
<linearGradient id="SVGID_1_" gradientUnits="userSpaceOnUse" x1="11.5249" y1="388.3651" x2="399.9999" y2="-0.1104" gradientTransform="matrix(1 0 0 -1 0 399.8898)">
	<stop  offset="0" style="stop-color:#FBDA61"/>
	<stop  offset="1" style="stop-color:#FFC371"/>
</linearGradient>
<path class="st0" d="M400,200C400,89.5,310.5,0,200,0l0,0C89.5,0,0,89.5,0,200l0,0c0,110.5,89.5,200,200,200l0,0
	C310.5,400,400,310.5,400,200L400,200z"/>
<g>
	<path class="st1" d="M350.2,179.3L350.2,179.3l11.7-6.7l-1.5-2.5c-0.8,0.5-1.7,0.8-2.7,0.9c-0.9,0.1-1.9,0.1-2.8-0.2
		c-0.9-0.2-1.8-0.7-2.5-1.3c-0.8-0.6-1.4-1.3-1.9-2.1c-0.5-0.8-0.8-1.7-0.9-2.7c-0.1-0.9-0.1-1.9,0.2-2.8c0.5-1.9,1.7-3.4,3.4-4.4
		l-2.5-4.2c-1.7,1-3.7,1.2-5.5,0.7c-1.9-0.5-3.4-1.7-4.4-3.4c-1-1.7-1.2-3.7-0.7-5.5c0.5-1.9,1.7-3.4,3.4-4.4l-2.4-4.3
		c-1.7,1-3.6,1.2-5.5,0.7s-3.4-1.7-4.4-3.4s-1.2-3.6-0.7-5.5c0.5-1.9,1.7-3.4,3.4-4.4l-2.4-4.3c-1.7,1-3.6,1.2-5.5,0.7
		s-3.4-1.7-4.4-3.4c-1-1.7-1.2-3.6-0.7-5.5c0.5-1.9,1.7-3.4,3.4-4.4l-2.5-4.3c-0.8,0.5-1.7,0.8-2.7,0.9c-0.9,0.1-1.9,0.1-2.8-0.2
		c-0.9-0.2-1.8-0.7-2.5-1.3c-0.8-0.6-1.4-1.3-1.9-2.1c-0.5-0.8-0.8-1.7-0.9-2.7c-0.1-0.9-0.1-1.9,0.2-2.8c0.2-0.9,0.7-1.8,1.3-2.5
		c0.6-0.8,1.3-1.4,2.1-1.9l-2.6-4c-0.8,0.5-1.7,0.8-2.7,0.9c-0.9,0.1-1.9,0.1-2.8-0.2c-0.9-0.3-1.8-0.7-2.5-1.3
		c-0.8-0.6-1.4-1.3-1.9-2.1c-0.5-0.8-0.8-1.7-0.9-2.7c-0.1-0.9-0.1-1.9,0.2-2.8c0.2-0.9,0.7-1.8,1.3-2.5c0.6-0.8,1.3-1.4,2.1-1.9
		l-1.4-2.4l-11.7,6.7c-3.2,1.8-6.7,3-10.3,3.5s-7.3,0.2-10.9-0.7c-3.5-1-6.9-2.6-9.8-4.9c-2.9-2.2-5.4-5-7.2-8.2L56.8,180.5
		c1.8,3.2,3,6.7,3.5,10.3c0.5,3.6,0.2,7.3-0.7,10.9c-1,3.5-2.6,6.9-4.8,9.8s-5,5.3-8.2,7.2l-11.2,6.4l1.4,2.4c1.7-1,3.6-1.2,5.5-0.7
		s3.4,1.7,4.4,3.4s1.2,3.6,0.7,5.5c-0.5,1.9-1.7,3.4-3.4,4.4l2.4,4.3c1.7-1,3.6-1.2,5.5-0.7c1.9,0.5,3.4,1.7,4.4,3.4
		c1,1.7,1.2,3.7,0.7,5.5c-0.5,1.9-1.7,3.4-3.4,4.4l2.5,4.3c1.7-1,3.6-1.2,5.5-0.7c1.9,0.5,3.4,1.7,4.4,3.4s1.2,3.6,0.7,5.5
		s-1.7,3.4-3.4,4.4l2.4,4.3c1.7-1,3.6-1.2,5.5-0.7s3.4,1.7,4.4,3.4c1,1.7,1.2,3.6,0.7,5.5s-1.7,3.4-3.4,4.4l2.4,4.3
		c1.7-1,3.6-1.2,5.5-0.7c1.9,0.5,3.4,1.7,4.4,3.4c1,1.7,1.2,3.6,0.7,5.5c-0.5,1.9-1.7,3.4-3.4,4.4L85,312c1.7-1,3.6-1.2,5.5-0.7
		s3.4,1.7,4.4,3.4c1,1.7,1.2,3.6,0.7,5.5c-0.5,1.9-1.7,3.4-3.4,4.4l1.5,2.5l11.2-6.4l0,0c3.2-1.8,6.9-2.6,10.5-3.1s7.3-0.2,10.9,0.7
		c3.5,1,6.9,2.6,9.8,4.9c2.9,2.2,5.3,5,7.2,8.2l196.8-113.1c-3.7-6.4-4.7-14.1-2.8-21.2C339.2,189.5,343.7,183,350.2,179.3z"/>
	<path class="st2" d="M143,332.5l-0.4-0.7c-1.9-3.2-4.3-5.9-7-8c-2.7-2.1-5.9-3.7-9.5-4.8c-3.6-0.9-7.2-1.1-10.6-0.7
		c-3,0.4-6.9,1.1-10.2,3l-11.9,6.8l-2.3-3.9l0.7-0.4c1.5-0.9,2.6-2.3,3-3.9c0.5-1.7,0.2-3.4-0.6-4.9c-0.9-1.5-2.3-2.6-3.9-3
		c-1.7-0.5-3.4-0.2-4.9,0.6l-0.7,0.4l-3.3-5.7l0.7-0.4c1.5-0.9,2.6-2.3,3-3.9c0.5-1.7,0.2-3.4-0.6-4.9c-0.9-1.5-2.3-2.6-3.9-3
		c-1.7-0.5-3.4-0.2-4.9,0.6l-0.7,0.4l-3.2-5.7l0.7-0.4c1.5-0.9,2.6-2.3,3-3.9c0.5-1.7,0.2-3.4-0.6-4.9c-0.9-1.5-2.3-2.6-3.9-3
		c-1.7-0.5-3.4-0.2-4.9,0.6l-0.7,0.4l-3.2-5.7l0.7-0.4c1.5-0.9,2.6-2.3,3-3.9c0.5-1.7,0.2-3.4-0.6-4.9c-0.9-1.5-2.3-2.6-3.9-3
		c-1.7-0.5-3.4-0.2-4.9,0.6l-0.7,0.4l-3.3-5.7l0.7-0.4c1.5-0.9,2.6-2.3,3-3.9c0.5-1.7,0.2-3.4-0.6-4.9c-0.9-1.5-2.3-2.6-3.9-3
		c-1.7-0.5-3.4-0.2-4.9,0.6l-0.7,0.4l-3.2-5.7l0.7-0.4c1.5-0.9,2.6-2.3,3-3.9c0.5-1.7,0.2-3.4-0.6-4.9c-0.9-1.5-2.3-2.6-3.9-3
		c-1.7-0.5-3.4-0.2-4.9,0.6l-0.7,0.4l-2.2-3.8l11.9-6.8c3.2-1.9,5.9-4.3,8-7c2-2.7,3.7-6,4.7-9.5c0.9-3.7,1.1-7.2,0.7-10.6
		c-0.5-3.5-1.6-6.9-3.4-10l-0.4-0.7L253.8,66.3l0.4,0.7c1.7,3,4.1,5.8,7,8c2.7,2.1,5.9,3.7,9.5,4.8c3.7,0.9,7.2,1.1,10.6,0.7
		c3.5-0.5,6.9-1.6,10-3.4l12.4-7.1l2.2,3.8l-0.7,0.4c-0.8,0.5-1.4,1-1.9,1.7c-0.6,0.7-1,1.5-1.2,2.2c-0.2,0.7-0.3,1.6-0.2,2.5
		c0.1,0.9,0.4,1.7,0.8,2.4c0.5,0.8,1,1.4,1.7,1.9c0.6,0.5,1.3,0.9,2.3,1.2c0.7,0.2,1.5,0.3,2.5,0.2c0.9-0.1,1.7-0.4,2.4-0.8l0.7-0.4
		l3.5,5.3l-0.7,0.4c-0.8,0.5-1.4,1-1.9,1.7c-0.6,0.7-1,1.5-1.2,2.2c-0.2,0.7-0.3,1.6-0.2,2.5c0.1,0.9,0.4,1.7,0.8,2.4
		c0.5,0.8,1,1.4,1.7,1.9c0.7,0.6,1.5,1,2.2,1.2c0.7,0.2,1.6,0.3,2.5,0.2c0.9-0.1,1.7-0.4,2.4-0.8l0.7-0.4l3.3,5.7l-0.7,0.4
		c-1.5,0.9-2.6,2.3-3,3.9c-0.5,1.7-0.2,3.4,0.6,4.9c0.9,1.5,2.3,2.6,3.9,3c1.7,0.5,3.4,0.2,4.9-0.6l0.7-0.4l3.2,5.7l-0.7,0.4
		c-1.5,0.9-2.6,2.3-3,3.9c-0.5,1.7-0.2,3.4,0.6,4.9c0.9,1.5,2.3,2.6,3.9,3c1.7,0.5,3.4,0.2,4.9-0.6l0.7-0.4l3.2,5.7l-0.7,0.4
		c-1.5,0.9-2.6,2.3-3,3.9c-0.5,1.7-0.2,3.4,0.6,4.9c0.9,1.5,2.3,2.6,3.9,3c1.7,0.5,3.4,0.2,4.9-0.6l0.7-0.4l3.3,5.6l-0.7,0.4
		c-1.5,0.9-2.6,2.3-3,3.9c-0.2,0.7-0.3,1.5-0.2,2.5c0.1,0.9,0.4,1.7,0.8,2.4c0.5,0.8,1,1.4,1.7,1.9c0.7,0.6,1.5,1,2.2,1.2
		c0.7,0.2,1.6,0.3,2.5,0.2c0.9-0.1,1.7-0.4,2.4-0.8l0.7-0.4l2.3,3.9l-12.4,7.1c-6.2,3.5-10.6,9.7-12.5,17.3
		c-1.8,6.9-0.9,14.4,2.7,20.6l0.4,0.7L143,332.5z M119,316.6c2.4,0,5,0.3,7.5,1c3.9,1.1,7.3,2.8,10.1,5c2.7,2,5,4.6,7,7.7L339,218
		c-3.5-6.4-4.4-14.1-2.5-21.1c2-8.1,6.7-14.6,13.3-18.3l11-6.3l-0.7-1.1c-0.7,0.3-1.5,0.5-2.3,0.6c-1.2,0.1-2.2,0.1-3.1-0.2
		c-0.9-0.2-1.9-0.7-2.8-1.5c-0.8-0.6-1.5-1.3-2.1-2.3c-0.6-0.9-0.9-1.9-1-3c-0.1-1.2-0.1-2.2,0.2-3.1c0.5-1.8,1.5-3.3,3.1-4.4
		l-1.7-2.9c-1.7,0.8-3.6,0.9-5.4,0.4c-2.1-0.5-3.7-1.8-4.9-3.8c-1.1-1.8-1.4-4.1-0.8-6.1c0.5-1.8,1.5-3.3,3.1-4.4l-1.7-3
		c-1.7,0.8-3.5,0.9-5.4,0.4c-2.1-0.5-3.8-1.8-4.9-3.8c-1.1-1.8-1.4-4-0.8-6.1c0.5-1.8,1.5-3.3,3.1-4.5l-1.7-3
		c-1.7,0.8-3.5,0.9-5.4,0.4c-2.1-0.5-3.8-1.8-4.9-3.8c-1.1-1.8-1.4-3.9-0.8-6.1c0.5-1.8,1.5-3.3,3.1-4.5l-1.7-3
		c-0.7,0.3-1.5,0.5-2.3,0.6c-1.2,0.1-2.2,0.1-3.1-0.2c-0.9-0.2-1.9-0.7-2.8-1.5c-0.8-0.6-1.5-1.3-2.1-2.3c-0.6-0.9-0.9-1.9-1-3
		c-0.1-1.2-0.1-2.2,0.2-3.1c0.2-0.9,0.7-1.9,1.5-2.8c0.4-0.6,1-1.1,1.6-1.6l-1.8-2.7c-0.7,0.3-1.5,0.6-2.4,0.6
		c-1.2,0.1-2.2,0.1-3.1-0.2c-1.2-0.4-2.1-0.9-2.8-1.5c-0.8-0.6-1.5-1.3-2.1-2.3c-0.6-0.9-0.9-1.9-1-3c-0.1-1.2-0.1-2.2,0.2-3.1
		c0.2-0.9,0.7-1.9,1.5-2.8c0.4-0.6,1-1.1,1.6-1.6l-0.6-1.1l-11,6.3c-3.3,1.9-6.9,3.1-10.6,3.6c-3.6,0.5-7.3,0.3-11.2-0.7
		c-3.9-1.1-7.3-2.8-10.1-5c-2.8-2.1-5.2-4.8-7-7.7L57.9,180.8c1.7,3.1,2.7,6.4,3.2,9.9c0.5,3.6,0.3,7.3-0.7,11.2
		c-1.1,3.8-2.8,7.2-4.9,10.1c-2.2,2.9-5,5.4-8.4,7.4l-10.5,6l0.6,1c1.7-0.8,3.5-0.9,5.4-0.4c2.1,0.5,3.8,1.8,4.9,3.8
		c1.1,1.8,1.4,3.9,0.8,6.1c-0.5,1.8-1.5,3.3-3.1,4.5l1.7,3c1.7-0.8,3.5-0.9,5.4-0.4c2.1,0.5,3.8,1.8,4.9,3.8
		c1.1,1.8,1.4,4.1,0.8,6.1c-0.5,1.8-1.5,3.3-3.1,4.4l1.7,3c1.7-0.8,3.5-0.9,5.4-0.4c2.1,0.5,3.8,1.8,4.9,3.8c1.1,1.8,1.4,4,0.8,6.1
		c-0.5,1.8-1.5,3.3-3.1,4.5l1.7,3c1.7-0.8,3.5-0.9,5.4-0.4c2.1,0.5,3.8,1.8,4.9,3.8c1.1,1.8,1.4,4,0.8,6.1c-0.5,1.8-1.5,3.3-3.1,4.5
		l1.7,3c1.7-0.8,3.5-0.9,5.4-0.4c2.1,0.5,3.8,1.8,4.9,3.8c1.1,1.8,1.4,4,0.8,6.1c-0.5,1.8-1.5,3.3-3.1,4.5l1.7,3
		c1.7-0.8,3.5-0.9,5.4-0.4c2.1,0.5,3.8,1.8,4.9,3.8c1.1,1.8,1.4,3.9,0.8,6.1c-0.5,1.8-1.5,3.3-3.1,4.4L94,326l10.5-6
		c3.6-2,7.6-2.8,10.8-3.2C116.5,316.6,117.7,316.6,119,316.6z"/>
</g>
<path class="st3" d="M201.3,161.9c0.6-0.5,1.2-1,1.7-1.7c0.7-0.9,1.3-1.9,1.7-3c1.3,2.6,2.1,5.4,2.4,8.1v0.3
	c1.2,9.9-3.4,20-12.5,25.5c-9.2,5.1-20.3,4-28.3-1.9l-0.2-0.2c-2.2-1.7-4.2-3.8-5.8-6.2c1.1,0.2,2.3,0.2,3.4,0
	c0.8-0.1,1.5-0.3,2.3-0.6c-1.1-1-2.1-2.3-2.9-3.6c-5.5-8.3,0.7-18.2,0.7-18.2c2.5,3.8,5.4,6.1,7.3,7.3c1.1-2.7,3.1-5.1,5.8-6.7
	c2.8-1.6,6-2.1,9-1.6c-0.1-2.2-0.5-6-2.6-10.2c0,0,11.7-0.4,16.1,8.5C200.4,158.9,200.9,160.4,201.3,161.9z M191.8,183.5
	c-0.8,0.1-1.6,0.6-2.1,1.2c-0.3,0.3-0.1,0.9,0.4,0.9l1.7,0.2l0.7-1.5C192.6,183.8,192.2,183.4,191.8,183.5z M173.9,180.4
	c0,0,4.7-2.6,9.8-0.5c0.3,0.1,0.6,0.3,0.8,0.5c0.5,0.5,1.1,1.3,0.2,2.6c-0.2,0.3-0.4,0.5-0.6,0.7c-1.6,1.6-4.1,1.9-6.2,1
	C176.6,184,175,182.8,173.9,180.4z M190.5,175.9c0.8-5.4,5.4-8.2,5.4-8.2c1.5,2.2,1.8,4.1,1.7,5.6c-0.2,2.3-1.7,4.2-3.9,4.8
	c-0.3,0.1-0.6,0.2-1,0.2c-1.5,0.1-2-0.8-2.1-1.5C190.5,176.6,190.5,176.3,190.5,175.9z"/>
<path class="st4" d="M145.6,311.2l-0.5-0.7c-13.5-17-30.5-6.5-31.3-6.1l-0.8,0.5l-0.6-0.8c-0.2-0.4-46-79.7-46.6-80.7l-0.5-0.9
	l0.9-0.5c0.7-0.4,17.8-9.6,10.1-30.7l-0.3-0.8L252.2,89.8l0.5,0.9c10.1,17.6,32.2,8.1,33.1,7.7l0.8-0.4l0.4,0.8l45.7,79.2l-0.9,0.5
	c-19.9,10.5-11,30.1-10.7,30.9l0.4,0.8l-0.8,0.5L145.6,311.2z M126.5,298.9c6.3,0,13.4,2.4,19.5,9.7l173.1-99.2
	c-1.6-4.1-7.1-22,11-32.2l-44.3-76.7c-4.3,1.6-24.3,8-34.3-8L78.4,191.4c3.9,11.5,0.8,19.6-2.6,24.4c-2.8,4.1-6.3,6.5-7.8,7.4
	c1.6,2.7,6.6,11.4,22.9,39.5c16.3,28.2,21.2,36.8,22.8,39.5C116.7,300.5,121.4,298.9,126.5,298.9z"/>
<g>
	<path class="st5" d="M291.1,321.5l0.2-0.3l11.6,6.9l1.5-2.5c-0.8-0.5-1.5-1.1-2.1-1.9c-0.6-0.8-1-1.6-1.2-2.5s-0.3-1.9-0.2-2.8
		c0.1-0.9,0.4-1.9,0.9-2.7c0.5-0.8,1.1-1.5,1.9-2.1c0.8-0.6,1.6-1,2.5-1.2c1.9-0.5,3.8-0.2,5.5,0.8l2.4-4.2c-1.7-1-2.9-2.6-3.4-4.4
		c-0.5-1.9-0.2-3.8,0.8-5.5c1-1.7,2.6-2.9,4.4-3.4c1.9-0.5,3.8-0.2,5.5,0.8l2.5-4.2c-1.7-1-2.9-2.5-3.4-4.4
		c-0.5-1.9-0.2-3.8,0.8-5.5c1-1.7,2.5-2.9,4.4-3.4c1.9-0.5,3.8-0.2,5.5,0.8l2.5-4.2c-1.7-1-2.9-2.5-3.4-4.4
		c-0.5-1.9-0.2-3.8,0.8-5.5c1-1.7,2.5-2.9,4.4-3.4c1.9-0.5,3.8-0.2,5.5,0.8l2.5-4.2c-0.8-0.5-1.5-1.1-2.1-1.9
		c-0.6-0.8-1-1.6-1.2-2.5c-0.2-0.9-0.3-1.9-0.2-2.8c0.1-0.9,0.4-1.9,0.9-2.7c0.5-0.8,1.1-1.5,1.9-2.1c0.8-0.6,1.6-1,2.5-1.2
		s1.9-0.3,2.8-0.2c0.9,0.1,1.9,0.4,2.7,0.9l2.5-4.2c-0.8-0.5-1.5-1.1-2.1-1.9c-0.6-0.8-1-1.6-1.2-2.5c-0.2-0.9-0.3-1.9-0.2-2.8
		c0.1-0.9,0.4-1.9,0.9-2.7c0.5-0.8,1.1-1.5,1.9-2.1s1.6-1,2.5-1.2c0.9-0.2,1.9-0.3,2.8-0.2c0.9,0.1,1.9,0.4,2.7,0.9l1.4-2.4
		l-11.6-6.9c-3.2-1.8-6-4.4-8.1-7.3c-2.2-2.9-3.8-6.2-4.7-9.9c-0.9-3.6-1.1-7.3-0.6-10.9c0.5-3.6,1.8-7.2,3.6-10.3l-195-116.3
		c-1.8,3.2-4.4,6-7.3,8.1c-2.9,2.2-6.2,3.8-9.9,4.7c-3.5,0.9-7.2,1.1-10.9,0.6c-3.6-0.5-7.1-1.8-10.3-3.6l-11.1-6.6l-1.4,2.4
		c1.7,1,2.9,2.5,3.4,4.4s0.2,3.8-0.8,5.5c-1,1.7-2.5,2.9-4.4,3.4c-1.9,0.5-3.8,0.2-5.5-0.8l-2.5,4.2c1.7,1,2.9,2.6,3.4,4.4
		c0.5,1.9,0.2,3.8-0.8,5.5c-1,1.7-2.6,2.9-4.4,3.4c-1.9,0.5-3.8,0.2-5.5-0.8l-2.5,4.2c1.7,1,2.9,2.5,3.4,4.4s0.2,3.8-0.8,5.5
		c-1,1.7-2.5,2.9-4.4,3.4c-1.9,0.5-3.8,0.2-5.5-0.8l-2.5,4.2c1.7,1,2.9,2.5,3.4,4.4s0.2,3.8-0.8,5.5c-1,1.7-2.5,2.9-4.4,3.4
		c-1.9,0.5-3.8,0.2-5.5-0.8l-2.5,4.2c1.7,1,2.9,2.5,3.4,4.4c0.5,1.9,0.2,3.8-0.8,5.5c-1,1.7-2.5,2.9-4.4,3.4
		c-1.9,0.5-3.8,0.2-5.5-0.8l-2.5,4.2c1.7,1,2.9,2.5,3.4,4.4c0.5,1.9,0.2,3.8-0.8,5.5c-1,1.7-2.5,2.9-4.4,3.4s-3.8,0.2-5.5-0.8
		l-1.5,2.5l11.1,6.6l0,0c3.2,1.8,5.7,4.8,7.9,7.7c2.2,2.9,3.8,6.2,4.7,9.9c0.9,3.6,1.1,7.3,0.6,10.9c-0.5,3.6-1.8,7.2-3.6,10.3
		l195,116.1c3.8-6.4,9.9-11,17.1-12.8C277.2,316.7,284.8,317.8,291.1,321.5z"/>
	<path class="st6" d="M234.5,183.4c0.7,0.3,1.5,0.5,2.3,0.6c1.1,0.2,2.3,0.2,3.4,0c-1.6,2.4-3.7,4.5-5.9,6.1l-0.2,0.2
		c-8.1,5.9-19.2,6.9-28.3,1.6c-8.9-5.6-13.4-15.8-12.2-25.6l0-0.3c0.4-2.8,1.3-5.5,2.5-8.1c0.4,1.1,1,2.1,1.7,3
		c0.5,0.6,1.1,1.2,1.7,1.7c0.4-1.5,0.9-2.9,1.7-4.3c4.5-8.8,16.2-8.3,16.2-8.3c-2,4.1-2.6,7.7-2.7,10c2.9-0.4,5.9,0.2,8.7,1.8
		c2.8,1.6,4.9,4.2,5.8,7.1c1.9-1.2,4.9-3.4,7.7-7.3c0,0,6,10,0.5,18.2C236.6,181.1,235.6,182.3,234.5,183.4z M211,185.6
		c-0.5-0.7-1.3-1.1-2.1-1.3c-0.4-0.1-0.8,0.4-0.6,0.8l0.7,1.5l1.7-0.1C211.1,186.5,211.3,186,211,185.6z M205,168.5
		c0,0,4.6,2.9,5.3,8.3c0,0.3,0.1,0.6,0,1c-0.1,0.7-0.6,1.6-2.2,1.5c-0.3,0-0.7-0.1-1-0.2c-2.2-0.6-3.7-2.6-3.8-4.8
		C203.1,172.7,203.4,170.7,205,168.5z M216.9,180.9c5.1-1.9,9.8,0.6,9.8,0.6c-1.1,2.4-2.7,3.6-4,4.3c-2.1,0.9-4.5,0.5-6.2-1.1
		c-0.2-0.2-0.5-0.5-0.6-0.7c-0.9-1.3-0.3-2.1,0.2-2.6C216.4,181.2,216.6,181,216.9,180.9z"/>
	<path class="st7" d="M320,192.3L147.4,88.9c-15.3,18-33,6.4-33,6.4L67,175.6c0,0,19.2,10.3,10.4,31.5l172.8,103.1
		c0,0,13.6-19,33.6-6.1l46.1-77.8C329.8,226.3,309.1,210.7,320,192.3z"/>
	<g>
		<g>
			<path class="st8" d="M136.2,187.7l-6.4-3.8l3.9-9.1l-0.3-0.2l-6.2,7.7l-6.4-3.8l5.7-16.2l7,4.2l-5.3,8.4l0.3,0.2l6.6-6.6l3.1,1.9
				l-2.7,8.9l0.4,0.2l4.9-8.6l7,4.2L136.2,187.7z"/>
		</g>
		<g>
			<path class="st8" d="M145.9,193.5l-6.2-3.7l8.6-14.4l6.2,3.7l-4.1,5l5.1,3.1l2.5-5.9l6.2,3.7l-8.6,14.4l-6.2-3.7l4.2-5.2
				l-5.1-3.1L145.9,193.5z"/>
		</g>
		<g>
			<path class="st8" d="M161.5,191.7l3.7-6.2l13.5,8.1l-3.7,6.2l-4.1-2.9l-1.6,2.7l4.5,2.2L170,208l-13.5-8.1l3.7-6.2l4.1,2.9
				l1.6-2.7L161.5,191.7z"/>
		</g>
		<g>
			<path class="st8" d="M193.8,202.6l-3.7,6.3l-5.1-3.3l-3.9,8.9l-6.1-3.7l6-7.7l-5.3-2.9l3.8-6.3L193.8,202.6z"/>
		</g>
		<g>
			<path class="st8" d="M205.3,217.3l-8.6-5.5l-0.5,0.9l6.7,3.7l-1.1,1.9l-6.4-4.1l-0.6,1l9.5,5.1l-3.6,6l-14.5-8.7l8.6-14.4l14,8.4
				L205.3,217.3z"/>
		</g>
		<g>
			<path class="st8" d="M210.4,224l8.8,4.8l-3.8,6.3l-13.8-8.3l8.6-14.4l5.7,3.4L210.4,224z"/>
		</g>
		<g>
			<path class="st8" d="M221.1,227.4l3.7-6.2l13.5,8.1l-3.7,6.2l-4.1-2.9l-1.6,2.7l4.5,2.2l-3.7,6.2l-13.5-8.1l3.7-6.2l4.1,2.9
				l1.6-2.7L221.1,227.4z"/>
		</g>
		<g>
			<path class="st8" d="M238.4,249.4c-1.2-0.7-2.5-1.7-4-2.9c-1.5-1.2-2.6-2.3-3.3-3.2l3.9-6.6c0.4,1.2,1.2,2.4,2.4,3.6
				c1.2,1.2,2.6,2.3,4.2,3.3c1.6,1,2.5,1.3,2.7,1c0.1-0.2,0-0.6-0.4-1c-0.4-0.4-1-0.9-1.8-1.3c-0.7-0.5-1.5-1-2.3-1.7
				c-0.8-0.7-1.5-1.3-2.2-2c-0.6-0.7-1-1.4-1.2-2.3c-0.2-0.9,0-1.7,0.5-2.5c0.6-1,1.4-1.6,2.5-1.9c1.1-0.2,2.3-0.1,3.6,0.3
				c1.3,0.4,2.7,1.1,4.3,2c1.1,0.7,2.4,1.6,3.7,2.7c1.3,1.1,2.3,2.1,2.9,3l-4.3,5.4c-0.5-1-1.3-2-2.3-2.9c-1-1-2-1.8-3.2-2.5
				c-1.7-1-2.7-1.4-2.9-1c-0.1,0.2,0,0.6,0.4,1c0.4,0.4,1,0.9,1.8,1.3c0.8,0.5,1.6,1,2.4,1.6c0.8,0.6,1.6,1.3,2.2,1.9
				c0.6,0.6,1.1,1.4,1.3,2.2c0.2,0.8,0.1,1.6-0.4,2.4c-0.9,1.5-2.2,2.2-4,2.1C243.1,251.6,240.9,250.9,238.4,249.4z"/>
		</g>
		<g>
			<path class="st8" d="M269.4,247.9l-3.7,6.3l-5.1-3.3l-3.9,8.9l-6.1-3.7l6-7.7l-5.3-2.9l3.8-6.3L269.4,247.9z"/>
		</g>
		<g>
			<path class="st8" d="M110.8,200.7c-2.7-1.6-4.6-3.3-5.6-4.9c-1.1-1.7-1.2-3.3-0.3-4.7c0.6-1,1.4-1.5,2.5-1.6
				c1.1-0.1,2.3,0.2,3.4,0.7l0.1-0.2c-0.9-0.8-1.5-1.6-1.8-2.6c-0.3-0.9-0.2-1.9,0.4-2.7c0.7-1.2,2-1.7,3.8-1.5
				c1.8,0.2,3.9,1.1,6.5,2.6c1,0.6,2.1,1.4,3.5,2.3l-2.9,4.9c-1-0.7-1.9-1.3-2.8-1.9c-1.2-0.7-2.1-1.2-2.7-1.4
				c-0.6-0.2-1-0.2-1.2,0.1c-0.2,0.3-0.1,0.6,0.2,1c0.3,0.4,0.9,0.8,1.8,1.4l0.4,0.3l-1,1.6l-1-0.6c-1.7-1-2.8-1.2-3.2-0.6
				c-0.4,0.7,0.7,1.8,3.3,3.3c0.3,0.2,0.6,0.4,0.8,0.4l2.1-3.5l7.2,4.3l-1,1.6l-1.9-1.1l-3.8,6.3c-0.7-0.2-1.8-0.7-3.4-1.5
				C113.1,202,111.8,201.3,110.8,200.7z"/>
		</g>
		<g>
			<path class="st8" d="M132.4,213.6c-2.2-1.3-3.5-3-4-5c-0.5-2.1,0-4.3,1.4-6.7c1.5-2.4,3.4-3.8,5.9-4.1c2.4-0.3,5.1,0.4,7.9,2.1
				c2.2,1.3,4.1,2.7,5.8,4.2l-3.9,5.3c-1.5-1.3-3.2-2.6-5-3.6c-1.3-0.8-2.5-1.3-3.4-1.4c-0.9-0.1-1.6,0.1-1.9,0.7
				c-0.7,1.2,0,2.5,2.3,3.9c0.7,0.4,1.4,0.7,1.9,0.8c0.6,0.1,0.9,0,1.1-0.2l-3.9-2.4l1.2-2l11,6.6l-1.4,2.3l-1.1-0.6l-3.5,6.2
				l-5.2-3.1l4.5-5l-0.4-0.2c-1.7,2-3.2,3.2-4.7,3.5C135.5,214.9,134,214.5,132.4,213.6z"/>
		</g>
		<g>
			<path class="st8" d="M149,212l3.7-6.2l13.5,8.1l-3.7,6.2l-4.1-2.9l-1.6,2.7l4.5,2.2l-3.7,6.2l-13.5-8.1l3.7-6.2l4.1,2.9l1.6-2.7
				L149,212z"/>
		</g>
		<g>
			<path class="st8" d="M170,235.7l-6.4-3.8l2.7-18l7.2,4.3l-3.1,8.9l0.4,0.2l6.4-6.9l7.3,4.4L170,235.7z"/>
		</g>
		<g>
			<path class="st8" d="M195.5,239.2l-8.6-5.5l-0.5,0.9l6.7,3.7l-1.1,1.9l-6.4-4.1l-0.6,1l9.5,5.1l-3.6,6l-14.5-8.7l8.6-14.4l14,8.4
				L195.5,239.2z"/>
		</g>
		<g>
			<path class="st8" d="M200.6,250.1l-2.2,2.6l-7.4-4.4l14.6-10.9l6.4,3.8l-2.7,18l-7.4-4.4l1.3-3.2L200.6,250.1z M205.6,245
				l-0.4-0.2l-3.2,3.9l1.7,1L205.6,245z"/>
		</g>
		<g>
			<path class="st8" d="M225.6,269.1l-6.4-3.8l3.9-9.1l-0.3-0.2l-6.2,7.7l-6.4-3.8l5.7-16.2l7,4.2l-5.3,8.4l0.3,0.2l6.6-6.6l3.1,1.9
				l-2.7,8.9l0.4,0.2l4.9-8.6l7,4.2L225.6,269.1z"/>
		</g>
		<g>
			<path class="st8" d="M236.2,271.5l-2.2,2.6l-7.4-4.4l14.6-10.9l6.4,3.8l-2.7,18l-7.4-4.4l1.3-3.2L236.2,271.5z M241.2,266.4
				l-0.4-0.2l-3.2,3.9l1.7,1L241.2,266.4z"/>
		</g>
		<g>
			<path class="st8" d="M254.9,274.8l4.5-5l7.4,4.4l-11.6,5.1l-2.3,6.1l-6.5-3.9l4.3-5l-1-12.6l7.3,4.4l-2.3,6.3L254.9,274.8z"/>
		</g>
	</g>
	<g>
		<g>
			<path class="st9" d="M135.3,186.2l-6.4-3.8l3.9-9.1l-0.3-0.2l-6.2,7.7l-6.4-3.8l5.7-16.2l7,4.2l-5.3,8.4l0.3,0.2l6.6-6.6l3.1,1.9
				l-2.7,8.9l0.4,0.2l4.9-8.6l7,4.2L135.3,186.2z"/>
			<path class="st4" d="M135.4,186.6l-6.9-4.2l3.5-8.2l-5.6,6.9l-6.9-4.2l5.9-16.9l7.8,4.7l-4.6,7.4l5.6-5.7l3.7,2.2l-2.4,7.6
				l4.3-7.5l7.8,4.7L135.4,186.6z M129.4,182.2l5.8,3.5l11.1-12.1l-6.3-3.8l-4.9,8.6l-1-0.4l2.7-8.9l-2.6-1.6l-6.6,6.6l-0.8-0.7
				l5.3-8.4l-6.3-3.8l-5.4,15.5l5.9,3.5l6.2-7.7l0.9,0.5L129.4,182.2z"/>
		</g>
		<g>
			<path class="st9" d="M145,192l-6.2-3.7l8.6-14.4l6.2,3.7l-4.1,5l5.1,3.1l2.5-5.9l6.2,3.7l-8.6,14.4l-6.2-3.7l4.2-5.2l-5.1-3.1
				L145,192z"/>
			<path class="st4" d="M154.8,198.3l-6.9-4.1l4.2-5.2l-4.4-2.6l-2.6,6.1l-6.9-4.1l9-15.1l6.9,4.1l-4.1,5l4.4,2.6l2.5-5.9l6.9,4.1
				L154.8,198.3z M149.1,194l5.5,3.3l8.3-13.8l-5.5-3.3l-2.5,5.9l-5.8-3.5l4.1-5l-5.5-3.3l-8.3,13.8l5.5,3.3l2.6-6.1l5.8,3.5
				L149.1,194z"/>
		</g>
		<g>
			<path class="st9" d="M160.6,190.2l3.7-6.2l13.5,8.1l-3.7,6.2l-4.1-2.9l-1.6,2.7l4.5,2.2l-3.7,6.2l-13.5-8.1l3.7-6.2l4.1,2.9
				l1.6-2.7L160.6,190.2z"/>
			<path class="st4" d="M169.3,207l-14.1-8.5l4.1-6.9l4.1,2.9l1.2-2l-4.5-2.3l4.1-6.9l14.1,8.5l-4.1,6.9l-4.1-2.9l-1.2,2l4.5,2.2
				L169.3,207z M156.2,198.3l12.8,7.7l3.3-5.5l-4.5-2.2l2-3.4l4.1,2.9l3.3-5.5l-12.8-7.7l-3.3,5.5l4.5,2.3l-2.1,3.3l-4.1-2.9
				L156.2,198.3z"/>
		</g>
		<g>
			<path class="st9" d="M192.9,201.1l-3.7,6.3l-5.1-3.3l-3.9,8.9l-6.1-3.7l6-7.7l-5.3-2.9l3.8-6.3L192.9,201.1z"/>
			<path class="st4" d="M180.3,213.6l-6.9-4.1l6-7.6l-5.2-2.9l4.2-6.9l14.9,8.9l-4.1,7l-5-3.3L180.3,213.6z M174.6,209.3l5.4,3.2
				l3.9-9l5.1,3.3l3.4-5.7l-13.6-8.2l-3.4,5.6l5.3,2.9L174.6,209.3z"/>
		</g>
		<g>
			<path class="st9" d="M204.4,215.8l-8.6-5.5l-0.5,0.9l6.7,3.7l-1.1,1.9l-6.4-4.1l-0.6,1l9.5,5.1l-3.6,6l-14.5-8.7l8.6-14.4l14,8.4
				L204.4,215.8z"/>
			<path class="st4" d="M199.8,225.3l-15.1-9.1l9-15.1l14.6,8.8l-3.8,6.4l-2.2-1.4l-1.3,2.2l2.8,1.5L199.8,225.3z M185.7,216
				l13.8,8.3l3.2-5.4l-9.5-5.1l1-1.6l6.4,4.1l0.7-1.2l-6.7-3.7l0.9-1.5l8.6,5.5l3-5.1l-13.4-8L185.7,216z M194.3,213.5l3.8,2
				l-3.6-2.3L194.3,213.5z M195.8,211.1l4.1,2.3l-4-2.5L195.8,211.1z"/>
		</g>
		<g>
			<path class="st9" d="M209.5,222.5l8.8,4.8l-3.8,6.3l-13.8-8.3l8.6-14.4l5.7,3.4L209.5,222.5z"/>
			<path class="st4" d="M214.6,234.2l-14.5-8.7l9-15.1l6.4,3.8l-5.6,8.1l8.8,4.8L214.6,234.2z M201.2,225.3l13.2,7.9l3.4-5.7
				l-8.8-4.9l5.6-8.1l-5.1-3L201.2,225.3z"/>
		</g>
		<g>
			<path class="st9" d="M220.2,225.9l3.7-6.2l13.5,8.1l-3.7,6.2l-4.1-2.9l-1.6,2.7l4.5,2.2l-3.7,6.2l-13.5-8.1l3.7-6.2l4.1,2.9
				l1.6-2.7L220.2,225.9z"/>
			<path class="st4" d="M228.9,242.7l-14.1-8.5l4.1-6.9l4.1,2.9l1.2-2l-4.5-2.3l4.1-6.9l14.1,8.5l-4.1,6.9l-4.1-2.9l-1.2,2l4.5,2.2
				L228.9,242.7z M215.8,234l12.8,7.7l3.3-5.5l-4.5-2.2l2-3.4l4.1,2.9l3.3-5.5l-12.8-7.7l-3.3,5.5l4.5,2.3l-2.1,3.3l-4.1-2.9
				L215.8,234z"/>
		</g>
		<g>
			<path class="st9" d="M237.5,247.9c-1.2-0.7-2.5-1.7-4-2.9c-1.5-1.2-2.6-2.3-3.3-3.2l3.9-6.6c0.4,1.2,1.2,2.4,2.4,3.6
				c1.2,1.2,2.6,2.3,4.2,3.3c1.6,1,2.5,1.3,2.7,1c0.1-0.2,0-0.6-0.4-1c-0.4-0.4-1-0.9-1.8-1.3c-0.7-0.5-1.5-1-2.3-1.7
				c-0.8-0.7-1.5-1.3-2.2-2c-0.6-0.7-1-1.4-1.2-2.3c-0.2-0.9,0-1.7,0.5-2.5c0.6-1,1.4-1.6,2.5-1.9c1.1-0.2,2.3-0.1,3.6,0.3
				c1.3,0.4,2.7,1.1,4.3,2c1.1,0.7,2.4,1.6,3.7,2.7c1.3,1.1,2.3,2.1,2.9,3l-4.3,5.4c-0.5-1-1.3-2-2.3-2.9c-1-1-2-1.8-3.2-2.5
				c-1.7-1-2.7-1.4-2.9-1c-0.1,0.2,0,0.6,0.4,1c0.4,0.4,1,0.9,1.8,1.3c0.8,0.5,1.6,1,2.4,1.6c0.8,0.6,1.6,1.3,2.2,1.9
				c0.6,0.6,1.1,1.4,1.3,2.2c0.2,0.8,0.1,1.6-0.4,2.4c-0.9,1.5-2.2,2.2-4,2.1C242.2,250.1,240,249.4,237.5,247.9z"/>
			<path class="st4" d="M244.1,250.6c0,0-0.1,0-0.1,0c-1.9-0.1-4.1-0.9-6.7-2.4c-1.2-0.7-2.5-1.7-4.1-2.9c-1.5-1.3-2.7-2.3-3.4-3.3
				l-0.2-0.2l4.5-7.5l0.3,0.8c0.4,1.1,1.2,2.3,2.3,3.5c1.1,1.2,2.5,2.3,4.1,3.3c1.4,0.8,2,1,2.2,1c0-0.1-0.1-0.2-0.4-0.4
				c-0.4-0.4-1-0.8-1.7-1.3c-0.8-0.5-1.6-1.1-2.4-1.7c-0.8-0.7-1.6-1.3-2.2-2c-0.7-0.7-1.1-1.5-1.3-2.5c-0.2-0.9,0-1.9,0.5-2.8
				c0.7-1.1,1.6-1.8,2.8-2c1.2-0.2,2.4-0.2,3.8,0.3c1.3,0.4,2.8,1.1,4.4,2.1c1.1,0.7,2.4,1.6,3.8,2.8c1.4,1.1,2.4,2.2,3,3.1l0.2,0.2
				l-4.8,6.1l-0.3-0.5c-0.5-0.9-1.3-1.9-2.2-2.8c-1-0.9-2-1.8-3.1-2.4c-1.9-1.2-2.4-1.1-2.4-1.1c0,0,0,0.2,0.4,0.5
				c0.4,0.4,1,0.8,1.7,1.3c0.8,0.5,1.6,1,2.4,1.7c0.8,0.6,1.6,1.3,2.3,2c0.7,0.7,1.2,1.5,1.4,2.4c0.2,0.9,0.1,1.8-0.5,2.7
				C247.4,249.8,246,250.6,244.1,250.6z M230.6,241.7c0.7,0.8,1.7,1.8,3.1,2.9c1.5,1.2,2.8,2.2,4,2.9l0,0c2.4,1.5,4.6,2.2,6.3,2.3
				c1.7,0.1,2.9-0.6,3.7-2c0.4-0.7,0.6-1.4,0.4-2.1c-0.2-0.7-0.6-1.4-1.2-2c-0.6-0.6-1.4-1.3-2.2-1.9c-0.8-0.6-1.6-1.2-2.4-1.6
				c-0.8-0.5-1.4-0.9-1.9-1.4c-0.6-0.6-0.8-1-0.5-1.5c0.4-0.6,1.4-0.4,3.4,0.8c1.2,0.7,2.3,1.5,3.2,2.5c0.8,0.8,1.5,1.7,2.1,2.5
				l3.8-4.8c-0.6-0.8-1.5-1.7-2.7-2.7c-1.3-1.1-2.6-2-3.7-2.7c-1.5-0.9-2.9-1.6-4.2-2c-1.2-0.4-2.4-0.5-3.4-0.3
				c-1,0.2-1.7,0.8-2.3,1.7c-0.4,0.7-0.6,1.5-0.4,2.2c0.2,0.8,0.5,1.5,1.1,2.1c0.6,0.7,1.3,1.3,2.1,2c0.8,0.6,1.6,1.2,2.3,1.7
				c0.8,0.5,1.4,1,1.8,1.4c0.6,0.6,0.7,1,0.5,1.4c-0.3,0.6-1.2,0.3-3.2-0.9c-1.7-1-3.1-2.1-4.3-3.4c-1-1-1.7-2.1-2.2-3.1
				L230.6,241.7z"/>
		</g>
		<g>
			<path class="st9" d="M268.5,246.4l-3.7,6.3l-5.1-3.3l-3.9,8.9l-6.1-3.7l6-7.7l-5.3-2.9l3.8-6.3L268.5,246.4z"/>
			<path class="st4" d="M255.9,258.9l-6.9-4.1l6-7.6l-5.2-2.9l4.2-6.9l14.9,8.9l-4.1,7l-5-3.3L255.9,258.9z M250.2,254.6l5.4,3.2
				l3.9-9l5.1,3.3l3.4-5.7l-13.6-8.2l-3.4,5.6l5.3,2.9L250.2,254.6z"/>
		</g>
		<g>
			<path class="st9" d="M110.9,199.2c-2.7-1.6-4.6-3.3-5.6-4.9c-1.1-1.7-1.2-3.3-0.3-4.7c0.6-1,1.4-1.5,2.5-1.6
				c1.1-0.1,2.3,0.2,3.4,0.7l0.1-0.2c-0.9-0.8-1.5-1.6-1.8-2.6c-0.3-0.9-0.2-1.9,0.4-2.7c0.7-1.2,2-1.7,3.8-1.5
				c1.8,0.2,3.9,1.1,6.5,2.6c1,0.6,2.1,1.4,3.5,2.3l-2.9,4.9c-1-0.7-1.9-1.3-2.8-1.9c-1.2-0.7-2.1-1.2-2.7-1.4
				c-0.6-0.2-1-0.2-1.2,0.1c-0.2,0.3-0.1,0.6,0.2,1c0.3,0.4,0.9,0.8,1.8,1.4l0.4,0.3l-1,1.6l-1-0.6c-1.7-1-2.8-1.2-3.2-0.6
				c-0.4,0.7,0.7,1.8,3.3,3.3c0.3,0.2,0.6,0.4,0.8,0.4l2.1-3.5l7.2,4.3l-1,1.6l-1.9-1.1l-3.8,6.3c-0.7-0.2-1.8-0.7-3.4-1.5
				C113.2,200.5,111.9,199.8,110.9,199.2z"/>
			<path class="st4" d="M118.2,203.1l-0.3-0.1c-0.7-0.2-1.9-0.7-3.4-1.5c-1.5-0.8-2.8-1.4-3.8-2l0,0c-2.7-1.6-4.7-3.3-5.8-5.1
				c-1.1-1.8-1.2-3.5-0.3-5.1c0.6-1.1,1.6-1.7,2.8-1.7c0.8-0.1,1.7,0.1,2.6,0.3c-0.5-0.6-0.9-1.2-1.1-1.9c-0.3-1-0.2-2.1,0.4-3
				c0.8-1.4,2.2-1.9,4.1-1.7c1.8,0.2,4.1,1.1,6.6,2.6c1,0.6,2.1,1.4,3.5,2.4l0.3,0.2l-3.3,5.5l-0.3-0.3c-0.9-0.7-1.9-1.3-2.7-1.9
				c-1.1-0.7-2-1.1-2.6-1.3c-0.4-0.1-0.7-0.1-0.7,0c0,0.1-0.1,0.2,0.2,0.6c0.3,0.3,0.9,0.8,1.7,1.3l0.8,0.5l-1.3,2.3l-1.3-0.8
				c-1.4-0.9-2.4-1.1-2.6-0.7c-0.1,0.2,0.1,0.5,0.5,0.9c0.5,0.5,1.4,1.2,2.7,1.9c0.2,0.1,0.3,0.2,0.5,0.3l2.1-3.5l7.8,4.7l-1.3,2.2
				l-1.9-1.1L118.2,203.1z M108,188.4c-0.1,0-0.3,0-0.4,0c-1,0.1-1.7,0.5-2.2,1.4c-0.8,1.3-0.7,2.8,0.3,4.3c1,1.6,2.9,3.3,5.5,4.8
				l0,0c1,0.6,2.2,1.2,3.7,2c1.3,0.6,2.3,1.1,3,1.4l3.8-6.4l1.9,1.1l0.6-1l-6.5-3.9l-2.1,3.5l-0.3-0.2c-0.2-0.1-0.5-0.2-0.8-0.5
				c-1.3-0.8-2.3-1.5-2.8-2.1c-0.7-0.7-0.9-1.3-0.6-1.8c0.8-1.3,3,0,3.7,0.5l0.6,0.4l0.6-1l-0.1-0.1c-1-0.6-1.6-1-1.9-1.4
				c-0.6-0.7-0.4-1.2-0.2-1.4c0.3-0.5,0.8-0.6,1.6-0.3c0.6,0.2,1.5,0.7,2.8,1.4c0.8,0.5,1.6,1,2.5,1.7l2.5-4.2
				c-1.2-0.9-2.3-1.6-3.2-2.1c-2.5-1.5-4.6-2.3-6.3-2.5c-1.6-0.2-2.7,0.3-3.4,1.4c-0.5,0.8-0.6,1.6-0.3,2.4c0.3,0.9,0.8,1.7,1.6,2.4
				l0.2,0.2l-0.5,0.8l-0.3-0.2C109.9,188.6,108.9,188.4,108,188.4z"/>
		</g>
		<g>
			<path class="st9" d="M132.5,212.1c-2.2-1.3-3.5-3-4-5c-0.5-2.1,0-4.3,1.4-6.7c1.5-2.4,3.4-3.8,5.9-4.1c2.4-0.3,5.1,0.4,7.9,2.1
				c2.2,1.3,4.1,2.7,5.8,4.2l-3.9,5.3c-1.5-1.3-3.2-2.6-5-3.6c-1.3-0.8-2.5-1.3-3.4-1.4c-0.9-0.1-1.6,0.1-1.9,0.7
				c-0.7,1.2,0,2.5,2.3,3.9c0.7,0.4,1.4,0.7,1.9,0.8c0.6,0.1,0.9,0,1.1-0.2l-3.9-2.4l1.2-2l11,6.6l-1.4,2.3l-1.1-0.6l-3.5,6.2
				l-5.2-3.1l4.5-5l-0.4-0.2c-1.7,2-3.2,3.2-4.7,3.5C135.6,213.3,134.1,213,132.5,212.1z"/>
			<path class="st4" d="M143,218.4l-6-3.6l2.2-2.4c-0.7,0.5-1.4,0.8-2,1c-1.5,0.4-3.2,0-4.8-1l0,0c-2.2-1.3-3.6-3.1-4.2-5.3
				c-0.5-2.2-0.1-4.5,1.4-7c1.5-2.5,3.6-4,6.1-4.3c2.5-0.3,5.2,0.4,8.1,2.1c2.2,1.3,4.2,2.8,5.8,4.2l0.3,0.2l-4.1,5.4l3.5,2.1
				l-1.8,2.9l-1.1-0.6L143,218.4z M138.2,214.6l4.5,2.7l3.5-6.2l1.1,0.6l1-1.6l-10.3-6.2l-0.8,1.3l3.9,2.4l-0.2,0.3
				c-0.3,0.4-0.8,0.5-1.5,0.4c-0.6-0.1-1.3-0.4-2.1-0.9c-2.5-1.5-3.3-3-2.4-4.4c0.3-0.5,0.9-1.1,2.3-0.9c1,0.1,2.2,0.6,3.5,1.4
				c1.7,1,3.3,2.1,4.7,3.4l3.5-4.7c-1.5-1.4-3.4-2.7-5.4-3.9c-2.7-1.6-5.3-2.3-7.6-2c-2.3,0.3-4.2,1.6-5.6,3.9
				c-1.4,2.3-1.8,4.5-1.3,6.4c0.5,2,1.8,3.6,3.8,4.8l0,0c1.5,0.9,3,1.2,4.3,0.9c1.4-0.3,2.9-1.5,4.5-3.4l0.2-0.2l1.1,0.6
				L138.2,214.6z M136.6,203.1c-0.8,0-1.1,0.4-1.1,0.5c-0.2,0.4-0.9,1.5,2.2,3.4c0.7,0.4,1.3,0.7,1.8,0.8c0,0,0.1,0,0.1,0l-3.5-2.1
				l1.4-2.4c-0.2,0-0.4-0.1-0.5-0.1C136.8,203.1,136.7,203.1,136.6,203.1z M138.7,203.6l3.6,2.1c-0.7-0.5-1.4-0.9-2.1-1.4
				C139.7,204.1,139.2,203.9,138.7,203.6z"/>
		</g>
		<g>
			<path class="st9" d="M149.2,210.5l3.7-6.2l13.5,8.1l-3.7,6.2l-4.1-2.9l-1.6,2.7l4.5,2.2l-3.7,6.2l-13.5-8.1l3.7-6.2l4.1,2.9
				l1.6-2.7L149.2,210.5z"/>
			<path class="st4" d="M157.8,227.3l-14.1-8.5l4.1-6.9l4.1,2.9l1.2-2l-4.5-2.3l4.1-6.9l14.1,8.5l-4.1,6.9l-4.1-2.9l-1.2,2l4.5,2.2
				L157.8,227.3z M144.7,218.6l12.8,7.7l3.3-5.5l-4.5-2.2l2-3.4l4.1,2.9l3.3-5.5l-12.8-7.7l-3.3,5.5l4.5,2.3l-2.1,3.3l-4.1-2.9
				L144.7,218.6z"/>
		</g>
		<g>
			<path class="st9" d="M170.1,234.2l-6.4-3.8l2.7-18l7.2,4.3l-3.1,8.9l0.4,0.2l6.4-6.9l7.3,4.4L170.1,234.2z"/>
			<path class="st4" d="M170.2,234.7l-6.8-4.1l2.8-18.8l8,4.8l-2.9,8.5l6.1-6.6l8,4.8L170.2,234.7z M164.2,230.2l5.9,3.6l13.9-10.4
				l-6.5-3.9l-6.4,6.9l-0.9-0.5l3.1-8.9l-6.5-3.9L164.2,230.2z"/>
		</g>
		<g>
			<path class="st9" d="M195.6,237.7l-8.6-5.5l-0.5,0.9l6.7,3.7l-1.1,1.9l-6.4-4.1l-0.6,1l9.5,5.1l-3.6,6l-14.5-8.7l8.6-14.4l14,8.4
				L195.6,237.7z"/>
			<path class="st4" d="M191,247.2l-15.1-9.1l9-15.1l14.6,8.8l-3.8,6.4l-2.2-1.4l-1.3,2.2l2.8,1.5L191,247.2z M176.9,237.9l13.8,8.3
				l3.2-5.4l-9.5-5.1l1-1.6l6.4,4.1l0.7-1.2l-6.7-3.7l0.9-1.5l8.6,5.5l3-5.1l-13.4-8L176.9,237.9z M185.5,235.4l3.8,2l-3.6-2.3
				L185.5,235.4z M187,233l4.2,2.3l-4-2.5L187,233z"/>
		</g>
		<g>
			<path class="st9" d="M200.7,248.6l-2.2,2.6l-7.4-4.4l14.6-10.9l6.4,3.8l-2.7,18l-7.4-4.4l1.3-3.2L200.7,248.6z M205.7,243.5
				l-0.4-0.2l-3.2,3.9l1.7,1L205.7,243.5z"/>
			<path class="st4" d="M209.6,258.3l-8.1-4.9l1.3-3.2l-1.9-1.2l-2.2,2.6l-8.1-4.9l15.2-11.3l6.8,4.1L209.6,258.3z M202.4,253.1
				l6.6,4l2.6-17.2l-5.9-3.6l-13.9,10.4l6.6,4l2.2-2.6l3,1.8L202.4,253.1z M204,248.7l-2.5-1.5l3.7-4.5l0.9,0.6L204,248.7z
				 M202.6,247.1l1,0.6l1.3-3.4L202.6,247.1z"/>
		</g>
		<g>
			<path class="st9" d="M225.7,267.6l-6.4-3.8l3.9-9.1l-0.3-0.2l-6.2,7.7l-6.4-3.8l5.7-16.2l7,4.2l-5.3,8.4l0.3,0.2l6.6-6.6l3.1,1.9
				l-2.7,8.9l0.4,0.2l4.9-8.6l7,4.2L225.7,267.6z"/>
			<path class="st4" d="M225.8,268l-6.9-4.2l3.5-8.2l-5.6,6.9l-6.9-4.2l5.9-16.9l7.8,4.7l-4.6,7.4l5.6-5.7l3.7,2.2l-2.4,7.6l4.3-7.6
				l7.8,4.7L225.8,268z M219.8,263.6l5.8,3.5l11.1-12.1l-6.3-3.8l-4.9,8.6l-1-0.4l2.8-8.9l-2.6-1.6l-6.6,6.6l-0.8-0.7l5.3-8.4
				l-6.3-3.8l-5.4,15.5l5.9,3.5l6.2-7.7l0.9,0.5L219.8,263.6z"/>
		</g>
		<g>
			<path class="st9" d="M236.3,270l-2.2,2.6l-7.4-4.4l14.6-10.9l6.4,3.8l-2.7,18l-7.4-4.4l1.3-3.2L236.3,270z M241.3,264.9l-0.4-0.2
				l-3.2,3.9l1.7,1L241.3,264.9z"/>
			<path class="st4" d="M245.2,279.7l-8.1-4.9l1.3-3.2l-1.9-1.2l-2.2,2.6l-8.1-4.9l15.2-11.3l6.8,4.1L245.2,279.7z M238,274.5l6.6,4
				l2.6-17.2l-5.9-3.6l-13.9,10.4l6.6,4l2.2-2.6l3,1.8L238,274.5z M239.6,270.1l-2.5-1.5l3.7-4.5l0.9,0.6L239.6,270.1z M238.2,268.4
				l1,0.6l1.4-3.4L238.2,268.4z"/>
		</g>
		<g>
			<path class="st9" d="M255,273.3l4.5-5l7.4,4.4l-11.6,5.1l-2.3,6.1l-6.5-3.9l4.3-5l-1-12.6l7.3,4.4l-2.3,6.3L255,273.3z"/>
			<path class="st4" d="M253.1,284.4l-7.3-4.4l4.5-5.2l-1.1-13.2l8.2,4.9l-2.1,5.8l4.1-4.6l8.3,5l-12.2,5.3L253.1,284.4z
				 M246.9,279.9l5.8,3.5l2.2-5.9l11.1-4.8l-6.5-3.9l-4.5,5l-0.9-0.5l2.3-6.3l-6.5-3.9l1,12.1L246.9,279.9z"/>
		</g>
	</g>
</g>
</svg>
